<?xml version="1.0" encoding="utf-8"?>
<!-- Generator: Adobe Illustrator 24.0.2, SVG Export Plug-In . SVG Version: 6.00 Build 0)  -->
<svg version="1.1" id="Camada_1" xmlns="http://www.w3.org/2000/svg" xmlns:xlink="http://www.w3.org/1999/xlink" x="0px" y="0px"
	 viewBox="0 0 333 620" style="enable-background:new 0 0 333 620;" xml:space="preserve">
<style type="text/css">
	.st0{fill:#011E6A;}
	.st1{fill:#FCF4DF;}
	.st2{fill:#2F8C91;}
	.st3{fill:#286F7F;}
</style>
<g id="right">
	<g>
		<g>
			<path class="st0" d="M206.3-0.1L206.3-0.1L1-0.1C0.1,11.2,2.5,22.7,8,32.6c7.3,13.3,19.9,22,32.9,29.1
				C53.5,68.5,67,74.2,78.3,83.1c5.3,4.2,10.1,9.3,13.4,15.3c4.6,8.2,6,17.6,5.4,26.8c-1.3,20.2-11.6,38-19.5,56.2
				c-3.8,8.9-7.2,18.1-8.7,27.6c-1.4,8.4-1.4,17-0.3,25.5c4.7,35.1,28,65,58,82.7c16,9.5,33.7,15.8,51.8,19.8
				c9.1,2,18.3,3.5,27.6,4.4c0.1,0,0.2,0,0.4,0c0,0,50,4.2,56.1,53.2c6.1,49,71.4,64,71.4,64V-0.1H206.3z"/>
			<g>
				<path class="st1" d="M96.1,30c-0.5,1.7-1,3.4-1.5,5.1c-0.7,2.2,2.8,3.1,3.4,0.9c0.5-1.7,1-3.4,1.5-5.1
					C100.2,28.8,96.7,27.8,96.1,30L96.1,30z"/>
				<path class="st1" d="M106.2,35.9c-0.5,1.7-1.2,3.4-2.3,4.8c-0.6,0.8-0.7,1.8,0,2.5c0.6,0.6,1.9,0.8,2.5,0c1.5-1.9,2.6-4,3.3-6.4
					C110.3,34.6,106.8,33.7,106.2,35.9L106.2,35.9z"/>
				<path class="st1" d="M119,44.8c-1.9,1.4-3.5,3-4.7,5c-1.2,1.9,1.8,3.7,3.1,1.8c0.9-1.4,2.1-2.7,3.4-3.7c0.8-0.6,1.2-1.6,0.6-2.4
					C121,44.6,119.8,44.2,119,44.8L119,44.8z"/>
				<path class="st1" d="M129.5,53c-2.7,1.4-5.2,3.3-7.3,5.5c-1.6,1.7,0.9,4.2,2.5,2.5c1.9-2,4.1-3.7,6.6-5
					C133.4,55,131.6,51.9,129.5,53L129.5,53z"/>
				<path class="st1" d="M136,61.7c-0.9,2.2-2.5,4-4.5,5.2c-2,1.2-0.2,4.3,1.8,3.1c2.8-1.7,4.9-4.3,6.1-7.3
					C140.3,60.5,136.8,59.6,136,61.7L136,61.7z"/>
				<path class="st1" d="M148.2,70.2c-1.3,1.7-2.9,3.2-4.7,4.5c-1.9,1.3-0.1,4.4,1.8,3.1c2.3-1.6,4.3-3.5,6-5.8
					c0.6-0.8,0.1-2-0.6-2.4C149.8,69,148.8,69.4,148.2,70.2L148.2,70.2z"/>
				<path class="st1" d="M158.5,80.8c-1.9,1.7-3.7,3.4-5.6,5.1c-1.7,1.5,0.8,4.1,2.5,2.5c1.9-1.7,3.7-3.4,5.6-5.1
					C162.7,81.8,160.2,79.2,158.5,80.8L158.5,80.8z"/>
				<path class="st1" d="M168,91.3c-1,1.3-2.1,2.5-3.1,3.8c-0.6,0.7-0.7,1.8,0,2.5c0.6,0.6,1.9,0.7,2.5,0c1-1.3,2.1-2.5,3.1-3.8
					c0.6-0.7,0.7-1.8,0-2.5C169.9,90.7,168.6,90.6,168,91.3L168,91.3z"/>
				<path class="st1" d="M83.1,17c0,2-0.2,3.8-0.8,5.7c-0.7,2.2,2.7,3.1,3.4,0.9c0.7-2.1,1-4.4,1-6.6C86.7,14.7,83.1,14.7,83.1,17
					L83.1,17z"/>
				<path class="st1" d="M93.3,11.4c-0.4,1.5-0.9,3-1.3,4.6c-0.7,2.2,2.8,3.2,3.4,0.9c0.4-1.5,0.9-3,1.3-4.6
					C97.3,10.2,93.9,9.2,93.3,11.4L93.3,11.4z"/>
				<path class="st1" d="M105.2,15c-0.6,1.6-1.2,3.2-1.8,4.9c-0.3,0.9,0.4,2,1.2,2.2c1,0.3,1.9-0.3,2.2-1.2c0.6-1.6,1.2-3.2,1.8-4.9
					c0.3-0.9-0.4-2-1.2-2.2C106.4,13.5,105.6,14.1,105.2,15L105.2,15z"/>
				<path class="st1" d="M115.9,19.5c-1.4,2.1-2.8,4.2-4.2,6.3c-1.3,1.9,1.8,3.7,3.1,1.8c1.4-2.1,2.8-4.2,4.2-6.3
					C120.3,19.4,117.2,17.6,115.9,19.5L115.9,19.5z"/>
				<path class="st1" d="M127.2,26.5c-1.7,1.4-3.4,2.8-5.2,4.3c-0.7,0.6-0.6,1.9,0,2.5c0.7,0.7,1.8,0.6,2.5,0
					c1.7-1.4,3.4-2.8,5.2-4.3c0.7-0.6,0.6-1.9,0-2.5C128.9,25.8,127.9,25.9,127.2,26.5L127.2,26.5z"/>
				<path class="st1" d="M136.2,34.8c-1.3,1.5-2.5,3.1-3.8,4.6c-0.6,0.7-0.7,1.8,0,2.5c0.6,0.6,1.9,0.8,2.5,0
					c1.3-1.5,2.5-3.1,3.8-4.6c0.6-0.7,0.7-1.8,0-2.5C138.1,34.2,136.8,34,136.2,34.8L136.2,34.8z"/>
				<path class="st1" d="M145.6,42.3c-1.5,1-2.9,2-4.4,3c-0.8,0.5-1.2,1.6-0.6,2.4c0.5,0.8,1.6,1.2,2.4,0.6c1.5-1,2.9-2,4.4-3
					c0.8-0.5,1.2-1.6,0.6-2.4C147.6,42.1,146.4,41.7,145.6,42.3L145.6,42.3z"/>
				<path class="st1" d="M155.2,50.2c-1.9,1.6-3.7,3.2-5.6,4.8c-1.7,1.5,0.8,4,2.5,2.5c1.9-1.6,3.7-3.2,5.6-4.8
					C159.4,51.2,156.9,48.7,155.2,50.2L155.2,50.2z"/>
				<path class="st1" d="M166,59.8c-1.9,1.3-3.8,2.5-5.6,3.8c-1.9,1.3-0.1,4.4,1.8,3.1c1.9-1.3,3.8-2.5,5.6-3.8
					C169.7,61.6,167.9,58.5,166,59.8L166,59.8z"/>
				<path class="st1" d="M170.4,70.2c-0.9,1.3-1.7,2.5-2.6,3.8c-0.5,0.8-0.2,2,0.6,2.4c0.9,0.5,1.9,0.2,2.4-0.6
					c0.9-1.3,1.7-2.5,2.6-3.8c0.5-0.8,0.2-2-0.6-2.4C172,69,171,69.4,170.4,70.2L170.4,70.2z"/>
				<path class="st1" d="M135.1,10.5c-1.3,0.9-2.5,1.9-3.8,2.8c-0.8,0.6-1.2,1.5-0.6,2.4c0.4,0.8,1.7,1.2,2.4,0.6
					c1.3-0.9,2.5-1.9,3.8-2.8c0.8-0.6,1.2-1.5,0.6-2.4C137.1,10.4,135.9,10,135.1,10.5L135.1,10.5z"/>
				<path class="st1" d="M139.8,15.4c-1.4,1.3-2.7,2.6-4.1,3.9c-1.7,1.6,0.9,4.1,2.5,2.5c1.4-1.3,2.7-2.6,4.1-3.9
					C144,16.3,141.5,13.8,139.8,15.4L139.8,15.4z"/>
				<path class="st1" d="M149.2,21.4c-1.8,1-3.6,2-5.4,3c-2,1.1-0.2,4.2,1.8,3.1c1.8-1,3.6-2,5.4-3C153,23.4,151.2,20.3,149.2,21.4
					L149.2,21.4z"/>
				<path class="st1" d="M155.3,29c-1.5,0.8-2.8,2-3.7,3.4c-0.5,0.8-0.2,2,0.6,2.4c0.9,0.5,1.9,0.2,2.4-0.6c0.6-0.9,1.4-1.6,2.5-2.1
					c0.9-0.4,1.1-1.6,0.6-2.4C157.2,28.8,156.1,28.5,155.3,29L155.3,29z"/>
				<path class="st1" d="M160.5,32.9c-0.7,1.6-1.6,3.1-2.8,4.5c-1.5,1.7,1,4.2,2.5,2.5c1.4-1.5,2.6-3.3,3.4-5.2
					c0.4-0.9,0.3-1.9-0.6-2.4C162.2,31.8,160.9,32,160.5,32.9L160.5,32.9z"/>
				<path class="st1" d="M167.8,38.2c-0.9,1.8-1.9,3.6-2.8,5.3c-1.1,2,2,3.8,3.1,1.8c0.9-1.8,1.9-3.6,2.8-5.3
					C172,38,168.9,36.2,167.8,38.2L167.8,38.2z"/>
				<path class="st1" d="M173.1,47.9c-0.4,1.1-0.9,2.2-1.3,3.3c-0.3,0.9,0.4,2,1.2,2.2c1,0.3,1.8-0.3,2.2-1.2
					c0.4-1.1,0.9-2.2,1.3-3.3c0.3-0.9-0.4-2-1.2-2.2C174.3,46.4,173.4,47,173.1,47.9L173.1,47.9z"/>
				<path class="st1" d="M161.8,8.1c-1.9,0.6-3.7,1.2-5.6,1.8c-2.2,0.7-1.3,4.1,0.9,3.4c1.9-0.6,3.7-1.2,5.6-1.8
					C164.9,10.8,164,7.4,161.8,8.1L161.8,8.1z"/>
				<path class="st1" d="M166.4,14.4c-1.6,1.4-2.9,3.1-3.9,5c-1,2.1,2.1,3.9,3.1,1.8c0.8-1.7,1.9-3,3.3-4.2c0.7-0.6,0.6-1.9,0-2.5
					C168.2,13.7,167.1,13.8,166.4,14.4L166.4,14.4z"/>
				<path class="st1" d="M170.9,19.3c-0.5,2.4-1.1,4.8-1.6,7.1c-0.5,2.2,2.9,3.2,3.4,0.9c0.5-2.4,1.1-4.8,1.6-7.1
					C174.8,18,171.4,17.1,170.9,19.3L170.9,19.3z"/>
			</g>
			<path class="st0" d="M43.8,192.6c-0.1-0.1-0.2-0.1-0.4-0.2c0,0,0,0-0.1,0c-0.1-0.1-0.2-0.1-0.3-0.2c0,0,0,0,0,0
				c-0.1-0.1-0.2-0.1-0.3-0.2c0,0,0,0-0.1,0c-0.1-0.1-0.2-0.1-0.3-0.2c0,0,0,0-0.1,0c-0.1-0.1-0.2-0.2-0.3-0.2c0,0,0,0,0,0
				c-0.1-0.1-0.2-0.2-0.3-0.2c0,0,0,0-0.1,0c-0.1-0.1-0.2-0.2-0.3-0.2c0,0,0,0-0.1,0c-0.1-0.1-0.2-0.2-0.3-0.3c0,0,0,0,0,0
				c-0.1-0.1-0.2-0.2-0.3-0.3c0,0,0,0,0,0c-0.1-0.1-0.2-0.2-0.3-0.3c0,0,0,0,0,0c-0.1-0.1-0.2-0.2-0.3-0.3c0,0,0,0,0,0
				c-0.1-0.1-0.2-0.2-0.3-0.3c0,0,0,0,0,0c-0.1-0.1-0.2-0.2-0.3-0.3c0,0,0,0,0,0c-0.1-0.1-0.2-0.2-0.2-0.3c0,0,0,0,0,0
				c-0.2-0.2-0.3-0.4-0.5-0.6c0,0,0,0,0,0c-0.1-0.1-0.1-0.2-0.2-0.3c0,0,0,0,0,0c-0.1-0.2-0.3-0.4-0.4-0.6c0,0,0,0,0,0
				c-0.1-0.1-0.1-0.2-0.2-0.3c0,0,0,0,0,0c-0.1-0.1-0.1-0.2-0.2-0.3c0,0,0,0,0,0c-0.1-0.2-0.2-0.4-0.3-0.6c0,0,0,0,0,0
				c0-0.1-0.1-0.2-0.1-0.3c0,0,0,0,0,0c-0.1-0.2-0.1-0.4-0.2-0.6c0,0,0,0,0,0c0-0.1-0.1-0.2-0.1-0.3c0,0,0,0,0,0
				c-0.1-0.3-0.1-0.6-0.1-0.8c0,0,0,0,0,0c0-0.3,0-0.5,0-0.7c0,0,0,0,0,0c0-0.1,0-0.2,0-0.2l0,0c0-0.2,0.1-0.3,0.1-0.4c0,0,0,0,0,0
				c0-0.1,0.1-0.1,0.1-0.2c0,0,0,0,0,0c0.5-0.9,1.5-1.4,3.2-1.3c7.7,0.3,13.6,8.2,15.6,11.2c0-1.5,0-3.1,0-4.6c0-1.1,0-2.1,0.1-3.2
				l0-1.5c0.1-3.9,0.3-7.8,0.4-11.6c-0.1,0-0.1,0-0.2,0.1c-0.2,0.1-0.3,0.1-0.5,0.1c-0.1,0-0.2,0.1-0.3,0.1c-0.1,0-0.3,0.1-0.4,0.1
				c-0.1,0-0.2,0-0.3,0.1c-0.1,0-0.3,0.1-0.4,0.1c-0.1,0-0.2,0-0.3,0.1c-0.1,0-0.3,0.1-0.4,0.1c-0.1,0-0.2,0-0.3,0
				c-0.1,0-0.3,0-0.4,0.1c-0.1,0-0.2,0-0.3,0c-0.1,0-0.3,0-0.4,0c-0.1,0-0.2,0-0.3,0c-0.1,0-0.3,0-0.4,0c-0.1,0-0.2,0-0.2,0
				c-0.2,0-0.3,0-0.4,0c-0.1,0-0.1,0-0.2,0c-0.2,0-0.4,0-0.6,0c0,0,0,0,0,0c-0.2,0-0.4,0-0.6,0c-0.1,0-0.1,0-0.2,0
				c-0.1,0-0.3,0-0.4,0c-0.1,0-0.2,0-0.2,0c-0.1,0-0.2,0-0.4,0c-0.1,0-0.2,0-0.2,0c-0.1,0-0.2,0-0.4-0.1c-0.1,0-0.2,0-0.2,0
				c-0.1,0-0.2,0-0.3-0.1c-0.1,0-0.2,0-0.2,0c-0.1,0-0.2-0.1-0.3-0.1c-0.1,0-0.2,0-0.2-0.1c-0.1,0-0.2-0.1-0.3-0.1
				c-0.1,0-0.1,0-0.2-0.1c-0.1,0-0.2-0.1-0.4-0.1c-0.1,0-0.1,0-0.2-0.1c-0.1,0-0.3-0.1-0.4-0.1c0,0-0.1,0-0.1,0
				c-0.2-0.1-0.4-0.1-0.5-0.2c0,0,0,0-0.1,0c-0.2-0.1-0.3-0.1-0.5-0.2c-0.1,0-0.1-0.1-0.2-0.1c-0.1-0.1-0.2-0.1-0.3-0.2
				c-0.1,0-0.1-0.1-0.2-0.1c-0.1,0-0.2-0.1-0.3-0.1c-0.1,0-0.1-0.1-0.2-0.1c-0.1,0-0.2-0.1-0.3-0.2c-0.1,0-0.1-0.1-0.2-0.1
				c-0.1-0.1-0.2-0.1-0.3-0.2c-0.1,0-0.1-0.1-0.2-0.1c-0.1-0.1-0.2-0.1-0.3-0.2c-0.1,0-0.1-0.1-0.2-0.1c-0.1-0.1-0.2-0.1-0.3-0.2
				c-0.1,0-0.1-0.1-0.2-0.1c-0.1-0.1-0.2-0.1-0.3-0.2c-0.1,0-0.1-0.1-0.2-0.1c-0.1-0.1-0.2-0.1-0.3-0.2c0,0-0.1-0.1-0.1-0.1
				c-0.1-0.1-0.3-0.2-0.4-0.3c0,0-0.1-0.1-0.1-0.1c-0.1-0.1-0.2-0.1-0.3-0.2c-0.1,0-0.1-0.1-0.2-0.1c-0.1-0.1-0.1-0.1-0.2-0.2
				c-0.1-0.1-0.1-0.1-0.2-0.2c-0.1-0.1-0.1-0.1-0.2-0.2c-0.1-0.1-0.1-0.1-0.2-0.2c-0.1-0.1-0.1-0.1-0.2-0.2
				c-0.1-0.1-0.1-0.1-0.2-0.2c-0.1-0.1-0.1-0.1-0.2-0.2c-0.1-0.1-0.1-0.1-0.2-0.2c0-0.1-0.1-0.1-0.1-0.2c0-0.1-0.1-0.1-0.1-0.2
				c0-0.1-0.1-0.1-0.1-0.2c0-0.1-0.1-0.1-0.1-0.2c0-0.1-0.1-0.1-0.1-0.2c0-0.1-0.1-0.1-0.1-0.2c0,0-0.1-0.1-0.1-0.1
				c-0.2-0.2-0.3-0.5-0.5-0.7c0,0,0-0.1-0.1-0.1c0-0.1-0.1-0.1-0.1-0.2c0,0,0-0.1-0.1-0.1c0-0.1-0.1-0.1-0.1-0.2c0,0,0-0.1-0.1-0.1
				c0-0.1-0.1-0.1-0.1-0.2c0,0,0-0.1-0.1-0.1c0-0.1,0-0.1-0.1-0.2c0,0,0-0.1,0-0.1c0-0.1,0-0.1-0.1-0.2c0,0,0-0.1,0-0.1
				c0-0.1,0-0.1-0.1-0.2c0,0,0-0.1,0-0.1c0-0.1,0-0.1,0-0.2c0,0,0-0.1,0-0.1c0-0.1,0-0.1,0-0.2c0,0,0,0,0,0c0-0.3,0-0.5,0-0.8
				c0,0,0,0,0-0.1c0-0.1,0-0.1,0-0.2c0,0,0-0.1,0-0.1c0-0.1,0-0.1,0-0.2c0,0,0-0.1,0-0.1c0-0.1,0-0.1,0.1-0.2c0,0,0-0.1,0-0.1
				c0-0.1,0-0.1,0.1-0.2c0,0,0-0.1,0-0.1c0,0,0.1-0.1,0.1-0.1c0,0,0,0,0.1-0.1c0,0,0.1-0.1,0.1-0.1c0,0,0,0,0.1-0.1
				c0,0,0.1-0.1,0.1-0.1c0,0,0,0,0.1,0c0.5-0.4,1.1-0.7,2-0.9c7.4-1.1,15.7,8.4,18.1,11.4c0-2.7,0-5.4-0.1-8l0,0l0-0.1
				c0-0.1,0-0.2,0-0.2c0,0,0,0,0,0l-0.1-1.5c-0.2-3.4-0.7-6.7-1.4-10c-0.4,0.1-0.9,0.1-1.5,0.2c-0.1,0-0.1,0-0.2,0
				c-0.3,0-0.6,0.1-0.9,0.1c-0.1,0-0.2,0-0.2,0c-0.2,0-0.4,0-0.5,0c-0.1,0-0.3,0-0.4,0c-0.1,0-0.2,0-0.3,0c-0.4,0-0.7,0-1.1,0
				c-0.2,0-0.4,0-0.6,0c-2.4-0.1-5.2-0.4-7.8-1.3c0,0,0,0,0,0c-0.1,0-0.3-0.1-0.4-0.1c0,0-0.1,0-0.1,0c-0.1,0-0.2-0.1-0.3-0.1
				c0,0-0.1,0-0.1,0c-0.1,0-0.2-0.1-0.4-0.1c0,0,0,0-0.1,0c-0.1,0-0.2-0.1-0.3-0.1c0,0-0.1,0-0.1,0c-0.1,0-0.2-0.1-0.3-0.1
				c0,0,0,0-0.1,0c-0.1-0.1-0.2-0.1-0.3-0.2c0,0-0.1,0-0.1,0c-0.1,0-0.2-0.1-0.3-0.1c0,0-0.1,0-0.1,0c-0.1-0.1-0.2-0.1-0.3-0.2
				c0,0,0,0,0,0c-0.1-0.1-0.2-0.1-0.3-0.2c0,0,0,0-0.1,0c-0.1,0-0.2-0.1-0.2-0.1c0,0,0,0-0.1,0c-0.1-0.1-0.2-0.1-0.3-0.2
				c0,0,0,0,0,0c-0.1-0.1-0.2-0.1-0.3-0.2c0,0,0,0-0.1,0c-0.1-0.1-0.1-0.1-0.2-0.2c0,0,0,0,0,0c-0.1-0.1-0.2-0.1-0.2-0.2
				c0,0,0,0,0,0c-0.1-0.1-0.1-0.1-0.2-0.2c0,0,0,0,0,0c-0.1-0.1-0.1-0.1-0.2-0.2c0,0,0,0,0,0c-0.1-0.1-0.1-0.1-0.2-0.2c0,0,0,0,0,0
				c-0.1-0.1-0.1-0.1-0.2-0.2c0,0,0,0,0,0c-0.1-0.1-0.2-0.3-0.3-0.4c0,0,0,0,0,0c0-0.1-0.1-0.1-0.1-0.2c0,0,0,0,0,0
				c-0.1-0.1-0.2-0.3-0.2-0.4c0,0,0,0,0,0c-0.1-0.1-0.1-0.3-0.2-0.4c0,0,0,0,0,0c0-0.1,0-0.1,0-0.2c0,0,0,0,0,0c0-0.1,0-0.3,0-0.4
				c0,0,0,0,0,0c0-0.1,0-0.1,0-0.2c0,0,0,0,0,0c0-0.1,0-0.2,0.1-0.4c0,0,0,0,0,0c0.3-1,1.6-1.7,4-2c5.8-0.7,13.2,5.5,15.9,8
				c-0.7-3-1.5-5.9-2.5-8.8l-0.6-1.7c-0.2-0.6-0.4-1.1-0.6-1.7c-0.9-2.2-1.8-4.3-2.9-6.4c-0.1,0-0.2,0.1-0.4,0.1
				c-0.1,0-0.1,0-0.2,0.1c-0.2,0-0.3,0.1-0.5,0.1c-0.6,0.1-1.2,0.3-2.1,0.5c-0.3,0.1-0.6,0.1-0.9,0.2c-0.1,0-0.3,0.1-0.5,0.1
				c-1.6,0.3-3.5,0.7-5.7,1c-0.1,0-0.2,0-0.3,0c0,0-0.1,0-0.1,0c-0.1,0-0.1,0-0.2,0c0,0-0.1,0-0.1,0c-0.1,0-0.1,0-0.2,0
				c0,0-0.1,0-0.1,0c-0.1,0-0.1,0-0.2,0c0,0-0.1,0-0.1,0c-0.1,0-0.1,0-0.2,0c0,0-0.1,0-0.1,0c-0.1,0-0.1,0-0.2,0c0,0-0.1,0-0.1,0
				c-0.1,0-0.1,0-0.2,0c0,0-0.1,0-0.1,0c-0.1,0-0.2,0-0.3,0c0,0,0,0-0.1,0c-0.1,0-0.2,0-0.3,0c0,0-0.1,0-0.1,0c-0.1,0-0.2,0-0.2,0
				c0,0-0.1,0-0.1,0c-0.1,0-0.1,0-0.2,0c0,0-0.1,0-0.1,0c-0.1,0-0.1,0-0.2,0c0,0-0.1,0-0.1,0c-0.1,0-0.1,0-0.2,0c0,0-0.1,0-0.1,0
				c-0.1,0-0.1,0-0.2,0c0,0-0.1,0-0.1,0c-0.1,0-0.1,0-0.2,0c0,0-0.1,0-0.1,0c-0.1,0-0.1,0-0.2,0c0,0-0.1,0-0.1,0
				c-0.1,0-0.2,0-0.3-0.1c0,0-0.1,0-0.1,0c-0.1,0-0.1,0-0.2-0.1c0,0-0.1,0-0.1,0c-0.1,0-0.1,0-0.2,0c0,0-0.1,0-0.1,0
				c-0.1,0-0.1,0-0.2,0c0,0-0.1,0-0.1,0c0,0-0.1,0-0.1,0c0,0-0.1,0-0.1,0c0,0-0.1,0-0.1,0c0,0-0.1,0-0.1-0.1c0,0-0.1,0-0.1-0.1
				c0,0-0.1,0-0.1-0.1c0,0-0.1,0-0.1-0.1c0,0-0.1,0-0.1-0.1c0,0-0.1,0-0.1-0.1c-0.1,0-0.2-0.1-0.3-0.1c0,0-0.1,0-0.1,0
				c0,0-0.1,0-0.1-0.1c0,0-0.1,0-0.1-0.1c0,0-0.1,0-0.1-0.1c0,0-0.1,0-0.1-0.1c0,0-0.1-0.1-0.1-0.1c0,0-0.1,0-0.1-0.1
				c0,0-0.1-0.1-0.1-0.1c0,0-0.1,0-0.1-0.1c0,0-0.1-0.1-0.1-0.1c0,0-0.1,0-0.1-0.1c0,0-0.1-0.1-0.1-0.1c0,0,0,0-0.1,0
				c0,0-0.1-0.1-0.1-0.1c0,0,0,0,0,0c-0.2-0.1-0.3-0.3-0.5-0.4c0,0,0,0,0,0c0,0-0.1-0.1-0.1-0.1c0,0,0,0,0,0c0,0-0.1-0.1-0.1-0.1
				c0,0,0,0,0,0c0,0-0.1-0.1-0.1-0.1c0,0,0,0,0,0c0,0-0.1-0.1-0.1-0.1c0,0,0,0,0,0c0,0-0.1-0.1-0.1-0.1c0,0,0,0,0,0
				c0,0-0.1-0.1-0.1-0.1c0,0,0,0,0,0c-0.2-0.2-0.3-0.4-0.4-0.7c0,0,0,0,0,0c0,0,0-0.1-0.1-0.1c0,0,0,0,0,0c0,0,0-0.1-0.1-0.1
				c0,0,0,0,0,0c0,0,0-0.1-0.1-0.1c0,0,0,0,0,0c0,0,0-0.1,0-0.1c0,0,0,0,0,0c0-0.1,0-0.1,0-0.2c0,0,0,0,0,0
				c-0.1-0.2-0.1-0.5-0.1-0.7c0,0,0,0,0,0c0-0.1,0-0.1,0-0.2c0,0,0,0,0,0c0-0.1,0-0.1,0-0.2c0,0,0,0,0,0c0-0.1,0-0.1,0-0.2
				c0,0,0,0,0,0c0-0.1,0-0.1,0-0.2c0,0,0,0,0,0c0-0.1,0-0.1,0-0.2c0,0,0,0,0,0c0.2-0.6,0.5-1.1,1-1.7c4.7-5.3,16.5,2.4,20.5,5.3
				c-1.8-3.4-3.8-6.6-6.1-9.7c0,0,0,0,0,0l-0.8-1.1c-1.4-1.8-2.8-3.5-4.3-5.2c0,0,0,0-0.1,0c-0.1,0-0.3,0-0.4,0c0,0,0,0-0.1,0
				c-0.1,0-0.3,0-0.4,0c0,0,0,0,0,0c-0.1,0-0.3,0-0.4-0.1c0,0-0.1,0-0.1,0c-0.1,0-0.3,0-0.4-0.1c0,0,0,0-0.1,0
				c-0.1,0-0.3-0.1-0.4-0.1c0,0,0,0,0,0c-0.1,0-0.3-0.1-0.4-0.1c0,0,0,0-0.1,0c-0.1,0-0.3-0.1-0.4-0.1c0,0-0.1,0-0.1,0
				c-0.1,0-0.3-0.1-0.4-0.1c0,0,0,0-0.1,0c-0.1,0-0.3-0.1-0.4-0.2c0,0,0,0,0,0c-0.1-0.1-0.3-0.1-0.4-0.2c0,0-0.1,0-0.1,0
				c-0.1-0.1-0.3-0.1-0.4-0.2c0,0,0,0-0.1,0c-0.1-0.1-0.3-0.1-0.4-0.2c0,0,0,0,0,0c-0.1-0.1-0.3-0.1-0.4-0.2c0,0,0,0-0.1,0
				c-0.1-0.1-0.3-0.1-0.4-0.2c0,0-0.1,0-0.1,0c-0.1-0.1-0.3-0.2-0.4-0.2c0,0,0,0-0.1,0c-0.1-0.1-0.3-0.2-0.4-0.2c0,0,0,0,0,0
				c-0.1-0.1-0.3-0.2-0.4-0.3c0,0,0,0-0.1,0c-0.1-0.1-0.2-0.2-0.4-0.3c0,0,0,0-0.1-0.1c-0.1-0.1-0.2-0.2-0.4-0.3c0,0,0,0,0,0
				c-0.1-0.1-0.2-0.2-0.4-0.3c0,0,0,0,0,0c-0.1-0.1-0.2-0.2-0.4-0.3c0,0,0,0-0.1-0.1c-0.1-0.1-0.2-0.2-0.3-0.3c0,0,0,0-0.1,0
				c-0.1-0.1-0.2-0.2-0.3-0.3c0,0,0,0,0,0c-0.1-0.1-0.2-0.2-0.3-0.3c0,0,0,0-0.1-0.1c-0.1-0.1-0.2-0.2-0.3-0.3c0,0,0,0-0.1-0.1
				c-0.1-0.1-0.2-0.2-0.3-0.3c0,0,0,0,0,0c-0.1-0.1-0.2-0.2-0.3-0.3c0,0,0,0,0,0c-0.1-0.1-0.2-0.2-0.3-0.3c0,0,0,0-0.1-0.1
				c-0.1-0.1-0.2-0.2-0.3-0.3c0,0,0,0,0-0.1c-0.1-0.1-0.2-0.2-0.3-0.3c0,0,0,0,0,0c-0.1-0.1-0.2-0.2-0.3-0.3c0,0,0,0,0-0.1
				c-0.1-0.1-0.2-0.2-0.3-0.3c0,0,0,0,0-0.1c-0.1-0.1-0.2-0.2-0.3-0.3c0,0,0,0,0,0c-0.1-0.1-0.2-0.2-0.2-0.3c0,0,0,0,0,0
				c-0.1-0.1-0.2-0.2-0.2-0.3c0,0,0,0,0-0.1c-0.1-0.1-0.1-0.2-0.2-0.3c0,0,0,0,0-0.1c-0.1-0.1-0.1-0.2-0.2-0.3c0,0,0,0,0,0
				c-0.1-0.1-0.1-0.2-0.2-0.3c0,0,0,0,0,0c-0.1-0.1-0.1-0.2-0.2-0.3c0,0,0,0,0-0.1c-0.1-0.1-0.1-0.2-0.2-0.3c0,0,0,0,0,0
				c-0.1-0.1-0.1-0.2-0.2-0.3c0,0,0,0,0,0c-0.1-0.1-0.1-0.2-0.1-0.3c0,0,0,0,0,0c0-0.1-0.1-0.2-0.1-0.3c0,0,0,0,0,0
				c0-0.1-0.1-0.2-0.1-0.3c0,0,0,0,0,0c0-0.1-0.1-0.2-0.1-0.3c0,0,0,0,0,0c0-0.1-0.1-0.2-0.1-0.3c0,0,0,0,0,0c0-0.1-0.1-0.2-0.1-0.3
				c0,0,0,0,0,0c0-0.2-0.1-0.4-0.1-0.6c0,0,0,0,0,0c0-0.1,0-0.2,0-0.3c0,0,0,0,0,0c0-0.1,0-0.2,0-0.3c0,0,0,0,0,0c0-0.1,0-0.2,0-0.3
				c0,0,0,0,0,0c0-0.1,0-0.2,0-0.2c0,0,0,0,0,0c0-0.1,0-0.2,0-0.2c0,0,0,0,0,0c0-0.2,0.1-0.3,0.1-0.4c0,0,0,0,0,0
				c0-0.1,0.1-0.1,0.1-0.2c0,0,0,0,0,0c0-0.1,0.1-0.1,0.1-0.2c0,0,0,0,0,0c0-0.1,0.1-0.1,0.1-0.2c0,0,0,0,0,0c0-0.1,0.1-0.1,0.2-0.1
				c0,0,0,0,0,0c0.1,0,0.1-0.1,0.2-0.1c0,0,0,0,0,0c0.1,0,0.1-0.1,0.2-0.1l0,0l0,0c0.8-0.4,1.9-0.4,3.6,0c9.6,2.6,12,12.4,12.5,15.8
				c1.6,1.7,3,3.5,4.4,5.3l0.8,1c2.4,3.2,4.5,6.5,6.3,10c-0.5-4.8-1-16.6,5.1-19.3c1.6-0.7,2.8-0.7,3.8-0.2c0,0,0,0,0,0
				c0.3,0.1,0.5,0.3,0.7,0.6c0,0,0,0,0,0c0.2,0.2,0.4,0.5,0.6,0.8c0,0,0,0,0,0c0.2,0.3,0.3,0.6,0.4,1c0,0,0,0,0,0
				c0,0.1,0,0.1,0.1,0.2l0,0c0.1,0.3,0.1,0.6,0.2,0.9c0,0,0,0,0,0c0,0.1,0,0.1,0,0.2c0,0,0,0,0,0c0,0.2,0,0.5,0.1,0.7c0,0,0,0,0,0
				c0,0.1,0,0.1,0,0.2c0,0,0,0,0,0.1c0,0.1,0,0.1,0,0.2c0,0,0,0,0,0.1c0,0.2,0,0.5,0,0.7c0,0,0,0.1,0,0.1c0,0.1,0,0.1,0,0.2
				c0,0,0,0.1,0,0.1c0,0.1,0,0.1,0,0.2c0,0,0,0.1,0,0.1c0,0.1,0,0.1,0,0.2c0,0,0,0.1,0,0.1c0,0.1,0,0.2-0.1,0.4c0,0,0,0.1,0,0.1
				c0,0.1,0,0.1,0,0.2c0,0.1,0,0.1,0,0.2c0,0.1,0,0.1,0,0.2c0,0.1,0,0.1,0,0.2c0,0.1,0,0.1,0,0.2c0,0.1,0,0.2-0.1,0.2
				c0,0.1,0,0.1,0,0.2c0,0.1,0,0.1,0,0.2c0,0.1,0,0.1,0,0.2c0,0.1,0,0.1,0,0.2c0,0.1,0,0.1,0,0.2c0,0.1,0,0.1-0.1,0.2
				c0,0,0,0.1,0,0.1c0,0.1-0.1,0.2-0.1,0.3c0,0,0,0.1,0,0.1c0,0.1-0.1,0.2-0.1,0.3c0,0,0,0.1,0,0.1c0,0.1,0,0.1-0.1,0.2
				c0,0,0,0.1,0,0.1c0,0.1-0.1,0.1-0.1,0.2c0,0,0,0.1,0,0.1c0,0.1-0.1,0.2-0.1,0.3c0,0,0,0,0,0c0,0.1-0.1,0.2-0.1,0.3
				c0,0,0,0.1,0,0.1c0,0.1-0.1,0.1-0.1,0.2c0,0,0,0.1-0.1,0.1c0,0.1-0.1,0.1-0.1,0.2c0,0,0,0.1,0,0.1c-0.1,0.1-0.1,0.2-0.2,0.3
				c0,0,0,0,0,0c-0.1,0.1-0.1,0.2-0.2,0.3c0,0,0,0.1-0.1,0.1c0,0.1-0.1,0.1-0.1,0.2c0,0,0,0.1-0.1,0.1c0,0.1-0.1,0.1-0.1,0.2
				c0,0,0,0.1-0.1,0.1c-0.1,0.1-0.1,0.2-0.2,0.3c0,0,0,0,0,0c-0.1,0.1-0.1,0.2-0.2,0.3c0,0,0,0.1-0.1,0.1c0,0.1-0.1,0.1-0.1,0.2
				c0,0,0,0.1-0.1,0.1c0,0.1-0.1,0.1-0.1,0.2c0,0,0,0.1-0.1,0.1c-0.1,0.1-0.1,0.2-0.2,0.3c-1.1,1.3-2,2.3-2.8,3.2
				c-0.2,0.2-0.5,0.4-0.7,0.6c-0.2,0.2-0.4,0.4-0.6,0.5c-0.3,0.2-0.6,0.5-0.8,0.6c-0.1,0.1-0.2,0.1-0.2,0.2
				c-0.3,0.2-0.6,0.4-0.8,0.5c-0.1,0-0.1,0.1-0.2,0.1c-0.1,0-0.2,0.1-0.2,0.1c1.1,2.1,2.1,4.3,2.9,6.5l0.7,1.7
				c1.2,3.2,2.2,6.5,2.9,9.9c1-4.8,4.5-18.4,11.3-16.9c0.3,0.1,0.6,0.1,0.8,0.2c0,0,0,0,0,0c0.1,0,0.1,0,0.2,0.1c0,0,0,0,0,0
				c0.1,0,0.1,0,0.2,0.1c0,0,0,0,0,0c0.1,0,0.1,0,0.2,0.1c0,0,0,0,0,0c0.1,0,0.1,0,0.2,0.1c0,0,0,0,0,0c0,0,0.1,0,0.1,0.1
				c0,0,0,0,0,0c0,0,0.1,0,0.1,0.1c0,0,0,0,0,0c0,0,0.1,0.1,0.1,0.1c0,0,0,0,0,0c0,0,0.1,0.1,0.1,0.1c0,0,0,0,0,0
				c0,0,0.1,0.1,0.1,0.1c0,0,0,0,0,0c0,0,0.1,0.1,0.1,0.1c0,0,0,0,0,0c0,0,0.1,0.1,0.1,0.1c0,0,0,0,0,0c0,0,0.1,0.1,0.1,0.1
				c0,0,0,0,0,0c0,0,0.1,0.1,0.1,0.1c0,0,0,0,0,0c0,0,0.1,0.1,0.1,0.1c0,0,0,0,0,0c0,0,0.1,0.1,0.1,0.1c0,0,0,0,0,0
				c0,0,0.1,0.1,0.1,0.1c0,0,0,0,0,0c0,0,0,0.1,0.1,0.1c0,0,0,0,0,0c0,0,0,0.1,0.1,0.1c0,0,0,0,0,0c0,0,0,0.1,0.1,0.1c0,0,0,0,0,0
				c0,0,0,0.1,0.1,0.1c0,0,0,0,0,0c0,0,0,0.1,0,0.1c0,0,0,0,0,0c0,0,0,0.1,0,0.1c0,0,0,0,0,0c0,0,0,0.1,0,0.1c0,0,0,0,0,0
				c0.3,1,0,2.3-0.6,3.6l0,0c0,0.1-0.1,0.1-0.1,0.2c0,0,0,0,0,0c0,0.1-0.1,0.1-0.1,0.2c0,0,0,0,0,0c0,0.1-0.1,0.1-0.1,0.2
				c0,0,0,0,0,0c0,0.1-0.1,0.1-0.1,0.2c0,0,0,0,0,0c0,0.1-0.1,0.1-0.1,0.2c0,0,0,0,0,0c0,0.1-0.1,0.1-0.1,0.2c0,0,0,0,0,0
				c0,0.1-0.1,0.1-0.1,0.2c0,0,0,0,0,0c0,0-0.1,0.1-0.1,0.1c0,0,0,0,0,0c0,0-0.1,0.1-0.1,0.1c0,0,0,0,0,0c0,0-0.1,0.1-0.1,0.1
				c0,0,0,0,0,0c0,0-0.1,0.1-0.1,0.1c0,0,0,0,0,0c0,0-0.1,0.1-0.1,0.1c0,0,0,0,0,0c0,0-0.1,0.1-0.1,0.1c0,0,0,0,0,0
				c0,0-0.1,0.1-0.1,0.1c0,0,0,0,0,0c0,0-0.1,0.1-0.1,0.1c0,0,0,0,0,0c0,0-0.1,0.1-0.1,0.1c0,0,0,0,0,0c0,0-0.1,0.1-0.1,0.1
				c0,0,0,0,0,0c0,0-0.1,0.1-0.1,0.1c0,0,0,0,0,0c0,0-0.1,0.1-0.1,0.1c0,0,0,0,0,0c0,0-0.1,0.1-0.1,0.1c0,0,0,0,0,0
				c0,0-0.1,0.1-0.1,0.1c0,0,0,0,0,0c0,0-0.1,0.1-0.1,0.1c0,0,0,0,0,0c0,0-0.1,0.1-0.1,0.1c0,0,0,0,0,0c0,0-0.1,0.1-0.1,0.1
				c0,0,0,0,0,0c0,0-0.1,0.1-0.1,0.1c0,0,0,0,0,0c0,0-0.1,0.1-0.1,0.1c0,0,0,0,0,0c0,0-0.1,0.1-0.1,0.1c0,0,0,0,0,0
				c0,0-0.1,0.1-0.1,0.1c0,0,0,0,0,0c0,0-0.1,0.1-0.1,0.1c0,0,0,0,0,0c-0.1,0.1-0.1,0.1-0.2,0.2c0,0,0,0,0,0
				c-0.1,0.1-0.1,0.1-0.2,0.2c0,0,0,0,0,0c-0.4,0.4-0.9,0.8-1.3,1.2c0,0,0,0,0,0c-0.1,0-0.1,0.1-0.2,0.1c0,0,0,0,0,0
				c0,0-0.1,0.1-0.1,0.1c0,0,0,0-0.1,0c0,0-0.1,0.1-0.1,0.1c0,0,0,0-0.1,0.1c0,0-0.1,0.1-0.1,0.1c0,0,0,0-0.1,0.1
				c0,0-0.1,0.1-0.1,0.1c0,0-0.1,0-0.1,0.1c0,0-0.1,0.1-0.1,0.1c0,0-0.1,0-0.1,0.1c0,0-0.1,0.1-0.1,0.1c0,0-0.1,0-0.1,0.1
				c0,0-0.1,0.1-0.1,0.1c0,0-0.1,0-0.1,0.1c0,0-0.1,0.1-0.1,0.1c0,0-0.1,0-0.1,0.1c0,0-0.1,0.1-0.1,0.1c0,0-0.1,0-0.1,0.1
				c0,0-0.1,0.1-0.1,0.1c0,0-0.1,0-0.1,0.1c0,0-0.1,0.1-0.1,0.1c0,0-0.1,0-0.1,0.1c0,0-0.1,0.1-0.1,0.1c0,0-0.1,0-0.1,0.1
				c0,0-0.1,0.1-0.1,0.1c0,0-0.1,0-0.1,0.1c0,0-0.1,0.1-0.1,0.1c0,0-0.1,0-0.1,0.1c0,0-0.1,0.1-0.1,0.1c0,0-0.1,0-0.1,0.1
				c0,0-0.1,0-0.1,0.1c0,0-0.1,0-0.1,0.1c0,0-0.1,0-0.1,0.1c0,0-0.1,0-0.1,0.1c0,0-0.1,0-0.1,0.1c0,0-0.1,0-0.1,0.1
				c0,0-0.1,0-0.1,0.1c0,0-0.1,0-0.1,0.1c0,0-0.1,0-0.1,0.1c0,0-0.1,0-0.1,0.1c0,0-0.1,0-0.1,0.1c0,0-0.1,0-0.1,0.1
				c0,0-0.1,0-0.1,0.1c0,0-0.1,0-0.1,0.1c0,0-0.1,0-0.1,0.1c0,0-0.1,0-0.1,0.1c0,0-0.1,0-0.1,0.1c0,0-0.1,0-0.1,0.1
				c0,0-0.1,0-0.1,0.1c0,0-0.1,0-0.1,0.1c0,0-0.1,0-0.1,0.1c0,0-0.1,0-0.1,0.1c0,0-0.1,0-0.1,0.1c0,0-0.1,0-0.1,0.1
				c0,0-0.1,0-0.1,0.1c0,0-0.1,0-0.1,0.1c0,0-0.1,0-0.1,0.1c0,0-0.1,0-0.1,0.1c0,0-0.1,0-0.1,0.1c0,0-0.1,0-0.1,0.1
				c0,0-0.1,0-0.1,0.1c0,0-0.1,0-0.1,0.1c0,0-0.1,0-0.1,0c0,0-0.1,0-0.1,0.1c0,0-0.1,0-0.1,0c0,0-0.1,0-0.1,0.1c0,0-0.1,0-0.1,0
				c0,0-0.1,0-0.1,0.1c0,0-0.1,0-0.1,0c0,0-0.1,0-0.1,0c0,0-0.1,0-0.1,0c0,0-0.1,0-0.1,0c0,0-0.1,0-0.1,0c0,0-0.1,0-0.1,0
				c0,0-0.1,0-0.1,0c0,0-0.1,0-0.1,0c0,0,0,0,0,0c0.5,2.4,0.9,4.9,1.2,7.4c0.1,0.7,0.1,1.4,0.2,2.1l0.1,1.3c0.2,2.8,0.3,5.5,0.3,8.3
				c1.6-4.2,5.8-12.5,14.8-12.9c1.8-0.1,3,0.2,3.7,0.7c0,0,0,0,0,0c0.1,0,0.1,0.1,0.2,0.1c0,0,0,0,0,0c0.1,0.1,0.1,0.1,0.2,0.2
				c0,0,0,0,0,0c0.1,0.1,0.2,0.2,0.2,0.4c0,0,0,0,0,0c0,0.1,0.1,0.1,0.1,0.2c0,0,0,0,0,0c0,0.1,0,0.1,0.1,0.2c0,0,0,0,0,0
				c0,0.2,0.1,0.4,0,0.7c0,0,0,0,0,0c0,0.1,0,0.2,0,0.2c0,0,0,0,0,0c0,0.2-0.1,0.5-0.2,0.8c0,0,0,0,0,0c0,0.1-0.1,0.2-0.1,0.3
				c0,0,0,0,0,0c-0.1,0.3-0.3,0.6-0.4,0.8c0,0,0,0,0,0c-0.1,0.1-0.1,0.2-0.2,0.3c0,0,0,0,0,0c-0.1,0.1-0.1,0.2-0.2,0.3c0,0,0,0,0,0
				c-0.1,0.2-0.3,0.4-0.5,0.6c0,0,0,0,0,0c-0.1,0.1-0.2,0.2-0.2,0.3c0,0,0,0,0,0c-0.1,0.1-0.2,0.2-0.3,0.3c0,0,0,0,0,0
				c-0.2,0.2-0.4,0.4-0.6,0.6c0,0,0,0,0,0c-0.1,0.1-0.2,0.2-0.3,0.3c0,0,0,0,0,0c-0.1,0.1-0.2,0.2-0.3,0.3c0,0,0,0,0,0
				c-0.2,0.2-0.4,0.4-0.7,0.6c0,0,0,0,0,0c-0.1,0.1-0.2,0.2-0.3,0.3c0,0,0,0,0,0c-0.1,0.1-0.2,0.2-0.3,0.3c0,0,0,0,0,0
				c-0.1,0.1-0.2,0.2-0.4,0.3c0,0,0,0,0,0c-0.1,0.1-0.2,0.2-0.4,0.3c0,0,0,0,0,0c-0.1,0.1-0.2,0.2-0.4,0.3c0,0,0,0-0.1,0
				c-0.1,0.1-0.2,0.2-0.4,0.3c0,0,0,0-0.1,0c-0.1,0.1-0.3,0.2-0.4,0.3c0,0,0,0,0,0c-0.1,0.1-0.3,0.2-0.4,0.3c0,0,0,0,0,0
				c-0.1,0.1-0.3,0.2-0.4,0.3c0,0,0,0-0.1,0c-0.1,0.1-0.3,0.2-0.4,0.2c0,0,0,0-0.1,0c-0.1,0.1-0.3,0.2-0.4,0.2c0,0,0,0-0.1,0
				c-0.1,0.1-0.3,0.2-0.4,0.2c0,0,0,0,0,0c-0.1,0.1-0.3,0.2-0.4,0.2c0,0,0,0-0.1,0c-0.1,0.1-0.3,0.2-0.4,0.2c0,0-0.1,0-0.1,0
				c-0.1,0.1-0.3,0.1-0.4,0.2c0,0,0,0-0.1,0c-0.1,0.1-0.3,0.1-0.5,0.2c0,0,0,0,0,0c-0.1,0.1-0.3,0.1-0.5,0.2c0,0,0,0-0.1,0
				c-0.1,0.1-0.3,0.1-0.4,0.2c0,0-0.1,0-0.1,0c-0.1,0.1-0.3,0.1-0.4,0.2c0,0-0.1,0-0.1,0c-0.2,0.1-0.3,0.1-0.5,0.2c0,0,0,0,0,0
				c-0.2,0.1-0.3,0.1-0.5,0.2c0,0,0,0-0.1,0c-0.2,0.1-0.3,0.1-0.5,0.2c0,0-0.1,0-0.1,0c-0.1,0-0.3,0.1-0.4,0.1c0,0-0.1,0-0.1,0
				c-0.2,0-0.3,0.1-0.5,0.1c0,0,0,0,0,0c-0.2,0-0.3,0.1-0.5,0.1c0,0,0,0,0,0c-0.2,0-0.3,0.1-0.5,0.1c0,0-0.1,0-0.1,0
				c-0.2,0-0.3,0.1-0.5,0.1c0,0-0.1,0-0.1,0c-0.2,0-0.3,0.1-0.5,0.1c0,0,0,0-0.1,0c-0.2,0-0.3,0.1-0.5,0.1c0,0,0,0,0,0
				c-0.2,0-0.3,0-0.5,0.1c0,0,0,0-0.1,0c-0.1,0-0.3,0-0.4,0c0,0-0.1,0-0.1,0c-0.1,0-0.2,0-0.2,0c-0.1,4.1-0.2,8.3-0.4,12.4l-0.1,2
				c-0.1,2.3-0.1,4.6,0,6.9c3.1-3.4,13-13.6,17.9-12.8c1.5,0.2,2.3,1.1,2.7,2.2c0,0,0,0,0,0c0.1,0.2,0.1,0.4,0.1,0.6c0,0,0,0,0,0.1
				c0,0.2,0,0.4,0,0.7c0,0,0,0,0,0.1c0,0.1,0,0.2,0,0.4c0,0,0,0,0,0c0,0.1,0,0.2,0,0.4c0,0,0,0,0,0.1c0,0.1,0,0.2-0.1,0.4
				c0,0,0,0,0,0c0,0.1-0.1,0.2-0.1,0.4c0,0,0,0,0,0.1c0,0.1-0.1,0.3-0.1,0.4c0,0,0,0,0,0c0,0.1-0.1,0.2-0.1,0.4c0,0,0,0,0,0
				c0,0.1-0.1,0.3-0.2,0.4c0,0,0,0,0,0.1c-0.1,0.1-0.1,0.2-0.2,0.4c0,0,0,0,0,0c-0.1,0.1-0.1,0.3-0.2,0.4c0,0,0,0,0,0.1
				c-0.1,0.1-0.1,0.2-0.2,0.4c0,0,0,0,0,0c-0.1,0.1-0.2,0.2-0.2,0.4c0,0,0,0.1,0,0.1c-0.2,0.2-0.3,0.5-0.5,0.7c0,0,0,0.1-0.1,0.1
				c-0.1,0.1-0.2,0.2-0.3,0.4c0,0,0,0,0,0c-0.1,0.1-0.2,0.2-0.3,0.3c0,0,0,0.1-0.1,0.1c-0.1,0.1-0.2,0.2-0.3,0.3c0,0,0,0,0,0
				c-0.1,0.1-0.2,0.2-0.3,0.3c0,0,0,0-0.1,0.1c-0.1,0.1-0.2,0.2-0.3,0.3c0,0,0,0-0.1,0.1c-0.1,0.1-0.2,0.2-0.3,0.3c0,0,0,0-0.1,0.1
				c-0.1,0.1-0.2,0.2-0.4,0.3c0,0-0.1,0-0.1,0.1c-0.1,0.1-0.2,0.2-0.3,0.2c0,0,0,0-0.1,0c-0.1,0.1-0.3,0.2-0.4,0.2
				c0,0-0.1,0-0.1,0.1c-0.1,0.1-0.2,0.1-0.4,0.2c0,0,0,0-0.1,0c-0.1,0.1-0.3,0.1-0.4,0.2c0,0-0.1,0-0.1,0c-0.1,0.1-0.3,0.1-0.4,0.2
				c0,0,0,0,0,0c-0.1,0.1-0.3,0.1-0.4,0.2c0,0-0.1,0-0.1,0c-0.2,0.1-0.3,0.1-0.5,0.2l0,0l0,0c-4.7,1.4-8.6,1.4-11,1.1
				c-0.7-0.1-1.2-0.2-1.6-0.2c0.1,3.8,0.4,7.5,1,11.3c0,0,0,0,0,0l0,0.1c0,0.1,0,0.1,0,0.2c0,0,0,0,0,0l0.2,1.2c0,0,0,0,0,0
				c0,0.1,0,0.2,0.1,0.3l0,0l0,0c0.2,0.8,0.3,1.6,0.5,2.4c2.3,9.7,6.7,18.9,12.9,26.7c0.6,0.8-0.6,1.6-1.2,0.8
				c-5.5-6.9-9.6-14.9-12.1-23.4c-0.6-2-1-3.9-1.4-5.9l-0.3-1.6c-0.7-4-1-8-1.1-12c-0.1,0-0.3,0.1-0.4,0.1c0,0-0.1,0-0.1,0
				c-0.2,0.1-0.3,0.1-0.5,0.1c0,0,0,0,0,0c-0.2,0-0.3,0.1-0.5,0.1c0,0,0,0-0.1,0c-0.2,0-0.3,0.1-0.5,0.1c0,0-0.1,0-0.1,0
				c-0.2,0-0.3,0.1-0.5,0.1c0,0,0,0-0.1,0c-0.2,0-0.3,0-0.5,0.1c0,0,0,0,0,0c-0.2,0-0.3,0-0.5,0c0,0-0.1,0-0.1,0c-0.2,0-0.3,0-0.5,0
				c0,0-0.1,0-0.1,0c-0.2,0-0.3,0-0.5,0c0,0,0,0,0,0c-0.2,0-0.3,0-0.5,0c0,0-0.1,0-0.1,0c-0.1,0-0.3,0-0.4,0c0,0-0.1,0-0.1,0
				c-0.2,0-0.3,0-0.4,0c0,0,0,0,0,0c-0.1,0-0.3,0-0.4-0.1c0,0,0,0-0.1,0c-0.1,0-0.3,0-0.4-0.1c0,0-0.1,0-0.1,0
				c-0.1,0-0.3-0.1-0.4-0.1c0,0,0,0-0.1,0c-0.1,0-0.3-0.1-0.4-0.1c0,0,0,0,0,0c-0.1,0-0.3-0.1-0.4-0.1c0,0-0.1,0-0.1,0
				c-0.1,0-0.3-0.1-0.4-0.1c0,0-0.1,0-0.1,0c-0.1,0-0.3-0.1-0.4-0.1c0,0,0,0,0,0c-0.1,0-0.3-0.1-0.4-0.2c0,0-0.1,0-0.1,0
				c-0.1-0.1-0.3-0.1-0.4-0.2c0,0-0.1,0-0.1,0c-0.1-0.1-0.3-0.1-0.4-0.2c0,0,0,0,0,0c-0.1-0.1-0.2-0.1-0.4-0.2c0,0,0,0-0.1,0
				C44.1,192.8,44,192.7,43.8,192.6C43.9,192.6,43.8,192.6,43.8,192.6z"/>
			<path class="st0" d="M227.3,425.9c-0.1,0-0.3,0-0.4,0c0,0,0,0-0.1,0c-0.1,0-0.3,0-0.4,0c0,0,0,0,0,0c-0.1,0-0.3,0-0.4,0
				c0,0-0.1,0-0.1,0c-0.1,0-0.3,0-0.4-0.1c0,0,0,0-0.1,0c-0.1,0-0.3,0-0.4-0.1c0,0,0,0,0,0c-0.1,0-0.3-0.1-0.4-0.1c0,0,0,0-0.1,0
				c-0.1,0-0.3-0.1-0.4-0.1c0,0,0,0-0.1,0c-0.1,0-0.3-0.1-0.4-0.1c0,0,0,0,0,0c-0.1,0-0.2-0.1-0.4-0.1c0,0,0,0,0,0
				c-0.1,0-0.2-0.1-0.4-0.1c0,0,0,0-0.1,0c-0.1,0-0.2-0.1-0.4-0.1c0,0,0,0,0,0c-0.1,0-0.2-0.1-0.4-0.1c0,0,0,0,0,0
				c-0.1,0-0.2-0.1-0.4-0.1c0,0,0,0-0.1,0c-0.1,0-0.2-0.1-0.3-0.1c0,0,0,0,0,0c-0.2-0.1-0.5-0.2-0.7-0.3c0,0,0,0,0,0
				c-0.1-0.1-0.2-0.1-0.3-0.2c0,0,0,0,0,0c-0.2-0.1-0.4-0.2-0.6-0.4c0,0,0,0,0,0c-0.1-0.1-0.2-0.1-0.3-0.2c0,0,0,0,0,0
				c-0.1-0.1-0.2-0.1-0.3-0.2c0,0,0,0,0,0c-0.2-0.1-0.4-0.3-0.5-0.4c0,0,0,0,0,0c-0.1-0.1-0.2-0.1-0.2-0.2c0,0,0,0,0,0
				c-0.2-0.1-0.3-0.3-0.4-0.4c0,0,0,0,0,0c-0.1-0.1-0.1-0.1-0.2-0.2c0,0,0,0,0,0c-0.2-0.2-0.3-0.4-0.5-0.7c0,0,0,0,0,0
				c-0.1-0.2-0.2-0.5-0.3-0.7c0,0,0,0,0,0c0-0.1,0-0.1-0.1-0.2l0,0c0-0.2-0.1-0.3-0.1-0.4c0,0,0,0,0,0c0-0.1,0-0.1,0-0.2
				c0,0,0,0,0,0c0-1,0.7-1.9,2.3-2.5c7.1-3,15.8,1.5,18.9,3.4c-0.7-1.4-1.3-2.8-2-4.2c-0.4-1-0.9-1.9-1.3-2.9L234,412
				c-1.6-3.6-3.1-7.1-4.7-10.7c0,0-0.1,0.1-0.1,0.1c-0.1,0.1-0.2,0.2-0.3,0.3c-0.1,0.1-0.1,0.1-0.2,0.2c-0.1,0.1-0.2,0.2-0.3,0.3
				c-0.1,0.1-0.1,0.1-0.2,0.2c-0.1,0.1-0.2,0.2-0.3,0.3c-0.1,0.1-0.2,0.1-0.2,0.2c-0.1,0.1-0.2,0.2-0.3,0.2
				c-0.1,0.1-0.2,0.1-0.2,0.2c-0.1,0.1-0.2,0.1-0.3,0.2c-0.1,0.1-0.2,0.1-0.2,0.2c-0.1,0.1-0.2,0.1-0.3,0.2c-0.1,0-0.1,0.1-0.2,0.1
				c-0.1,0.1-0.2,0.1-0.3,0.2c-0.1,0-0.1,0.1-0.2,0.1c-0.1,0.1-0.3,0.1-0.4,0.2c-0.1,0-0.1,0.1-0.2,0.1c-0.2,0.1-0.4,0.2-0.6,0.3
				c0,0,0,0,0,0c-0.2,0.1-0.4,0.2-0.5,0.2c-0.1,0-0.1,0-0.2,0.1c-0.1,0.1-0.3,0.1-0.4,0.1c-0.1,0-0.1,0.1-0.2,0.1
				c-0.1,0-0.2,0.1-0.4,0.1c-0.1,0-0.2,0-0.2,0.1c-0.1,0-0.2,0.1-0.3,0.1c-0.1,0-0.2,0-0.2,0.1c-0.1,0-0.2,0.1-0.3,0.1
				c-0.1,0-0.2,0-0.2,0.1c-0.1,0-0.2,0.1-0.3,0.1c-0.1,0-0.2,0-0.2,0c-0.1,0-0.2,0-0.4,0.1c-0.1,0-0.1,0-0.2,0c-0.1,0-0.2,0-0.4,0.1
				c-0.1,0-0.1,0-0.2,0c-0.1,0-0.3,0-0.4,0.1c0,0-0.1,0-0.1,0c-0.2,0-0.4,0-0.6,0c0,0,0,0-0.1,0c-0.2,0-0.3,0-0.5,0
				c-0.1,0-0.1,0-0.2,0c-0.1,0-0.2,0-0.4,0c-0.1,0-0.1,0-0.2,0c-0.1,0-0.2,0-0.3,0c-0.1,0-0.1,0-0.2,0c-0.1,0-0.2,0-0.3,0
				c-0.1,0-0.2,0-0.2,0c-0.1,0-0.2,0-0.3,0c-0.1,0-0.2,0-0.2,0c-0.1,0-0.2,0-0.3,0c-0.1,0-0.1,0-0.2,0c-0.1,0-0.2,0-0.3,0
				c-0.1,0-0.1,0-0.2,0c-0.1,0-0.2,0-0.3-0.1c-0.1,0-0.1,0-0.2,0c-0.1,0-0.2,0-0.3-0.1c-0.1,0-0.1,0-0.2,0c-0.2,0-0.3-0.1-0.5-0.1
				c-0.1,0-0.1,0-0.2,0c-0.1,0-0.2-0.1-0.3-0.1c-0.1,0-0.1,0-0.2-0.1c-0.1,0-0.2-0.1-0.3-0.1c-0.1,0-0.1,0-0.2-0.1
				c-0.1,0-0.2-0.1-0.2-0.1c-0.1,0-0.1-0.1-0.2-0.1c-0.1,0-0.2-0.1-0.2-0.1c-0.1,0-0.1-0.1-0.2-0.1c-0.1,0-0.1-0.1-0.2-0.1
				c-0.1,0-0.1-0.1-0.2-0.1c-0.1,0-0.1-0.1-0.2-0.1c-0.1,0-0.1-0.1-0.2-0.1c-0.1,0-0.1-0.1-0.2-0.1c-0.1,0-0.1-0.1-0.2-0.1
				c-0.1,0-0.1-0.1-0.2-0.1c-0.1,0-0.1-0.1-0.2-0.1c0,0-0.1-0.1-0.1-0.1c-0.3-0.2-0.5-0.3-0.7-0.5c0,0-0.1-0.1-0.1-0.1
				c-0.1,0-0.1-0.1-0.2-0.1c0,0-0.1-0.1-0.1-0.1c-0.1,0-0.1-0.1-0.2-0.1c0,0-0.1-0.1-0.1-0.1c-0.1,0-0.1-0.1-0.2-0.1
				c0,0-0.1-0.1-0.1-0.1c-0.1,0-0.1-0.1-0.2-0.1c0,0-0.1-0.1-0.1-0.1c0-0.1-0.1-0.1-0.1-0.2c0,0-0.1-0.1-0.1-0.1
				c0-0.1-0.1-0.1-0.1-0.2c0,0,0-0.1-0.1-0.1c0-0.1-0.1-0.1-0.1-0.2c0,0,0,0,0-0.1c0-0.1-0.1-0.1-0.1-0.2c0,0,0,0,0,0
				c-0.1-0.2-0.2-0.5-0.3-0.7c0,0,0,0,0,0c0-0.1,0-0.1-0.1-0.2c0,0,0-0.1,0-0.1c0-0.1,0-0.1,0-0.2c0,0,0-0.1,0-0.1
				c0-0.1,0-0.1,0-0.2c0,0,0-0.1,0-0.1c0-0.1,0-0.1,0-0.2c0,0,0-0.1,0-0.1c0-0.1,0-0.1,0-0.2c0,0,0-0.1,0-0.1c0-0.1,0-0.1,0-0.2
				c0,0,0-0.1,0-0.1c0-0.1,0-0.1,0.1-0.2c0,0,0,0,0-0.1c0.2-0.6,0.7-1.1,1.5-1.7c6.2-4.1,17.7,0.8,21.3,2.5
				c-1.1-2.4-2.3-4.8-3.6-7.2l0,0l-0.1-0.1c0-0.1-0.1-0.1-0.1-0.2c0,0,0,0,0,0l-0.7-1.3c-1.7-2.9-3.5-5.8-5.6-8.5
				c-0.3,0.2-0.8,0.5-1.3,0.8c-0.1,0-0.1,0.1-0.2,0.1c-0.2,0.1-0.5,0.3-0.8,0.4c-0.1,0-0.1,0.1-0.2,0.1c-0.2,0.1-0.3,0.2-0.5,0.3
				c-0.1,0.1-0.2,0.1-0.4,0.2c-0.1,0-0.2,0.1-0.3,0.1c-0.3,0.2-0.6,0.3-1,0.5c-0.2,0.1-0.3,0.2-0.5,0.2c-2.2,1-4.8,1.9-7.6,2.2
				c0,0,0,0,0,0c-0.1,0-0.3,0-0.4,0c0,0-0.1,0-0.1,0c-0.1,0-0.2,0-0.3,0c0,0-0.1,0-0.1,0c-0.1,0-0.3,0-0.4,0c0,0,0,0-0.1,0
				c-0.1,0-0.2,0-0.3,0c0,0-0.1,0-0.1,0c-0.1,0-0.2,0-0.3,0c0,0-0.1,0-0.1,0c-0.1,0-0.2,0-0.4,0c0,0-0.1,0-0.1,0c-0.1,0-0.2,0-0.3,0
				c0,0-0.1,0-0.1,0c-0.1,0-0.2,0-0.3,0c0,0,0,0,0,0c-0.1,0-0.2,0-0.3,0c0,0-0.1,0-0.1,0c-0.1,0-0.2,0-0.3,0c0,0-0.1,0-0.1,0
				c-0.1,0-0.2,0-0.3-0.1c0,0,0,0,0,0c-0.1,0-0.2,0-0.3-0.1c0,0-0.1,0-0.1,0c-0.1,0-0.2,0-0.3-0.1c0,0,0,0-0.1,0
				c-0.1,0-0.2,0-0.3-0.1c0,0,0,0,0,0c-0.1,0-0.2,0-0.3-0.1c0,0,0,0-0.1,0c-0.1,0-0.2-0.1-0.3-0.1c0,0,0,0,0,0
				c-0.1,0-0.2-0.1-0.3-0.1c0,0,0,0,0,0c-0.1,0-0.2-0.1-0.2-0.1c0,0,0,0,0,0c-0.2-0.1-0.3-0.2-0.5-0.2c0,0,0,0,0,0
				c-0.1,0-0.1-0.1-0.2-0.1c0,0,0,0,0,0c-0.1-0.1-0.3-0.2-0.4-0.3c0,0,0,0,0,0c-0.1-0.1-0.2-0.2-0.3-0.3c0,0,0,0,0,0
				c0-0.1-0.1-0.1-0.1-0.2c0,0,0,0,0,0c-0.1-0.1-0.1-0.2-0.2-0.3c0,0,0,0,0,0c0-0.1,0-0.1-0.1-0.2c0,0,0,0,0,0
				c0-0.1-0.1-0.2-0.1-0.4c0,0,0,0,0,0c-0.1-1,0.7-2.3,2.8-3.6c4.9-3.1,14.3-0.7,17.8,0.4c-1.9-2.4-3.9-4.7-6-6.9l-1.3-1.3
				c-0.4-0.4-0.8-0.8-1.3-1.2c-1.7-1.6-3.5-3.1-5.4-4.6c-0.1,0.1-0.2,0.2-0.3,0.2c-0.1,0-0.1,0.1-0.2,0.1c-0.1,0.1-0.3,0.2-0.4,0.3
				c-0.4,0.4-1,0.8-1.7,1.3c-0.2,0.2-0.5,0.3-0.7,0.5c-0.1,0.1-0.2,0.2-0.4,0.3c-1.3,1-2.8,2.1-4.7,3.4c-0.1,0.1-0.2,0.1-0.3,0.2
				c0,0-0.1,0-0.1,0.1c-0.1,0-0.1,0.1-0.2,0.1c0,0-0.1,0-0.1,0.1c-0.1,0-0.1,0.1-0.2,0.1c0,0-0.1,0-0.1,0.1c-0.1,0-0.1,0.1-0.2,0.1
				c0,0-0.1,0-0.1,0.1c-0.1,0-0.1,0.1-0.2,0.1c0,0-0.1,0-0.1,0.1c-0.1,0-0.1,0.1-0.2,0.1c0,0-0.1,0-0.1,0.1c-0.1,0-0.1,0.1-0.2,0.1
				c0,0-0.1,0-0.1,0c-0.1,0-0.2,0.1-0.2,0.1c0,0,0,0-0.1,0c-0.1,0-0.2,0.1-0.3,0.1c0,0-0.1,0-0.1,0c-0.1,0-0.1,0.1-0.2,0.1
				c0,0-0.1,0-0.1,0c-0.1,0-0.1,0-0.2,0.1c0,0-0.1,0-0.1,0c-0.1,0-0.1,0-0.2,0.1c0,0-0.1,0-0.1,0c-0.1,0-0.1,0-0.2,0.1
				c0,0-0.1,0-0.1,0c-0.1,0-0.1,0-0.2,0c0,0-0.1,0-0.1,0c-0.1,0-0.1,0-0.2,0c0,0-0.1,0-0.1,0c-0.1,0-0.1,0-0.2,0c0,0-0.1,0-0.1,0
				c-0.1,0-0.2,0-0.3,0.1c0,0-0.1,0-0.1,0c-0.1,0-0.1,0-0.2,0c0,0-0.1,0-0.1,0c-0.1,0-0.1,0-0.2,0c0,0-0.1,0-0.1,0
				c-0.1,0-0.1,0-0.2,0c0,0-0.1,0-0.1,0c-0.1,0-0.1,0-0.2,0c0,0-0.1,0-0.1,0c0,0-0.1,0-0.1,0c0,0-0.1,0-0.1,0c0,0-0.1,0-0.1,0
				c0,0-0.1,0-0.1,0c0,0-0.1,0-0.1,0c0,0-0.1,0-0.1,0c0,0-0.1,0-0.1,0c-0.1,0-0.2,0-0.3,0c0,0-0.1,0-0.1,0c-0.1,0-0.1,0-0.2,0
				c0,0-0.1,0-0.1,0c-0.1,0-0.1,0-0.2,0c0,0-0.1,0-0.1,0c-0.1,0-0.1,0-0.2,0c0,0-0.1,0-0.1,0c-0.1,0-0.1,0-0.2,0c0,0-0.1,0-0.1,0
				c-0.1,0-0.1,0-0.2,0c0,0-0.1,0-0.1,0c-0.1,0-0.1,0-0.2,0c0,0-0.1,0-0.1,0c-0.1,0-0.1,0-0.2,0c0,0,0,0,0,0c-0.2,0-0.4-0.1-0.6-0.1
				c0,0,0,0,0,0c-0.1,0-0.1,0-0.2,0c0,0,0,0-0.1,0c-0.1,0-0.1,0-0.2-0.1c0,0,0,0-0.1,0c-0.1,0-0.1,0-0.2-0.1c0,0,0,0-0.1,0
				c-0.1,0-0.1,0-0.1-0.1c0,0,0,0-0.1,0c-0.1,0-0.1,0-0.1-0.1c0,0,0,0,0,0c-0.1,0-0.1,0-0.2-0.1c0,0,0,0,0,0
				c-0.2-0.1-0.5-0.3-0.7-0.4c0,0,0,0,0,0c0,0-0.1-0.1-0.1-0.1c0,0,0,0,0,0c0,0-0.1-0.1-0.1-0.1c0,0,0,0,0,0c0,0-0.1-0.1-0.1-0.1
				c0,0,0,0,0,0c0,0-0.1-0.1-0.1-0.1c0,0,0,0,0,0c0,0-0.1-0.1-0.1-0.1c0,0,0,0,0,0c-0.2-0.2-0.3-0.4-0.4-0.6c0,0,0,0,0,0
				c0-0.1,0-0.1-0.1-0.2c0,0,0,0,0,0c0,0,0-0.1-0.1-0.1c0,0,0,0,0,0c0,0,0-0.1,0-0.1c0,0,0,0,0,0c0-0.1,0-0.1,0-0.2c0,0,0,0,0,0
				c0-0.1,0-0.1,0-0.2c0,0,0,0,0,0c-0.1-0.6,0-1.2,0.2-2c1.9-6.8,15.9-4.9,20.7-4c-3.1-2.3-6.3-4.3-9.6-6.1c0,0,0,0,0,0l-1.3-0.7
				c-2-1-4-2-6.1-2.8c0,0,0,0-0.1,0c-0.1,0.1-0.3,0.1-0.4,0.2c0,0,0,0,0,0c-0.1,0.1-0.3,0.1-0.4,0.1c0,0,0,0,0,0
				c-0.1,0-0.3,0.1-0.4,0.1c0,0-0.1,0-0.1,0c-0.1,0-0.3,0.1-0.4,0.1c0,0,0,0-0.1,0c-0.1,0-0.3,0.1-0.4,0.1c0,0,0,0,0,0
				c-0.1,0-0.3,0.1-0.4,0.1c0,0,0,0-0.1,0c-0.1,0-0.3,0-0.4,0.1c0,0-0.1,0-0.1,0c-0.1,0-0.3,0-0.4,0.1c0,0,0,0-0.1,0
				c-0.1,0-0.3,0-0.4,0c0,0,0,0,0,0c-0.1,0-0.3,0-0.4,0c0,0-0.1,0-0.1,0c-0.1,0-0.3,0-0.4,0c0,0-0.1,0-0.1,0c-0.2,0-0.3,0-0.5,0
				c0,0,0,0,0,0c-0.1,0-0.3,0-0.4,0c0,0,0,0-0.1,0c-0.1,0-0.3,0-0.4,0c0,0-0.1,0-0.1,0c-0.1,0-0.3,0-0.4,0c0,0,0,0-0.1,0
				c-0.2,0-0.3,0-0.5-0.1c0,0,0,0,0,0c-0.2,0-0.3,0-0.5-0.1c0,0-0.1,0-0.1,0c-0.1,0-0.3,0-0.4-0.1c0,0-0.1,0-0.1,0
				c-0.2,0-0.3-0.1-0.5-0.1c0,0,0,0,0,0c-0.1,0-0.3-0.1-0.4-0.1c0,0,0,0-0.1,0c-0.1,0-0.3-0.1-0.4-0.1c0,0-0.1,0-0.1,0
				c-0.1,0-0.3-0.1-0.4-0.1c0,0,0,0-0.1,0c-0.2,0-0.3-0.1-0.4-0.1c0,0,0,0,0,0c-0.2,0-0.3-0.1-0.4-0.1c0,0,0,0-0.1,0
				c-0.1,0-0.3-0.1-0.4-0.1c0,0-0.1,0-0.1,0c-0.1-0.1-0.3-0.1-0.4-0.2c0,0,0,0,0,0c-0.1-0.1-0.3-0.1-0.4-0.2c0,0,0,0,0,0
				c-0.1-0.1-0.3-0.1-0.4-0.2c0,0-0.1,0-0.1,0c-0.1-0.1-0.3-0.1-0.4-0.2c0,0,0,0-0.1,0c-0.1-0.1-0.3-0.1-0.4-0.2c0,0,0,0,0,0
				c-0.1-0.1-0.3-0.1-0.4-0.2c0,0,0,0-0.1,0c-0.1-0.1-0.3-0.1-0.4-0.2c0,0,0,0-0.1,0c-0.1-0.1-0.3-0.1-0.4-0.2c0,0,0,0,0,0
				c-0.1-0.1-0.2-0.1-0.4-0.2c0,0,0,0,0,0c-0.1-0.1-0.2-0.1-0.4-0.2c0,0,0,0-0.1,0c-0.1-0.1-0.2-0.1-0.3-0.2c0,0,0,0-0.1,0
				c-0.1-0.1-0.2-0.1-0.3-0.2c0,0,0,0,0,0c-0.1-0.1-0.2-0.2-0.3-0.2c0,0,0,0,0,0c-0.1-0.1-0.2-0.1-0.3-0.2c0,0,0,0-0.1,0
				c-0.1-0.1-0.2-0.2-0.3-0.2c0,0,0,0,0,0c-0.1-0.1-0.2-0.2-0.3-0.2c0,0,0,0,0,0c-0.1-0.1-0.2-0.2-0.3-0.2c0,0,0,0,0,0
				c-0.1-0.1-0.2-0.2-0.3-0.2c0,0,0,0,0,0c-0.1-0.1-0.2-0.2-0.2-0.2c0,0,0,0,0,0c-0.1-0.1-0.2-0.2-0.2-0.2c0,0,0,0,0,0
				c-0.1-0.1-0.1-0.2-0.2-0.2c0,0,0,0,0,0c-0.1-0.1-0.1-0.2-0.2-0.2c0,0,0,0,0,0c-0.1-0.2-0.2-0.3-0.3-0.5c0,0,0,0,0,0
				c0-0.1-0.1-0.2-0.1-0.2c0,0,0,0,0,0c0-0.1-0.1-0.2-0.1-0.2c0,0,0,0,0,0c0-0.1-0.1-0.2-0.1-0.2c0,0,0,0,0,0c0-0.1-0.1-0.2-0.1-0.2
				c0,0,0,0,0,0c0-0.1,0-0.1-0.1-0.2c0,0,0,0,0,0c0-0.2-0.1-0.3-0.1-0.4c0,0,0,0,0,0c0-0.1,0-0.1,0-0.2c0,0,0,0,0,0
				c0-0.1,0-0.1,0-0.2c0,0,0,0,0,0c0-0.1,0-0.1,0.1-0.2c0,0,0,0,0,0c0-0.1,0-0.1,0.1-0.2c0,0,0,0,0,0c0-0.1,0.1-0.1,0.1-0.2
				c0,0,0,0,0,0c0-0.1,0.1-0.1,0.1-0.2l0,0l0,0c0.5-0.7,1.6-1.2,3.2-1.5c9.8-1.8,16.1,6,18.1,8.9c2.1,0.9,4.2,1.8,6.3,2.9l1.1,0.6
				c3.5,1.8,6.8,4,10,6.3c-2.5-4.1-8-14.6-3.7-19.6c1.1-1.3,2.3-1.9,3.3-1.8c0,0,0,0,0,0c0.3,0,0.6,0.1,0.9,0.2c0,0,0,0,0,0
				c0.3,0.1,0.6,0.3,0.8,0.5c0,0,0,0,0,0c0.3,0.2,0.5,0.4,0.8,0.7c0,0,0,0,0,0c0,0.1,0.1,0.1,0.1,0.2l0,0c0.2,0.2,0.4,0.5,0.6,0.8
				c0,0,0,0,0,0c0,0.1,0.1,0.1,0.1,0.2c0,0,0,0,0,0c0.1,0.2,0.2,0.4,0.4,0.6c0,0,0,0,0,0c0,0.1,0.1,0.1,0.1,0.2c0,0,0,0,0,0.1
				c0,0.1,0.1,0.1,0.1,0.2c0,0,0,0,0,0.1c0.1,0.2,0.2,0.4,0.3,0.7c0,0,0,0.1,0,0.1c0,0.1,0,0.1,0.1,0.2c0,0,0,0.1,0,0.1
				c0,0.1,0,0.1,0.1,0.2c0,0,0,0.1,0,0.1c0,0.1,0,0.1,0.1,0.2c0,0,0,0.1,0,0.1c0,0.1,0.1,0.2,0.1,0.4c0,0,0,0.1,0,0.1
				c0,0.1,0,0.1,0,0.2c0,0.1,0,0.1,0,0.2c0,0.1,0,0.1,0,0.2c0,0.1,0,0.1,0,0.2c0,0.1,0,0.1,0,0.2c0,0.1,0,0.2,0.1,0.2
				c0,0.1,0,0.1,0,0.2c0,0.1,0,0.1,0,0.2c0,0.1,0,0.1,0,0.2c0,0.1,0,0.1,0,0.2c0,0.1,0,0.1,0,0.2c0,0.1,0,0.1,0,0.2c0,0,0,0.1,0,0.1
				c0,0.1,0,0.2,0,0.3c0,0,0,0.1,0,0.1c0,0.1,0,0.2,0,0.3c0,0,0,0.1,0,0.1c0,0.1,0,0.1,0,0.2c0,0,0,0.1,0,0.1c0,0.1,0,0.2,0,0.2
				c0,0,0,0.1,0,0.1c0,0.1,0,0.2,0,0.3c0,0,0,0,0,0.1c0,0.1,0,0.2,0,0.3c0,0,0,0.1,0,0.1c0,0.1,0,0.2,0,0.2c0,0,0,0.1,0,0.1
				c0,0.1,0,0.2,0,0.2c0,0,0,0.1,0,0.1c0,0.1,0,0.2,0,0.4c0,0,0,0,0,0c0,0.1,0,0.2,0,0.3c0,0,0,0.1,0,0.1c0,0.1,0,0.2,0,0.2
				c0,0,0,0.1,0,0.1c0,0.1,0,0.2,0,0.2c0,0,0,0.1,0,0.1c0,0.1,0,0.2,0,0.3c0,0,0,0,0,0c0,0.1,0,0.2,0,0.3c0,0,0,0.1,0,0.1
				c0,0.1,0,0.2,0,0.2c0,0,0,0.1,0,0.1c0,0.1,0,0.2,0,0.2c0,0,0,0.1,0,0.1c0,0.1,0,0.2-0.1,0.3c-0.4,1.7-0.8,3-1.2,4.1
				c-0.1,0.3-0.2,0.6-0.3,0.9c-0.1,0.3-0.2,0.5-0.3,0.7c-0.2,0.3-0.3,0.7-0.4,0.9c0,0.1-0.1,0.2-0.1,0.3c-0.2,0.3-0.3,0.6-0.5,0.8
				c0,0.1-0.1,0.1-0.1,0.2c-0.1,0.1-0.1,0.1-0.2,0.2c1.9,1.5,3.7,3,5.5,4.6l1.4,1.3c2.5,2.4,4.8,4.9,6.9,7.6
				c-1.2-4.8-3.9-18.6,2.9-20.1c0.3-0.1,0.6-0.1,0.8-0.1c0,0,0,0,0,0c0.1,0,0.1,0,0.2,0c0,0,0,0,0,0c0.1,0,0.1,0,0.2,0c0,0,0,0,0,0
				c0.1,0,0.1,0,0.2,0c0,0,0,0,0,0c0.1,0,0.1,0,0.2,0c0,0,0,0,0,0c0.1,0,0.1,0,0.2,0c0,0,0,0,0,0c0.1,0,0.1,0,0.2,0c0,0,0,0,0,0
				c0.1,0,0.1,0,0.1,0c0,0,0,0,0,0c0,0,0.1,0,0.1,0c0,0,0,0,0,0c0,0,0.1,0,0.1,0c0,0,0,0,0,0c0,0,0.1,0,0.1,0c0,0,0,0,0,0
				c0,0,0.1,0,0.1,0c0,0,0,0,0,0c0,0,0.1,0,0.1,0c0,0,0,0,0,0c0,0,0.1,0,0.1,0c0,0,0,0,0,0c0,0,0.1,0,0.1,0.1c0,0,0,0,0,0
				c0,0,0.1,0,0.1,0.1c0,0,0,0,0,0c0,0,0.1,0,0.1,0.1c0,0,0,0,0,0c0,0,0.1,0,0.1,0.1c0,0,0,0,0,0c0,0,0.1,0,0.1,0.1c0,0,0,0,0,0
				c0,0,0.1,0.1,0.1,0.1c0,0,0,0,0,0c0,0,0.1,0.1,0.1,0.1c0,0,0,0,0,0c0,0,0.1,0.1,0.1,0.1c0,0,0,0,0,0c0,0,0.1,0.1,0.1,0.1
				c0,0,0,0,0,0c0,0,0.1,0.1,0.1,0.1l0,0c0.7,0.8,1,2,1,3.5l0,0c0,0.1,0,0.1,0,0.2c0,0,0,0,0,0c0,0.1,0,0.1,0,0.2c0,0,0,0,0,0
				c0,0.1,0,0.1,0,0.2c0,0,0,0,0,0c0,0.1,0,0.1,0,0.2c0,0,0,0,0,0c0,0.1,0,0.1,0,0.2c0,0,0,0,0,0c0,0.1,0,0.1,0,0.2c0,0,0,0,0,0
				c0,0.1,0,0.1,0,0.2c0,0,0,0,0,0c0,0.1,0,0.1,0,0.2c0,0,0,0,0,0c0,0.1,0,0.1,0,0.2c0,0,0,0,0,0c0,0.1,0,0.1,0,0.2c0,0,0,0,0,0
				c0,0.1,0,0.1,0,0.2c0,0,0,0,0,0c0,0.1,0,0.1,0,0.2c0,0,0,0,0,0c0,0.1,0,0.1,0,0.2c0,0,0,0,0,0c0,0.1,0,0.1,0,0.2c0,0,0,0,0,0.1
				c0,0.1,0,0.1,0,0.2c0,0,0,0,0,0.1c0,0.1,0,0.1,0,0.2c0,0,0,0,0,0.1c0,0.1,0,0.1,0,0.2c0,0,0,0,0,0.1c0,0.1,0,0.1,0,0.2
				c0,0,0,0,0,0.1c0,0.1,0,0.1,0,0.2c0,0,0,0,0,0.1c0,0.1,0,0.1,0,0.2c0,0,0,0,0,0.1c0,0.1,0,0.1,0,0.2c0,0,0,0,0,0.1
				c0,0.1,0,0.1-0.1,0.2c0,0,0,0,0,0.1c0,0.1,0,0.1-0.1,0.2c0,0,0,0,0,0.1c0,0.1,0,0.1-0.1,0.2c0,0,0,0,0,0.1c0,0.1,0,0.1-0.1,0.2
				c0,0,0,0,0,0.1c0,0.1,0,0.1-0.1,0.2c0,0,0,0,0,0.1c0,0.1,0,0.1-0.1,0.2c0,0,0,0,0,0c0,0.1,0,0.1-0.1,0.2c0,0,0,0,0,0
				c0,0.1,0,0.1-0.1,0.2c0,0,0,0,0,0c0,0.1,0,0.1-0.1,0.2c0,0,0,0,0,0c0,0.1-0.1,0.1-0.1,0.2c0,0,0,0,0,0c-0.2,0.6-0.4,1.1-0.7,1.7
				c0,0,0,0,0,0c0,0.1-0.1,0.1-0.1,0.2c0,0,0,0,0,0c0,0.1-0.1,0.1-0.1,0.2c0,0,0,0,0,0.1c0,0.1,0,0.1-0.1,0.2c0,0,0,0.1,0,0.1
				c0,0.1,0,0.1-0.1,0.2c0,0,0,0.1,0,0.1c0,0,0,0.1-0.1,0.1c0,0,0,0.1,0,0.1c0,0,0,0.1-0.1,0.1c0,0,0,0.1,0,0.1c0,0,0,0.1-0.1,0.1
				c0,0,0,0.1,0,0.1c0,0,0,0.1-0.1,0.1c0,0,0,0.1,0,0.1c0,0,0,0.1-0.1,0.1c0,0,0,0.1-0.1,0.1c0,0,0,0.1-0.1,0.1c0,0,0,0.1-0.1,0.1
				c0,0,0,0.1-0.1,0.1c0,0,0,0.1-0.1,0.1c0,0,0,0.1-0.1,0.1c0,0,0,0.1-0.1,0.1c0,0,0,0.1-0.1,0.1c0,0,0,0.1-0.1,0.1
				c0,0,0,0.1-0.1,0.1c0,0,0,0.1-0.1,0.1c0,0,0,0.1-0.1,0.1c0,0,0,0.1-0.1,0.1c0,0,0,0.1-0.1,0.1c0,0,0,0.1-0.1,0.1
				c0,0,0,0.1-0.1,0.1c0,0,0,0.1-0.1,0.1c0,0,0,0.1-0.1,0.1c0,0,0,0.1-0.1,0.1c0,0,0,0.1-0.1,0.1c0,0,0,0.1-0.1,0.1
				c0,0,0,0.1-0.1,0.1c0,0,0,0.1-0.1,0.1c0,0,0,0.1-0.1,0.1c0,0,0,0.1-0.1,0.1c0,0,0,0.1-0.1,0.1c0,0,0,0.1-0.1,0.1
				c0,0,0,0.1-0.1,0.1c0,0,0,0.1-0.1,0.1c0,0,0,0.1-0.1,0.1c0,0,0,0.1-0.1,0.1c0,0,0,0.1-0.1,0.1c0,0,0,0.1-0.1,0.1
				c0,0,0,0.1-0.1,0.1c0,0,0,0.1-0.1,0.1c0,0,0,0.1-0.1,0.1c0,0,0,0.1-0.1,0.1c0,0,0,0.1-0.1,0.1c0,0,0,0.1-0.1,0.1
				c0,0,0,0.1-0.1,0.1c0,0,0,0.1-0.1,0.1c0,0,0,0.1-0.1,0.1c0,0,0,0.1-0.1,0.1c0,0,0,0.1-0.1,0.1c0,0,0,0.1-0.1,0.1
				c0,0,0,0.1-0.1,0.1c0,0,0,0.1-0.1,0.1c0,0,0,0.1-0.1,0.1c0,0,0,0.1-0.1,0.1c0,0,0,0.1-0.1,0.1c0,0,0,0.1-0.1,0.1
				c0,0,0,0.1-0.1,0.1c0,0,0,0.1-0.1,0.1c0,0,0,0.1-0.1,0.1c0,0-0.1,0.1-0.1,0.1c0,0,0,0.1-0.1,0.1c0,0-0.1,0.1-0.1,0.1
				c0,0,0,0.1-0.1,0.1c0,0-0.1,0.1-0.1,0.1c0,0,0,0-0.1,0.1c0,0-0.1,0.1-0.1,0.1c0,0,0,0,0,0c1.5,2,2.9,4,4.3,6.2
				c0.4,0.6,0.7,1.2,1.1,1.8l0.6,1.1c1.4,2.4,2.6,4.9,3.8,7.4c-0.4-4.5-0.2-13.8,7.8-18c1.6-0.8,2.7-1.1,3.6-0.9c0,0,0,0,0,0
				c0.1,0,0.1,0,0.2,0.1c0,0,0,0,0,0c0.1,0,0.1,0,0.2,0.1c0,0,0,0,0,0c0.1,0.1,0.3,0.1,0.4,0.2c0,0,0,0,0,0c0.1,0,0.1,0.1,0.2,0.1
				c0,0,0,0,0,0c0,0,0.1,0.1,0.1,0.2c0,0,0,0,0,0c0.1,0.2,0.2,0.4,0.3,0.6c0,0,0,0,0,0c0,0.1,0.1,0.1,0.1,0.2c0,0,0,0,0,0
				c0.1,0.2,0.1,0.5,0.1,0.8c0,0,0,0,0,0c0,0.1,0,0.2,0,0.3c0,0,0,0,0,0c0,0.3,0,0.6,0,1c0,0,0,0,0,0c0,0.1,0,0.2,0,0.3c0,0,0,0,0,0
				c0,0.1,0,0.2-0.1,0.3c0,0,0,0,0,0c0,0.2-0.1,0.5-0.2,0.7c0,0,0,0,0,0c0,0.1-0.1,0.2-0.1,0.4c0,0,0,0,0,0c0,0.1-0.1,0.2-0.1,0.4
				c0,0,0,0,0,0c-0.1,0.3-0.2,0.5-0.2,0.8c0,0,0,0,0,0c0,0.1-0.1,0.3-0.1,0.4c0,0,0,0,0,0c0,0.1-0.1,0.3-0.1,0.4c0,0,0,0,0,0
				c-0.1,0.3-0.2,0.6-0.3,0.8c0,0,0,0,0,0c-0.1,0.1-0.1,0.3-0.2,0.4c0,0,0,0,0,0.1c-0.1,0.1-0.1,0.3-0.2,0.4c0,0,0,0,0,0.1
				c-0.1,0.1-0.1,0.3-0.2,0.4c0,0,0,0,0,0c-0.1,0.1-0.1,0.3-0.2,0.4c0,0,0,0,0,0c-0.1,0.1-0.1,0.3-0.2,0.4c0,0,0,0,0,0.1
				c-0.1,0.1-0.1,0.3-0.2,0.4c0,0,0,0,0,0.1c-0.1,0.1-0.2,0.3-0.2,0.4c0,0,0,0,0,0c-0.1,0.1-0.2,0.3-0.2,0.4c0,0,0,0,0,0
				c-0.1,0.1-0.2,0.3-0.3,0.4c0,0,0,0,0,0.1c-0.1,0.1-0.2,0.3-0.3,0.4c0,0,0,0,0,0.1c-0.1,0.1-0.2,0.3-0.3,0.4c0,0,0,0,0,0.1
				c-0.1,0.1-0.2,0.3-0.3,0.4c0,0,0,0,0,0c-0.1,0.1-0.2,0.3-0.3,0.4c0,0,0,0,0,0.1c-0.1,0.1-0.2,0.3-0.3,0.4c0,0,0,0-0.1,0.1
				c-0.1,0.1-0.2,0.3-0.3,0.4c0,0,0,0,0,0.1c-0.1,0.1-0.2,0.3-0.3,0.4c0,0,0,0,0,0c-0.1,0.1-0.2,0.3-0.3,0.4c0,0,0,0,0,0.1
				c-0.1,0.1-0.2,0.2-0.3,0.4c0,0,0,0-0.1,0.1c-0.1,0.1-0.2,0.2-0.3,0.4c0,0,0,0-0.1,0.1c-0.1,0.1-0.2,0.2-0.3,0.4c0,0,0,0,0,0
				c-0.1,0.1-0.2,0.2-0.3,0.3c0,0,0,0,0,0c-0.1,0.1-0.2,0.2-0.3,0.3c0,0,0,0-0.1,0.1c-0.1,0.1-0.2,0.2-0.3,0.3c0,0,0,0-0.1,0.1
				c-0.1,0.1-0.2,0.2-0.4,0.3c0,0,0,0,0,0c-0.1,0.1-0.2,0.2-0.4,0.3c0,0,0,0,0,0c-0.1,0.1-0.2,0.2-0.4,0.3c0,0,0,0-0.1,0.1
				c-0.1,0.1-0.2,0.2-0.4,0.3c0,0,0,0-0.1,0.1c-0.1,0.1-0.2,0.2-0.4,0.3c0,0,0,0,0,0c-0.1,0.1-0.3,0.2-0.4,0.3c0,0,0,0,0,0
				c-0.1,0.1-0.3,0.2-0.4,0.3c0,0,0,0-0.1,0c-0.1,0.1-0.3,0.2-0.4,0.2c0,0,0,0-0.1,0c-0.1,0-0.1,0.1-0.2,0.1c1.7,3.8,3.3,7.6,5,11.4
				l0.8,1.8c0.9,2.1,1.9,4.2,2.9,6.2c1.4-4.4,5.9-17.9,10.7-19.2c1.4-0.4,2.6,0,3.4,0.9c0,0,0,0,0,0c0.1,0.2,0.3,0.3,0.4,0.5
				c0,0,0,0,0,0c0.1,0.2,0.2,0.4,0.3,0.6c0,0,0,0,0,0c0,0.1,0.1,0.2,0.1,0.3c0,0,0,0,0,0c0,0.1,0.1,0.2,0.1,0.3c0,0,0,0,0,0.1
				c0,0.1,0.1,0.2,0.1,0.4c0,0,0,0,0,0c0,0.1,0.1,0.2,0.1,0.4c0,0,0,0,0,0.1c0,0.1,0,0.3,0.1,0.4c0,0,0,0,0,0.1c0,0.1,0,0.2,0,0.4
				c0,0,0,0,0,0c0,0.1,0,0.3,0,0.4c0,0,0,0,0,0.1c0,0.1,0,0.3,0,0.4c0,0,0,0,0,0c0,0.1,0,0.3,0,0.4c0,0,0,0.1,0,0.1
				c0,0.1,0,0.3,0,0.4c0,0,0,0,0,0c0,0.1,0,0.3,0,0.4c0,0,0,0.1,0,0.1c0,0.3-0.1,0.6-0.1,0.9c0,0,0,0.1,0,0.1c0,0.1-0.1,0.3-0.1,0.4
				c0,0,0,0,0,0c0,0.1-0.1,0.3-0.1,0.4c0,0,0,0.1,0,0.1c0,0.1-0.1,0.3-0.1,0.4c0,0,0,0,0,0.1c0,0.1-0.1,0.3-0.1,0.4c0,0,0,0.1,0,0.1
				c-0.1,0.1-0.1,0.3-0.2,0.4c0,0,0,0,0,0.1c-0.1,0.1-0.1,0.2-0.2,0.4c0,0,0,0.1,0,0.1c-0.1,0.1-0.1,0.3-0.2,0.4c0,0,0,0.1,0,0.1
				c-0.1,0.1-0.1,0.2-0.2,0.4c0,0,0,0,0,0.1c-0.1,0.1-0.2,0.3-0.2,0.4c0,0,0,0.1-0.1,0.1c-0.1,0.1-0.2,0.2-0.2,0.3c0,0,0,0,0,0.1
				c-0.1,0.1-0.2,0.2-0.3,0.4c0,0,0,0.1-0.1,0.1c-0.1,0.1-0.2,0.2-0.3,0.3c0,0,0,0,0,0c-0.1,0.1-0.2,0.2-0.3,0.3
				c0,0-0.1,0.1-0.1,0.1c-0.1,0.1-0.2,0.2-0.3,0.3l0,0l0,0c-3.6,3.3-7.2,4.9-9.5,5.7c-0.6,0.2-1.2,0.4-1.6,0.5
				c1.7,3.4,3.6,6.6,5.7,9.7l0,0l0,0.1c0,0,0.1,0.1,0.1,0.1c0,0,0,0,0,0l0.7,1c0,0,0,0,0,0c0.1,0.1,0.1,0.1,0.2,0.2l0,0h0
				c0.5,0.7,1,1.3,1.5,2c6.2,7.8,14.2,14.2,23.1,18.6c0.9,0.4,0.1,1.7-0.7,1.3c-7.9-3.9-15.1-9.3-20.9-15.9
				c-1.4-1.5-2.6-3.1-3.8-4.7l-0.9-1.3c-2.3-3.3-4.4-6.8-6.2-10.4c-0.1,0.1-0.2,0.2-0.3,0.3c0,0,0,0-0.1,0.1
				c-0.1,0.1-0.3,0.2-0.4,0.3c0,0,0,0,0,0c-0.1,0.1-0.2,0.2-0.4,0.3c0,0,0,0-0.1,0c-0.1,0.1-0.3,0.2-0.4,0.3c0,0-0.1,0-0.1,0.1
				c-0.1,0.1-0.3,0.2-0.4,0.3c0,0,0,0-0.1,0c-0.1,0.1-0.3,0.2-0.4,0.3c0,0,0,0,0,0c-0.1,0.1-0.3,0.2-0.4,0.2c0,0-0.1,0-0.1,0
				c-0.1,0.1-0.3,0.2-0.4,0.2c0,0-0.1,0-0.1,0c-0.1,0.1-0.3,0.1-0.4,0.2c0,0,0,0,0,0c-0.1,0.1-0.3,0.1-0.4,0.2c0,0-0.1,0-0.1,0
				c-0.1,0.1-0.3,0.1-0.4,0.2c0,0-0.1,0-0.1,0c-0.1,0.1-0.3,0.1-0.4,0.2c0,0,0,0,0,0c-0.1,0-0.3,0.1-0.4,0.1c0,0,0,0-0.1,0
				c-0.1,0-0.3,0.1-0.4,0.1c0,0-0.1,0-0.1,0c-0.1,0-0.3,0.1-0.4,0.1c0,0,0,0-0.1,0c-0.1,0-0.3,0.1-0.4,0.1c0,0,0,0,0,0
				c-0.1,0-0.3,0.1-0.4,0.1c0,0-0.1,0-0.1,0c-0.1,0-0.3,0-0.4,0.1c0,0-0.1,0-0.1,0c-0.1,0-0.3,0-0.4,0.1c0,0,0,0,0,0
				c-0.1,0-0.3,0-0.4,0c0,0-0.1,0-0.1,0c-0.1,0-0.3,0-0.4,0c0,0-0.1,0-0.1,0c-0.1,0-0.3,0-0.4,0c0,0,0,0,0,0c-0.1,0-0.3,0-0.4,0
				c0,0,0,0-0.1,0C227.6,426,227.5,426,227.3,425.9C227.3,426,227.3,426,227.3,425.9z"/>
		</g>
	</g>
	<path class="st1" d="M175.6,313.3c-8.1,10.3-9.6,28.5-9.9,35c-3.8-7.6-7.9-14.9-12.3-21.8c19.5-38.6,19.4-83.8,19.4-83.8
		s-1.8,9.9-12.2,35.1c-9.2,22.2-8.7,40.7-8.1,47.3c-4.2-6.4-8.7-12.5-13.5-18.2c-1.7-2.1-3.5-4.1-5.3-6.1
		c-0.1-13.1,13.7-28.5,19.7-46.6c4.5-13.7-7.6-35-7.6-35s8.9,20.2-3.8,38.4c-10.2,14.5-9.2,35.3-8.4,43.1
		c-5.7-6.3-11.8-12-18.3-17.3c1.3-3.8,5.6-16.5,8.6-29.5c3.5-15.4,5.2-51.4,5.2-51.4s-6.6,12.6-12,31.8c-4.4,15.5-2.8,42-2.3,48.7
		c-5.4-4.3-11-8.3-16.8-12c0.9-3.9,3.9-17.3,6.3-31.3c2.9-16.7-1.8-60.7-1.8-60.7s-2.2,12.4-7,38.9c-4.2,22.8,0.5,46.5,1.8,52.7
		c-5.3-3.3-10.7-6.2-16.4-8.9c-2.8-4.1-12.2-14.7-38.8-23.3c-31.3-10.2-42.1-11-42.1-11s47.1,36.7,79.5,36.2c5.1,2.4,10,5,14.6,7.8
		c-6.6,1.1-30.4,5.4-53.4,16c-27,12.5-34.6,17.3-34.6,17.3s48.4-10.6,65.3-19.3c13.3-6.9,20.9-11.8,23.5-13.6
		c6.3,3.8,12.2,8,17.7,12.4c-6.5,1.1-31,6.1-45.8,19.5C49.7,319.3,31,321.6,31,321.6s18.3,2.2,44-14.4
		c21.3-13.8,34.3-20.7,38.1-22.6c7.2,5.8,13.6,12,19.4,18.4c-5.7,0.4-23.2,2.6-39.1,13.4c-19.2,13.1-45.9,21.6-45.9,21.6
		s35.6-2.6,60.6-16.2c18-9.7,23.7-15.3,25.5-17.7c6.6,7.4,12.3,15,17.3,22.7c-4.9-0.3-21.2-0.3-41.8,8.9c-24.8,11-44,19.6-44,19.6
		s65.8-9.9,86.4-27.6c4.9,7.6,9.1,15.3,12.7,22.6c-4.2-0.7-17.4-2-32.5,6.2c-18.5,10-27.7,10.9-40,10.5c0,0,25.2,5,39.1-1.3
		c16.2-7.3,25.5-14.9,33.6-15.2c2.4,4.9,4.5,9.7,6.3,14.3c14.9,36.7,17.3,68.2,17.4,68.5c0,0.6,0.6,1.1,1.2,1.1c0.1,0,0.2,0,0.2,0
		c0.5-0.1,0.9-0.6,0.8-1.2c0-0.3-2.5-32.1-17.5-69.1c-2-5-4.2-9.9-6.5-14.7c2.6-4.7,12.1-21.9,19.1-32.8c8.2-12.7,2.2-48.8,2.2-48.8
		S185.6,300.5,175.6,313.3z"/>
	<g>
		<path class="st2" d="M108.1,336.2c0,0,29,149.1,93.4,226.2c21.9,26.2,43.1,41.4,61.7,50.2c38.7,18.2,76.6-10.6,69.5-52.7
			c-3.4-20.2-12.4-44.8-31.7-72.9C243.9,404.2,108.1,336.2,108.1,336.2z"/>
		<path class="st3" d="M270.8,546.1c-4.2-5.5-8.4-11-12.6-16.6c8.5-21.5,17.1-42.9,25.6-64.4c-0.5-0.6-1.1-1.2-1.6-1.8
			c-8.5,21.4-17,42.8-25.5,64.2c-4-5.2-7.9-10.4-11.9-15.7c7.8-20.7,16.6-40.9,26.3-60.6c-0.5-0.5-1.1-1.1-1.6-1.6
			c-9.6,19.5-18.4,39.6-26.2,60.2c-3.8-5-7.6-10-11.5-15c8.3-19.2,16.6-38.3,24.8-57.5c-0.6-0.5-1.1-1-1.7-1.6
			c-8.2,19-16.4,38-24.7,57c-4-5.3-8-10.5-12-15.8c6.1-18.8,13.1-37.2,20.7-55.1c-0.6-0.5-1.2-1-1.8-1.5
			c-7.6,17.8-14.5,35.9-20.6,54.5c-4.1-5.4-8.2-10.8-12.4-16.2c5.7-16.8,12.2-33.1,19.4-49.1c-0.6-0.5-1.2-0.9-1.8-1.4
			c-7.1,15.7-13.5,31.9-19.2,48.4c-3.4-4.4-6.7-8.8-10.1-13.2c4.6-15.4,9.8-30.5,15.8-45.3c-0.6-0.4-1.2-0.9-1.8-1.3
			c-5.9,14.5-11.1,29.3-15.6,44.5c-4.1-5.4-8.2-10.7-12.3-16.1c2.6-13.7,6.7-26.9,12.2-39.4c-0.6-0.4-1.2-0.8-1.8-1.3
			c-5.4,12.1-9.4,25-12.1,38.4c-1.4-1.8-2.8-3.7-4.2-5.5c-0.1-0.4-0.3-0.8-0.7-1c-1-1.3-2-2.7-3-4c1.5-12.2,5.2-23.7,10.9-34
			c-0.6-0.4-1.2-0.8-1.8-1.2c-5.5,10-9.2,21.1-10.9,32.9c-3.1-4-6.1-8.1-9.2-12.1c2-9.8,4.8-19.3,8.2-28.4c-0.6-0.4-1.3-0.8-1.9-1.2
			c-3.3,8.8-6,18-8.1,27.4c-2.9-3.7-5.7-7.5-8.6-11.2c2.4-6.1,4.7-12.2,7.1-18.3c0.4-1,0.8-2,1.2-3c-0.6-0.4-1.3-0.8-1.9-1.1
			c-0.6,1.5-1.2,3-1.8,4.5c-2.1,5.3-4.1,10.6-6.2,16c-2.4-3.2-4.8-6.3-7.2-9.5c1.1-5.9,2.5-11.8,4.2-17.5c-0.6-0.4-1.3-0.8-1.9-1.1
			c-1.5,5.4-2.9,10.8-4,16.3c-2.8-3.7-5.6-7.4-8.4-11.1c0.8-3.6,1.8-7.2,3-10.7c-0.7-0.4-1.3-0.7-1.9-1.1c-1,3.1-2,6.3-2.7,9.6
			c-1.7-2.2-3.4-4.5-5.1-6.7c0.5-2.1,1-4.3,1.4-6.4c-0.7-0.4-1.3-0.7-1.9-1.1c-0.4,1.8-0.8,3.5-1.2,5.3c-2.5-3.3-5.1-6.7-7.6-10
			c-3.1-1.6-4.8-2.5-4.8-2.5s0.4,1.8,1.1,5.1c2.8,3.7,5.7,7.4,8.5,11.1c-2.1-0.7-4.3-1.3-6.4-1.7c0.2,0.7,0.3,1.5,0.5,2.2
			c2.8,0.6,5.5,1.5,8.2,2.6c2,2.6,3.9,5.2,5.9,7.8c-4.1-1.4-8.3-2.5-12.4-3.2c0.2,0.7,0.4,1.5,0.5,2.2c4.4,0.8,8.8,1.9,13.1,3.6
			c0.3,0.1,0.5,0.1,0.8,0c3.6,4.8,7.3,9.5,10.9,14.3c-7.1-1.9-14.3-3.6-21.5-5.1c0.2,0.7,0.4,1.5,0.6,2.3c7.7,1.5,15.3,3.4,22.9,5.5
			c3.3,4.3,6.5,8.6,9.8,12.9c-9.8-2.5-19.7-4.8-29.6-6.8c0.2,0.8,0.4,1.5,0.6,2.3c10.3,2.1,20.7,4.5,30.9,7.2c4,5.3,8,10.5,12,15.8
			c-13-3.8-26-7-39.1-9.8c0.2,0.8,0.5,1.5,0.7,2.3c13.6,2.9,27.1,6.3,40.5,10.3c2.6,3.5,5.3,6.9,7.9,10.4c-14.5-1.7-29-3.4-43.5-5.1
			c0.2,0.7,0.5,1.5,0.7,2.2c14.8,1.8,29.7,3.5,44.5,5.3c5.1,6.7,10.2,13.4,15.4,20.2c-18.4-5.3-37-9.5-55.6-12.8
			c0.3,0.8,0.5,1.5,0.8,2.3c19,3.3,38,7.8,56.9,13.2c4.7,6.2,9.4,12.3,14.1,18.5c-20.7-2.9-41.5-5.7-62.2-8.6
			c0.3,0.8,0.6,1.5,0.9,2.3c21,2.9,42.1,5.8,63.1,8.7c1.8,2.3,3.6,4.7,5.4,7c2.2,2.9,4.3,5.7,6.5,8.6c-22.7-2.6-45.4-5.3-68.1-7.9
			c0.3,0.7,0.7,1.5,1,2.2c23,2.7,45.9,5.4,68.9,8c3.4,4.4,6.7,8.8,10.1,13.2c-23.2-0.4-46.3-0.8-69.5-1.2c0.4,0.7,0.7,1.4,1.1,2.2
			c23.2,0.4,46.5,0.8,69.7,1.2c0.1,0,0.2,0,0.3-0.1c4.8,6.3,9.6,12.6,14.4,18.9c-25.2-1.2-50.3-2.3-75.5-3.5
			c0.4,0.7,0.8,1.5,1.3,2.2c25.3,1.2,50.6,2.3,75.9,3.5c3.6,4.7,7.2,9.4,10.8,14.1c-24.1,1.7-48.2,3.4-72.2,5.1
			c0.5,0.7,1,1.4,1.5,2.1c24.1-1.7,48.2-3.4,72.3-5.1c3.8,5,7.6,10,11.5,15.1c-22.6,4.3-45.6,7.2-68.8,8.8c0.6,0.7,1.2,1.4,1.8,2.1
			c23.1-1.6,46-4.6,68.4-8.9c6.2,8.1,12.4,16.3,18.6,24.4c-20.2,3.9-40.7,6.7-61.4,8.6c0.9,0.7,1.7,1.3,2.6,2
			c20.2-1.9,40.3-4.7,60-8.5c0.1,0,0.2-0.1,0.3-0.1c2.6,3.4,5.2,6.9,7.8,10.3c-15.9,3.9-31.8,7.7-47.7,11.6c1,0.5,2,1.1,3,1.5
			c15.4-3.7,30.8-7.5,46.2-11.2c2.6,3.4,5.2,6.8,7.8,10.2c1.2-0.9,2.5-1.8,3.6-2.8c-0.7-0.9-1.4-1.9-2.1-2.8
			c6-13.1,12.1-26.2,18.1-39.4c-0.1-1.4-0.3-2.7-0.5-4.1c-6.4,13.8-12.7,27.7-19.1,41.5c-2.3-3-4.6-6.1-6.9-9.1
			c7.4-16.5,14.8-32.9,22.2-49.4c-0.3-1-0.6-2.1-1-3.2c-7.6,16.9-15.1,33.7-22.7,50.6c-3.6-4.7-7.2-9.4-10.7-14.1
			c8.7-18.5,17.5-37,26.2-55.4c-0.4-0.9-0.8-1.7-1.2-2.6c-8.8,18.7-17.7,37.4-26.5,56.1c-3.1-4.1-6.2-8.2-9.4-12.3
			c-0.1-0.1-0.2-0.2-0.3-0.3c8.3-20.3,17.6-40,28-58.9c-0.4-0.7-0.9-1.5-1.3-2.2c-10.5,19.1-19.9,38.8-28.2,59.2
			c-0.4-0.5-0.8-1.1-1.2-1.6c-0.1-0.1-0.1-0.2-0.3-0.3c-2.6-3.4-5.2-6.9-7.9-10.3c7.2-22.6,15.5-44.7,24.9-66.2
			c-0.5-0.7-1-1.4-1.5-2C286.4,501.4,278.1,523.5,270.8,546.1z"/>
	</g>
</g>
</svg>
