<?xml version="1.0" encoding="utf-8"?>
<!-- Generator: Adobe Illustrator 24.0.2, SVG Export Plug-In . SVG Version: 6.00 Build 0)  -->
<svg version="1.1" id="Camada_1" xmlns="http://www.w3.org/2000/svg" xmlns:xlink="http://www.w3.org/1999/xlink" x="0px" y="0px"
	 viewBox="0 0 260 497" style="enable-background:new 0 0 260 497;" xml:space="preserve">
<style type="text/css">
	.st0{fill:#FCF4DF;}
	.st1{fill:#3D4775;}
	.st2{fill:#F2944E;}
	.st3{fill:#BAE3DD;}
	.st4{fill:#97C9CE;}
	.st5{fill:#F4879C;}
	.st6{fill:#EA6887;}
	.st7{fill:#2F8C91;}
	.st8{fill:#286F7F;}
	.st9{fill:#E5674E;}
	.st10{fill:#011E6A;}
	.st11{fill:#E27D39;}
	.st12{fill:#F9896E;}
</style>
<g id="left">
	<g>
		<path class="st0" d="M-0.2,249L-0.2,249l0,127.6c0,0,47.7-63.8,100.9-77.6c26.1-6.8,45-32.9,55.6-51.8c4.3-6.1,7.4-13.1,9.8-20.3
			c0.1-0.1,0.1-0.2,0.1-0.2l0,0c3.7-11.4,5.5-23.6,6.7-34.8c1.2-11.4,1.3-24.4-5-34.5c-3.3-5.4-8.2-9-13.7-11.8
			c-5.6-2.8-11.7-5.1-16-9.9c-7.9-8.8-7.7-22.4-6.3-33.5c1.8-13.9,5.8-28.7,0.6-42.4c-4.3-11.3-14-18.8-24.9-23.4
			c-12.2-5.1-25.4-5.9-38.5-6.4c-14.3-0.5-29-0.8-42.3-6.8C16.2,18.5,6.8,11-0.2,1.7V249z"/>
		<g>
			<path class="st1" d="M119.1,89c1.5-0.3,3.1-0.5,4.6-0.8c0.8-0.1,1.3-1.1,1.1-1.9c-0.2-0.9-1.1-1.2-1.9-1.1
				c-1.5,0.3-3.1,0.5-4.6,0.8c-0.8,0.1-1.3,1.1-1.1,1.9C117.5,88.8,118.3,89.2,119.1,89L119.1,89z"/>
			<path class="st1" d="M117.2,79.6c2.2-0.6,4.3-1.3,6.5-1.9c1.9-0.6,1.1-3.5-0.8-3c-2.2,0.6-4.3,1.3-6.5,1.9
				C114.5,77.2,115.3,80.1,117.2,79.6L117.2,79.6z"/>
			<path class="st1" d="M113.4,68.7c1.3-0.9,2.6-1.8,3.8-2.7c0.7-0.5,1-1.3,0.5-2.1c-0.4-0.7-1.4-1-2.1-0.5
				c-1.3,0.9-2.6,1.8-3.8,2.7c-0.7,0.5-1,1.3-0.5,2.1C111.7,68.8,112.7,69.2,113.4,68.7L113.4,68.7z"/>
			<path class="st1" d="M106.7,63.2c0.9-1.4,1.8-2.8,2.7-4.2c1.1-1.7-1.6-3.2-2.6-1.5c-0.9,1.4-1.8,2.8-2.7,4.2
				C103,63.3,105.6,64.8,106.7,63.2L106.7,63.2z"/>
			<path class="st1" d="M97.3,57.1c1.1-3.1,2.3-6.1,3.4-9.2c0.7-1.8-2.3-2.6-3-0.8c-1.1,3.1-2.3,6.1-3.4,9.2
				C93.6,58.1,96.6,58.9,97.3,57.1L97.3,57.1z"/>
			<path class="st1" d="M95.8,79.6c1.9-0.3,3.8-0.5,5.7-0.8c0.8-0.1,1.5-0.6,1.5-1.5c0-0.7-0.7-1.6-1.5-1.5
				c-1.9,0.3-3.8,0.5-5.7,0.8c-0.8,0.1-1.5,0.6-1.5,1.5C94.2,78.8,95,79.7,95.8,79.6L95.8,79.6z"/>
			<path class="st1" d="M90.8,72.8c1.5-0.8,3.1-1.5,4.6-2.3c1.8-0.9,0.2-3.5-1.5-2.6c-1.5,0.8-3.1,1.5-4.6,2.3
				C87.5,71,89,73.7,90.8,72.8L90.8,72.8z"/>
			<path class="st1" d="M85.6,67.8c0.6-0.9,1.3-1.8,1.9-2.7c0.5-0.7,0.1-1.7-0.5-2.1c-0.8-0.4-1.6-0.1-2.1,0.5
				c-0.6,0.9-1.3,1.8-1.9,2.7c-0.5,0.7-0.1,1.7,0.5,2.1C84.3,68.8,85.1,68.4,85.6,67.8L85.6,67.8z"/>
			<path class="st1" d="M79.7,62.8c-0.3-0.9-0.5-1.8-0.8-2.7c-0.2-0.8-1.1-1.3-1.9-1.1c-0.8,0.2-1.3,1.1-1.1,1.9
				c0.3,0.9,0.5,1.8,0.8,2.7c0.2,0.8,1.1,1.3,1.9,1.1C79.4,64.4,79.9,63.6,79.7,62.8L79.7,62.8z"/>
			<path class="st1" d="M90.4,49.8c0-0.9,0-1.8,0-2.7c0-0.8-0.7-1.5-1.5-1.5c-0.8,0-1.5,0.7-1.5,1.5c0,0.9,0,1.8,0,2.7
				c0,0.8,0.7,1.5,1.5,1.5C89.7,51.3,90.4,50.6,90.4,49.8L90.4,49.8z"/>
			<path class="st1" d="M79.7,50.2c0-1,0-2,0-3.1c0-2-3.1-2-3.1,0c0,1,0,2,0,3.1C76.7,52.1,79.7,52.1,79.7,50.2L79.7,50.2z"/>
			<path class="st1" d="M70,63.5c-0.3-0.9-0.5-1.8-0.8-2.7c-0.2-0.8-1.1-1.3-1.9-1.1c-0.8,0.2-1.3,1.1-1.1,1.9
				c0.3,0.9,0.5,1.8,0.8,2.7c0.2,0.8,1.1,1.3,1.9,1.1C69.8,65.2,70.3,64.3,70,63.5L70,63.5z"/>
			<path class="st1" d="M66.6,50.9c-0.6-1.5-1.3-3.1-1.9-4.6c-0.3-0.8-1-1.3-1.9-1.1c-0.7,0.2-1.4,1.1-1.1,1.9
				c0.6,1.5,1.3,3.1,1.9,4.6c0.3,0.8,1,1.3,1.9,1.1C66.3,52.6,67,51.7,66.6,50.9L66.6,50.9z"/>
			<path class="st1" d="M58.9,65.1c-0.6-1.5-1.3-3.1-1.9-4.6c-0.3-0.8-1-1.3-1.9-1.1c-0.7,0.2-1.4,1.1-1.1,1.9
				c0.6,1.5,1.3,3.1,1.9,4.6c0.3,0.8,1,1.3,1.9,1.1C58.6,66.8,59.3,65.8,58.9,65.1L58.9,65.1z"/>
			<path class="st1" d="M55.4,52.4c-1.3-1.9-2.1-3.9-2.5-6.1c-0.4-1.9-3.3-1.1-3,0.8c0.5,2.5,1.4,4.8,2.8,6.9
				C53.9,55.6,56.5,54.1,55.4,52.4L55.4,52.4z"/>
		</g>
		<g>
			<path class="st2" d="M29.6,214.5c1.8-0.9,3.6-1.8,5.4-2.7c1.8-0.9,0.2-3.5-1.5-2.6c-1.8,0.9-3.6,1.8-5.4,2.7
				C26.3,212.8,27.9,215.4,29.6,214.5L29.6,214.5z"/>
			<path class="st2" d="M22.3,202.8c2-0.5,4.1-1,6.1-1.5c1.9-0.5,1.1-3.4-0.8-3c-2,0.5-4.1,1-6.1,1.5
				C19.6,200.3,20.4,203.3,22.3,202.8L22.3,202.8z"/>
			<path class="st2" d="M18.1,192.5c1.5,0,3.1,0,4.6,0c2,0,2-3.1,0-3.1c-1.5,0-3.1,0-4.6,0C16.1,189.4,16.1,192.5,18.1,192.5
				L18.1,192.5z"/>
			<path class="st2" d="M31.4,236.1c0.4-1.8,0.8-3.6,1.1-5.4c0.4-1.9-2.5-2.7-3-0.8c-0.4,1.8-0.8,3.6-1.1,5.4
				C28,237.2,31,238.1,31.4,236.1L31.4,236.1z"/>
			<path class="st2" d="M20.4,232.3c0.6-2,1.3-4.1,1.9-6.1c0.6-1.9-2.4-2.7-3-0.8c-0.6,2-1.3,4.1-1.9,6.1
				C16.8,233.4,19.8,234.2,20.4,232.3L20.4,232.3z"/>
			<path class="st2" d="M10.5,223.8c2.2-0.8,4.3-1.5,6.5-2.3c1.8-0.7,1.1-3.6-0.8-3c-2.2,0.8-4.3,1.5-6.5,2.3
				C7.8,221.5,8.6,224.5,10.5,223.8L10.5,223.8z"/>
			<path class="st2" d="M9.3,212.3c1.8-0.5,3.6-1,5.4-1.5c1.9-0.5,1.1-3.5-0.8-3c-1.8,0.5-3.6,1-5.4,1.5
				C6.6,209.9,7.4,212.9,9.3,212.3L9.3,212.3z"/>
			<path class="st2" d="M45.3,202c1.5-0.5,3.1-1,4.6-1.5c1.9-0.6,1.1-3.6-0.8-3c-1.5,0.5-3.1,1-4.6,1.5
				C42.6,199.7,43.4,202.7,45.3,202L45.3,202z"/>
			<path class="st2" d="M39.2,194.2c2.2-1.1,4.4-2.3,6.5-3.4c1.8-0.9,0.2-3.5-1.5-2.6c-2.2,1.1-4.4,2.3-6.5,3.4
				C35.9,192.5,37.4,195.1,39.2,194.2L39.2,194.2z"/>
			<path class="st2" d="M30.4,186.8c1.7-0.3,3.3-0.5,5-0.8c0.8-0.1,1.3-1.2,1.1-1.9c-0.2-0.9-1.1-1.2-1.9-1.1
				c-1.7,0.3-3.3,0.5-5,0.8c-0.8,0.1-1.3,1.2-1.1,1.9C28.8,186.6,29.6,186.9,30.4,186.8L30.4,186.8z"/>
			<path class="st2" d="M18.5,178.7c1.8-0.4,3.6-0.8,5.4-1.1c1.9-0.4,1.1-3.4-0.8-3c-1.8,0.4-3.6,0.8-5.4,1.1
				C15.8,176.1,16.6,179.1,18.5,178.7L18.5,178.7z"/>
		</g>
	</g>
	<g>
		<path class="st3" d="M9.6,227.5c0,0-5.4,111.9,30.4,174.1c12.2,21.1,25.9,34.2,38.7,42.3c26.8,16.8,61.8-0.9,64.2-32.4
			c1.1-15.1-1.3-33.9-11.1-56.2C102.9,289.5,9.6,227.5,9.6,227.5z"/>
		<path class="st4" d="M97.2,395.9c-2.2-4.4-4.5-8.8-6.7-13.3c10.7-15,21.4-29.9,32.1-44.9c-0.3-0.5-0.6-1-0.9-1.5
			c-10.7,14.9-21.3,29.9-32,44.8c-2.1-4.2-4.2-8.4-6.4-12.5c10-14.5,20.6-28.5,31.9-42c-0.3-0.5-0.6-0.9-1-1.4
			c-11.2,13.4-21.8,27.4-31.8,41.8c-2-4-4.1-8-6.1-12c10.1-13.3,20.1-26.6,30.2-39.9c-0.3-0.4-0.7-0.9-1-1.3
			c-10,13.2-20,26.4-30,39.6c-2.1-4.2-4.3-8.4-6.4-12.6c8.3-13.2,17.2-26.1,26.6-38.6c-0.4-0.4-0.7-0.8-1.1-1.2
			c-9.3,12.3-18.1,25-26.3,38.1c-2.2-4.3-4.4-8.7-6.6-13c7.6-11.8,15.8-23.2,24.4-34.2c-0.4-0.4-0.8-0.8-1.1-1.2
			c-8.5,10.9-16.6,22.2-24.1,33.7c-1.8-3.5-3.6-7.1-5.4-10.6c6.5-10.9,13.4-21.5,20.9-31.8c-0.4-0.4-0.8-0.8-1.2-1.1
			C67.8,290.9,61,301.3,54.6,312c-2.2-4.3-4.4-8.6-6.6-12.9c4.6-9.8,10.3-19.1,16.9-27.8c-0.4-0.4-0.8-0.7-1.2-1.1
			c-6.5,8.4-12,17.5-16.6,27c-0.7-1.5-1.5-2.9-2.2-4.4c0-0.3-0.1-0.6-0.4-0.8c-0.5-1.1-1.1-2.1-1.6-3.2c3.5-8.8,8.6-16.9,14.9-24
			c-0.4-0.4-0.8-0.7-1.2-1.1c-6.2,6.8-11.1,14.6-14.7,23.1c-1.6-3.2-3.3-6.4-4.9-9.7c3.4-7,7.4-13.7,11.8-20.1
			c-0.4-0.3-0.8-0.7-1.2-1c-4.3,6.2-8.1,12.6-11.4,19.3c-1.5-3-3-6-4.6-9c3-4.3,6-8.5,9-12.8c0.5-0.7,1-1.4,1.5-2.1
			c-0.4-0.3-0.8-0.7-1.2-1c-0.7,1-1.5,2.1-2.2,3.1c-2.6,3.7-5.2,7.4-7.8,11.1c-1.3-2.5-2.6-5.1-3.9-7.6c2-4.2,4.2-8.4,6.5-12.4
			c-0.4-0.3-0.9-0.7-1.3-1c-2.2,3.8-4.3,7.7-6.2,11.6c-1.5-3-3-5.9-4.5-8.9c1.3-2.6,2.8-5.1,4.3-7.6c-0.4-0.3-0.9-0.7-1.3-1
			c-1.4,2.2-2.7,4.5-3.9,6.8c-0.9-1.8-1.8-3.6-2.7-5.4c0.8-1.5,1.6-3.1,2.3-4.6c-0.5-0.3-0.9-0.6-1.3-1c-0.6,1.3-1.3,2.5-1.9,3.8
			c-1.4-2.7-2.7-5.3-4.1-8c-2.1-1.5-3.3-2.2-3.3-2.2s-0.1,1.4-0.1,3.9c1.5,3,3,5.9,4.5,8.9c-1.5-0.7-3.1-1.3-4.7-1.8
			c0,0.5,0,1.1,0,1.7c2,0.7,4,1.6,5.9,2.6c1.1,2.1,2.1,4.2,3.2,6.2c-2.9-1.4-6-2.6-9.1-3.4c0,0.5,0,1.1,0,1.7
			c3.3,0.9,6.5,2.2,9.6,3.8c0.2,0.1,0.4,0.1,0.6,0.1c1.9,3.8,3.9,7.6,5.8,11.5c-5.2-2.1-10.5-3.9-15.8-5.6c0,0.6,0,1.1,0,1.7
			c5.7,1.8,11.3,3.8,16.9,6.1c1.7,3.4,3.5,6.9,5.2,10.3c-7.2-2.7-14.5-5.3-21.8-7.6c0,0.6,0,1.1,0.1,1.7c7.7,2.5,15.3,5.2,22.8,8
			c2.1,4.2,4.3,8.4,6.4,12.6c-9.4-3.9-19-7.5-28.7-10.7c0,0.6,0.1,1.2,0.1,1.7c10,3.3,19.9,7,29.7,11.2c1.4,2.8,2.8,5.6,4.2,8.3
			c-11-2.6-22-5.1-33-7.7c0.1,0.6,0.1,1.1,0.2,1.7c11.3,2.6,22.5,5.2,33.8,7.8c2.7,5.4,5.5,10.8,8.2,16.1
			c-13.4-5.5-27.1-10.3-41-14.3c0.1,0.6,0.1,1.2,0.2,1.7c14.2,4.1,28.2,9.1,41.9,14.8c2.5,4.9,5,9.9,7.5,14.8
			c-15.7-3.9-31.3-7.9-47-11.8c0.1,0.6,0.2,1.2,0.3,1.7c15.9,4,31.8,8,47.6,12c1,1.9,1.9,3.8,2.9,5.6c1.2,2.3,2.3,4.6,3.5,6.9
			c-17.2-4-34.5-7.9-51.7-11.9c0.1,0.6,0.2,1.2,0.4,1.7c17.4,4,34.9,8,52.3,12c1.8,3.5,3.6,7.1,5.4,10.6c-18-2.4-36-4.7-54-7.1
			c0.1,0.6,0.3,1.1,0.4,1.7c18.1,2.4,36.1,4.7,54.2,7.1c0.1,0,0.2,0,0.3,0c2.6,5,5.1,10.1,7.7,15.1c-19.4-3.1-38.9-6.2-58.3-9.3
			c0.2,0.6,0.4,1.1,0.6,1.7c19.5,3.1,39.1,6.2,58.6,9.3c1.9,3.8,3.8,7.6,5.8,11.3c-19.1-0.9-38.2-1.8-57.4-2.8
			c0.3,0.6,0.5,1.1,0.8,1.7c19.1,0.9,38.3,1.8,57.4,2.8c2,4,4.1,8,6.1,12.1c-18.4,1.1-36.9,1.2-55.4,0.3c0.3,0.6,0.7,1.1,1.1,1.7
			c18.4,0.9,36.8,0.8,55.1-0.4c3.3,6.5,6.6,13,9.9,19.6c-16.5,1-33,1.3-49.6,0.8c0.5,0.6,1.1,1.1,1.6,1.7
			c16.2,0.4,32.3,0.2,48.5-0.9c0.1,0,0.2,0,0.3-0.1c1.4,2.7,2.8,5.5,4.2,8.2c-13.1,1.4-26.3,2.8-39.4,4.2c0.7,0.5,1.4,0.9,2,1.4
			c12.7-1.4,25.4-2.7,38.2-4.1c1.4,2.7,2.8,5.4,4.1,8.1c1.1-0.5,2.3-1.1,3.3-1.7c-0.4-0.8-0.8-1.5-1.1-2.3
			c7.2-9.1,14.4-18.2,21.6-27.2c0.2-1,0.3-2,0.4-3.1c-7.6,9.6-15.2,19.2-22.7,28.7c-1.2-2.4-2.5-4.9-3.7-7.3
			c8.9-11.4,17.7-22.8,26.6-34.2c0-0.8-0.1-1.6-0.2-2.4c-9.1,11.7-18.2,23.4-27.3,35c-1.9-3.8-3.8-7.5-5.7-11.3
			c10.3-12.8,20.6-25.5,30.9-38.3c-0.1-0.7-0.3-1.3-0.4-2c-10.4,12.9-20.8,25.8-31.2,38.7c-1.7-3.3-3.3-6.6-5-9.9
			c0-0.1-0.1-0.2-0.1-0.3c10.3-14.1,21.3-27.7,33-40.7c-0.2-0.6-0.4-1.2-0.6-1.7c-11.8,13-22.8,26.7-33.2,40.8
			c-0.2-0.4-0.4-0.8-0.6-1.3c0-0.1-0.1-0.2-0.1-0.3c-1.4-2.8-2.8-5.5-4.2-8.3c9.9-15.9,20.5-31.4,31.9-46.3
			c-0.3-0.5-0.5-1.1-0.8-1.6C117.8,364.6,107.1,380,97.2,395.9z"/>
	</g>
	<g>
		<path class="st3" d="M189.1,296.5c0,0-76.5,18.2-111.5,54.6c-11.9,12.3-18,24.2-20.9,34.4c-6.1,21.3,12.7,41.5,34.4,36.9
			c10.4-2.2,22.6-7.5,35.8-18.5C165.5,371.6,189.1,296.5,189.1,296.5z"/>
		<path class="st4" d="M92.6,388.6c2.5-2.4,5.1-4.8,7.6-7.1c12.2,4.3,24.4,8.6,36.6,12.9c0.3-0.3,0.6-0.6,0.8-0.9
			c-12.2-4.3-24.3-8.6-36.5-12.8c2.4-2.2,4.8-4.5,7.2-6.7c11.7,3.9,23.3,8.3,34.6,13.3c0.2-0.3,0.5-0.6,0.7-0.9
			c-11.3-4.9-22.7-9.3-34.4-13.3c2.3-2.2,4.6-4.3,6.9-6.5c10.9,4.2,21.9,8.4,32.8,12.6c0.2-0.3,0.4-0.6,0.7-1
			c-10.9-4.2-21.7-8.3-32.6-12.5c2.4-2.3,4.8-4.5,7.3-6.8c10.5,3,21,6.5,31.2,10.4c0.2-0.3,0.4-0.7,0.6-1
			c-10.1-3.8-20.4-7.3-30.9-10.3c2.5-2.3,5-4.7,7.5-7c9.4,2.9,18.7,6.1,27.9,9.8c0.2-0.3,0.4-0.7,0.6-1c-9-3.6-18.2-6.8-27.5-9.7
			c2-1.9,4.1-3.8,6.1-5.7c8.6,2.2,17.1,4.9,25.5,7.9c0.2-0.3,0.4-0.7,0.5-1c-8.2-3-16.6-5.5-25.1-7.8c2.5-2.3,4.9-4.6,7.4-6.9
			c7.5,1.2,14.9,3.2,22,6c0.2-0.3,0.3-0.7,0.5-1c-6.9-2.7-14.1-4.7-21.5-5.9c0.8-0.8,1.7-1.6,2.5-2.4c0.2,0,0.4-0.2,0.4-0.4
			c0.6-0.6,1.2-1.1,1.8-1.7c6.6,0.6,13.1,2.5,19.1,5.4c0.2-0.3,0.3-0.7,0.5-1c-5.8-2.8-12-4.6-18.5-5.4c1.9-1.7,3.7-3.5,5.6-5.2
			c5.4,0.9,10.7,2.3,15.9,4c0.2-0.3,0.3-0.7,0.5-1c-5-1.7-10.1-3-15.3-3.9c1.7-1.6,3.4-3.2,5.2-4.8c3.5,1.2,6.9,2.4,10.4,3.6
			c0.6,0.2,1.1,0.4,1.7,0.6c0.1-0.3,0.3-0.7,0.4-1c-0.8-0.3-1.7-0.6-2.5-0.9c-3-1-6-2.1-9-3.1c1.5-1.4,2.9-2.7,4.4-4.1
			c3.3,0.5,6.5,1.2,9.7,2c0.1-0.4,0.3-0.7,0.4-1.1c-3-0.8-6-1.4-9-1.9c1.7-1.6,3.4-3.2,5.1-4.8c2,0.4,4,0.9,5.9,1.5
			c0.1-0.4,0.3-0.7,0.4-1.1c-1.8-0.5-3.5-1-5.3-1.3c1-1,2.1-1.9,3.1-2.9c1.2,0.2,2.4,0.4,3.6,0.7c0.1-0.4,0.3-0.7,0.4-1.1
			c-1-0.2-1.9-0.4-2.9-0.6c1.5-1.4,3.1-2.9,4.6-4.3c0.6-1.7,0.9-2.6,0.9-2.6s-0.9,0.2-2.6,0.7c-1.7,1.6-3.4,3.2-5.1,4.8
			c0.2-1.2,0.3-2.3,0.3-3.5c-0.4,0.1-0.7,0.2-1.1,0.3c-0.1,1.5-0.3,3-0.6,4.5c-1.2,1.1-2.4,2.2-3.6,3.4c0.4-2.3,0.6-4.5,0.5-6.8
			c-0.4,0.1-0.7,0.2-1.1,0.3c0,2.4-0.2,4.8-0.7,7.2c0,0.2,0,0.3,0.1,0.4c-2.2,2.1-4.4,4.1-6.6,6.2c0.4-3.9,0.6-7.8,0.7-11.8
			c-0.4,0.1-0.8,0.2-1.1,0.4c-0.1,4.2-0.4,8.4-0.8,12.6c-2,1.8-4,3.7-5.9,5.5c0.4-5.4,0.7-10.8,0.9-16.2c-0.4,0.1-0.8,0.3-1.1,0.4
			c-0.2,5.7-0.5,11.3-1,17c-2.4,2.3-4.8,4.5-7.3,6.8c0.8-7.1,1.3-14.3,1.6-21.4c-0.4,0.1-0.8,0.3-1.2,0.4
			c-0.3,7.4-0.8,14.8-1.7,22.2c-1.6,1.5-3.2,3-4.8,4.5c-0.4-7.9-0.9-15.8-1.3-23.8c-0.4,0.1-0.7,0.3-1.1,0.4
			c0.4,8.1,0.9,16.2,1.3,24.3c-3.1,2.9-6.2,5.8-9.3,8.7c1.1-10.1,1.6-20.3,1.6-30.5c-0.4,0.2-0.8,0.3-1.1,0.5
			c0,10.4-0.6,20.8-1.8,31.2c-2.8,2.7-5.7,5.3-8.5,8c-0.4-11.3-0.8-22.7-1.2-34c-0.4,0.2-0.7,0.4-1.1,0.5c0.4,11.5,0.8,23,1.2,34.5
			c-1.1,1-2.2,2-3.2,3c-1.3,1.2-2.6,2.5-3.9,3.7c-0.7-12.4-1.4-24.8-2.1-37.2c-0.4,0.2-0.7,0.4-1.1,0.6c0.7,12.5,1.4,25.1,2.1,37.6
			c-2,1.9-4.1,3.8-6.1,5.7c-1.9-12.6-3.9-25.2-5.8-37.8c-0.4,0.2-0.7,0.4-1,0.6c1.9,12.6,3.9,25.3,5.8,37.9c0,0.1,0,0.1,0.1,0.2
			c-2.9,2.7-5.8,5.4-8.7,8.1c-1.7-13.7-3.4-27.4-5.2-41.1c-0.4,0.2-0.7,0.5-1,0.7c1.7,13.8,3.5,27.6,5.2,41.4
			c-2.2,2-4.3,4.1-6.5,6.1c-3.1-13.1-6.2-26.2-9.4-39.2c-0.3,0.3-0.6,0.6-1,0.8c3.1,13.1,6.3,26.2,9.4,39.3
			c-2.3,2.2-4.6,4.3-6.9,6.5c-4.4-12.2-8-24.7-11-37.3c-0.3,0.3-0.6,0.7-0.9,1c3,12.6,6.7,25,11.1,37.1c-3.8,3.5-7.5,7-11.3,10.5
			c-3.9-10.9-7.3-22-10.2-33.3c-0.3,0.5-0.5,0.9-0.8,1.4c2.9,11,6.2,21.8,10.1,32.5c0,0.1,0.1,0.1,0.1,0.2c-1.6,1.5-3.2,3-4.7,4.4
			c-3.5-8.6-7-17.2-10.6-25.8c-0.2,0.5-0.4,1.1-0.5,1.6c3.4,8.3,6.8,16.6,10.2,24.9c-1.6,1.5-3.1,2.9-4.7,4.4
			c0.6,0.7,1.2,1.3,1.8,1.9c0.4-0.4,0.9-0.8,1.3-1.2c7.5,3.1,15.1,6.1,22.6,9.2c0.7-0.1,1.4-0.2,2.1-0.3c-7.9-3.2-15.9-6.5-23.8-9.7
			c1.4-1.3,2.8-2.6,4.2-3.9c9.4,3.8,18.9,7.5,28.3,11.3c0.5-0.2,1.1-0.4,1.6-0.6c-9.7-3.8-19.3-7.7-29-11.5c2.2-2,4.3-4.1,6.5-6.1
			c10.6,4.4,21.2,8.9,31.9,13.3c0.4-0.2,0.8-0.5,1.3-0.7c-10.7-4.5-21.5-9-32.2-13.5c1.9-1.8,3.8-3.5,5.7-5.3c0.1,0,0.1-0.1,0.2-0.1
			c11.5,4.2,22.9,8.9,33.9,14.3c0.4-0.2,0.7-0.5,1.1-0.7c-11.1-5.4-22.4-10.2-34-14.4c0.2-0.2,0.5-0.5,0.7-0.7
			c0.1,0,0.1-0.1,0.2-0.1c1.6-1.5,3.2-3,4.8-4.4c12.7,3.6,25.2,7.7,37.5,12.5c0.3-0.3,0.6-0.6,0.9-0.9
			C117.8,396.4,105.3,392.2,92.6,388.6z"/>
	</g>
	<g>
		<path class="st5" d="M146.3,322.9c-2.3-6.1-4.1-9.3,3.2-13.1c7.3-3.8,4.2-8.9,1.9-15c-2.3-6.1-0.7-13,9-22
			c9.7-9,3.8-14.4,2.4-21.1s-1.4-8.4,4.6-16.3s1-14-4.3-20.3c-5.3-6.3,0.1-34.2,0.1-34.2s-11.4,3.9-16.3,18.6
			c-4.9,14.7-11,2.6-19.2,14.3c-8.2,11.7,0.7,19.5-9.5,22.8c-10.2,3.3-17.3,8.7-17,25.1c0.3,16.5-14.4,14.4-16.9,26.1
			c-2.5,11.7,10.8,13.7,4.2,22.1c-6.6,8.4-11.7,10.5-5.5,19.3c6.2,8.8-6.1,15.3-0.2,27.7c0.2,0.5,0.5,0.9,0.7,1.4
			c7.6,13.7,26.1,17,37.6,6.4c2.6-2.4,4.4-5.1,4.5-7.9c0.4-11.2,1.7-11,11.7-12C147.2,343.9,148.6,329,146.3,322.9z"/>
		<path class="st6" d="M151.9,262.1c-5-0.1-10,0.5-14.8,1.8c2.1-5.9,4.1-11.9,5.8-17.9c0.6-2.1,1.2-4.2,1.8-6.4
			c0.1,0,0.1-0.1,0.2-0.2c3.1-3.5,6.7-6.4,10.8-8.7c0.9-0.5,0.2-1.8-0.7-1.4c-3.5,1.9-6.7,4.4-9.5,7.2c3.6-13.5,6.5-27.1,9.5-40.7
			c0.2-0.9-1.2-1.4-1.4-0.5c-2.8,13-5.7,26.1-9,39c-1.9-3.7-4.3-7.2-7.3-10.2c-0.7-0.7-1.8,0.3-1.1,1c3.2,3.3,5.8,7.1,7.7,11.3
			c0,0.1,0.1,0.1,0.1,0.2c-0.3,1.1-0.6,2.1-0.8,3.2c-2.2,8.2-4.8,16.4-7.6,24.4c-3.4-4.3-7.2-8.3-11.3-11.9c-0.7-0.6-1.9,0.3-1.1,1
			c4.3,3.9,8.2,8.1,11.8,12.6c-2,5.6-4.1,11.2-6.4,16.7c-2.4,6-5,12-7.5,18c-2.9-4.6-6.1-8.9-9.6-13c-0.6-0.7-1.8,0.3-1.1,1
			c3.6,4.2,6.9,8.7,9.8,13.4c0.1,0.1,0.2,0.2,0.2,0.3c-3.1,7.3-6.2,14.7-9.2,22.1c-0.6,1.4-1.1,2.8-1.7,4.2
			c-2.6-3.5-5.6-6.5-8.9-9.3c-0.8-0.6-1.6,0.6-0.8,1.3c3.4,2.8,6.4,5.9,8.9,9.4c0.1,0.1,0.1,0.1,0.2,0.2
			c-4.6,11.8-8.6,23.7-11.9,35.9c-4,14.7-7.8,30.4-18.4,41.9c-0.7,0.7,0.3,1.9,1,1.1c9.2-10,13.5-23.1,17.1-36
			c1.9-6.8,3.7-13.7,5.8-20.4c2.3-7.2,4.9-14.4,7.7-21.5c0,0,0-0.1,0-0.1c5.2-0.7,10.5-1,15.8-0.7c1,0,1.1-1.5,0.1-1.5
			c-5.1-0.2-10.2,0-15.2,0.6c3.6-9.1,7.4-18.2,11.3-27.3c5.6-0.7,11.1-1.4,16.7-2.1c1-0.1,0.7-1.6-0.3-1.5c-5.2,0.7-10.5,1.3-15.7,2
			c4.8-11.5,9.6-23,13.9-34.8c5-1.4,10.2-2.1,15.4-2C152.8,263.7,152.8,262.1,151.9,262.1z"/>
		<g>
			<path class="st6" d="M137.8,218c0.4,0.5,0.9,1.1,1.3,1.6c0.4,0.5,1,0.7,1.6,0.4c0.5-0.3,0.7-1.1,0.4-1.6
				c-0.4-0.5-0.9-1.1-1.3-1.6c-0.4-0.5-1-0.7-1.6-0.4C137.7,216.7,137.4,217.5,137.8,218L137.8,218z"/>
			<path class="st6" d="M142.8,214.4c0,0.7,0,1.4,0,2.2c0,0.6,0.6,1.1,1.2,1.1c0.6,0,1.1-0.6,1.1-1.2c0-0.7,0-1.4,0-2.2
				c0-0.6-0.6-1.1-1.2-1.1C143.3,213.3,142.8,213.8,142.8,214.4L142.8,214.4z"/>
			<path class="st6" d="M131.7,219.8c0.5,0.6,1,1.2,1.5,1.9c0.4,0.5,1,0.7,1.6,0.4c0.5-0.3,0.7-1.1,0.4-1.6c-0.5-0.6-1-1.2-1.5-1.9
				c-0.4-0.5-1-0.7-1.6-0.4C131.6,218.6,131.3,219.3,131.7,219.8L131.7,219.8z"/>
			<path class="st6" d="M154.2,221.6c-0.2,0.6-0.4,1.1-0.6,1.7c-0.2,0.6,0.3,1.3,0.9,1.3c0.7,0.1,1.1-0.3,1.3-0.9
				c0.2-0.6,0.4-1.1,0.6-1.7c0.2-0.6-0.3-1.3-0.9-1.3C154.9,220.6,154.4,220.9,154.2,221.6L154.2,221.6z"/>
			<path class="st6" d="M160.5,226c-0.1,0.1-0.2,0.2-0.3,0.4c-0.1,0.1-0.1,0.1-0.2,0.2c0.1,0,0.1,0,0,0c-0.1,0.1-0.2,0.2-0.3,0.2
				c0,0-0.4,0.2-0.3,0.2c-0.5,0.2-1,0.8-0.7,1.4c0.2,0.5,0.9,1,1.4,0.7c0.8-0.4,1.5-0.8,2-1.5c0.4-0.5,0.4-1.2-0.1-1.6
				C161.6,225.5,160.9,225.5,160.5,226L160.5,226z"/>
			<path class="st6" d="M160.4,232.6c-0.8,0-1.5-0.1-2.3-0.1c-0.6,0-1.1,0.6-1.1,1.2c0,0.7,0.6,1.1,1.2,1.1c0.8,0,1.5,0.1,2.3,0.1
				c0.6,0,1.1-0.6,1.1-1.2C161.6,233,161,232.6,160.4,232.6L160.4,232.6z"/>
			<path class="st6" d="M114.3,254.5c0.8,0,1.6,0,2.3,0c0.6,0,1.1-0.6,1.1-1.2c0-0.6-0.6-1.1-1.2-1.1c-0.8,0-1.6,0-2.3,0
				c-0.6,0-1.1,0.6-1.1,1.2C113.1,254.1,113.6,254.5,114.3,254.5L114.3,254.5z"/>
			<path class="st6" d="M117,247.7c0.6,0.6,1.2,1.1,1.8,1.7c1.1,1,2.6-0.7,1.5-1.7c-0.6-0.6-1.2-1.1-1.8-1.7
				C117.5,245,115.9,246.6,117,247.7L117,247.7z"/>
			<path class="st6" d="M124,244.1c-0.2,0.8-0.2,1.6,0.1,2.3c0.2,0.6,0.9,0.9,1.4,0.7c0.6-0.2,0.9-0.8,0.7-1.4c0,0-0.1-0.4-0.1-0.2
				c0-0.1,0-0.3,0-0.4c0-0.1,0-0.1,0-0.2c0,0.1,0,0.1,0,0c0-0.1,0-0.3,0.1-0.4c0.1-0.6-0.3-1.2-0.9-1.3
				C124.7,243.1,124.2,243.4,124,244.1L124,244.1z"/>
			<path class="st6" d="M129.7,246.5c-0.2,0.5-0.3,1-0.5,1.5c-0.2,0.6,0.3,1.3,0.9,1.3c0.7,0.1,1.2-0.3,1.3-0.9
				c0.2-0.5,0.3-1,0.5-1.5c0.2-0.6-0.3-1.3-0.9-1.3C130.4,245.6,129.9,245.9,129.7,246.5L129.7,246.5z"/>
			<path class="st6" d="M149.4,257.2c0,0.5,0,1,0,1.5c0,0.6,0.6,1.1,1.2,1.1c0.6-0.1,1.1-0.6,1.1-1.2c0-0.5,0-1,0-1.5
				c0-0.6-0.6-1.1-1.2-1.1C149.8,256.1,149.4,256.6,149.4,257.2L149.4,257.2z"/>
			<path class="st6" d="M157.1,259.1c-0.6,0.3-1.2,0.6-1.7,1c-0.5,0.3-0.7,1.1-0.4,1.6c0.4,0.5,1,0.7,1.6,0.4c0.6-0.3,1.2-0.6,1.7-1
				c0.5-0.3,0.7-1.1,0.4-1.6C158.3,258.9,157.7,258.8,157.1,259.1L157.1,259.1z"/>
			<path class="st6" d="M157.6,266.5c-0.7-0.4-1.3-0.8-2-1.2c-0.5-0.3-1.3,0-1.5,0.5c-0.3,0.6,0,1.2,0.5,1.5c0.7,0.4,1.3,0.8,2,1.2
				c0.5,0.3,1.3,0,1.5-0.5C158.4,267.4,158.2,266.8,157.6,266.5L157.6,266.5z"/>
			<path class="st6" d="M150,269.6c0.5,0.6,1,1.2,1.5,1.9c0.4,0.5,1,0.7,1.6,0.4c0.5-0.3,0.7-1.1,0.4-1.6c-0.5-0.6-1-1.2-1.5-1.9
				c-0.4-0.5-1-0.7-1.6-0.4C149.9,268.3,149.6,269.1,150,269.6L150,269.6z"/>
			<path class="st6" d="M105.7,291.4c-0.8,0-1.6,0-2.5,0c-0.6,0-1.1,0.6-1.1,1.2c0,0.6,0.6,1.1,1.2,1.1c0.8,0,1.6,0,2.5,0
				c0.6,0,1.1-0.6,1.1-1.2C106.8,291.9,106.3,291.4,105.7,291.4L105.7,291.4z"/>
			<path class="st6" d="M103,284.2c-1.3-0.3-2.5-0.7-3.8-1c-1.4-0.4-1.9,1.8-0.5,2.2c1.3,0.3,2.5,0.7,3.8,1
				C104,286.8,104.4,284.6,103,284.2L103,284.2z"/>
			<path class="st6" d="M104.4,279.4c0.6,0.9,1.3,1.8,1.9,2.7c0.9,1.2,2.8,0,1.9-1.2c-0.6-0.9-1.3-1.8-1.9-2.7
				C105.4,277,103.5,278.2,104.4,279.4L104.4,279.4z"/>
			<path class="st6" d="M112.7,277.4c0,0.6,0,1.1,0,1.7c0,0.6,0.6,1.1,1.2,1.1c0.6-0.1,1.1-0.6,1.1-1.2c0-0.6,0-1.1,0-1.7
				c0-0.6-0.6-1.1-1.2-1.1C113.2,276.3,112.7,276.8,112.7,277.4L112.7,277.4z"/>
			<path class="st6" d="M118.5,283c-0.4,0.8-0.8,1.5-1.2,2.3c-0.7,1.3,1.3,2.3,2,1c0.4-0.8,0.8-1.5,1.2-2.3
				C121.2,282.8,119.2,281.7,118.5,283L118.5,283z"/>
			<path class="st6" d="M133.3,292.6c-0.1,0.7-0.2,1.4-0.3,2.1c-0.1,0.6,0.3,1.2,0.9,1.3c0.6,0.1,1.2-0.3,1.3-0.9
				c0.1-0.7,0.2-1.4,0.3-2.1c0.1-0.6-0.3-1.2-0.9-1.3C134,291.6,133.4,292,133.3,292.6L133.3,292.6z"/>
			<path class="st6" d="M142.7,289.4c-0.5,1.1-1.1,2.1-1.6,3.2c-0.7,1.3,1.3,2.3,2,1c0.5-1.1,1.1-2.1,1.6-3.2
				C145.4,289.1,143.3,288,142.7,289.4L142.7,289.4z"/>
			<path class="st6" d="M146.1,298.3c-1.2,0-2.5,0-3.7-0.1c-1.5,0-1.3,2.2,0.1,2.3c1.2,0,2.5,0,3.7,0.1
				C147.7,300.6,147.6,298.3,146.1,298.3L146.1,298.3z"/>
			<path class="st6" d="M144,306.6c-1-0.5-2-1-2.9-1.5c-1.3-0.7-2.3,1.3-1,2c1,0.5,2,1,2.9,1.5C144.3,309.3,145.3,307.3,144,306.6
				L144,306.6z"/>
			<path class="st6" d="M138.2,310.6c-1.2-1.2-2.5-2.2-3.9-3c-1.3-0.7-2.3,1.3-1,2c1.3,0.7,2.4,1.6,3.4,2.7
				C137.7,313.3,139.3,311.7,138.2,310.6L138.2,310.6z"/>
			<path class="st6" d="M95.4,325.2c-1.1,0.3-2.2,0.7-3.4,1c-1.4,0.4-0.7,2.6,0.7,2.2c1.1-0.3,2.2-0.7,3.4-1
				C97.5,326.9,96.8,324.7,95.4,325.2L95.4,325.2z"/>
			<path class="st6" d="M90.7,321.6c0.9,0.3,1.9,0.5,2.8,0.8c0.6,0.2,1.2-0.3,1.3-0.9c0.1-0.6-0.3-1.2-0.9-1.3
				c-0.9-0.3-1.9-0.5-2.8-0.8c-0.6-0.2-1.2,0.3-1.3,0.9C89.7,320.9,90.1,321.4,90.7,321.6L90.7,321.6z"/>
			<path class="st6" d="M91.6,313.3c0.8,0.4,1.6,0.8,2.4,1.3c1.3,0.7,2.3-1.3,1-2c-0.8-0.4-1.6-0.8-2.4-1.3
				C91.3,310.6,90.3,312.6,91.6,313.3L91.6,313.3z"/>
			<path class="st6" d="M100.8,310.4c0.2,0.8,0.4,1.6,0.6,2.3c0.2,0.6,0.9,0.9,1.4,0.7c0.6-0.2,0.9-0.8,0.7-1.4
				c-0.2-0.8-0.4-1.6-0.6-2.3c-0.2-0.6-0.9-0.9-1.4-0.7C101,309.2,100.6,309.8,100.8,310.4L100.8,310.4z"/>
			<path class="st6" d="M105.9,315.5c-0.2,0.7-0.4,1.3-0.6,2c-0.2,0.6,0.3,1.2,0.9,1.3c0.6,0.1,1.2-0.3,1.3-0.9
				c0.2-0.7,0.4-1.3,0.6-2c0.2-0.6-0.3-1.2-0.9-1.3C106.7,314.5,106.1,314.9,105.9,315.5L105.9,315.5z"/>
			<path class="st6" d="M120.6,321.6c-0.6,0.7-1.2,1.3-1.8,2c-1,1.1,0.7,2.6,1.7,1.5c0.6-0.7,1.2-1.3,1.8-2
				C123.2,322.1,121.6,320.5,120.6,321.6L120.6,321.6z"/>
			<path class="st6" d="M127.6,322c-0.6,0.7-1.2,1.4-2,1.9c-1.2,0.8,0,2.8,1.2,1.9c0.9-0.6,1.7-1.4,2.4-2.3c0.4-0.5,0.4-1.2-0.1-1.6
				C128.7,321.5,127.9,321.5,127.6,322L127.6,322z"/>
			<path class="st6" d="M134.3,326.8c-1.2,0.3-2.4,0.4-3.7,0.3c-0.6,0-1.1,0.6-1.1,1.2c0,0.7,0.6,1,1.2,1.1c1.4,0.1,2.9-0.1,4.2-0.4
				C136.4,328.6,135.7,326.4,134.3,326.8L134.3,326.8z"/>
			<path class="st6" d="M133.6,333.6c-1.2-0.4-2.4-0.9-3.7-1.3c-0.6-0.2-1.2,0.3-1.3,0.9c-0.1,0.7,0.3,1.1,0.9,1.3
				c1.2,0.4,2.4,0.9,3.7,1.3c0.6,0.2,1.2-0.3,1.3-0.9C134.6,334.3,134.1,333.8,133.6,333.6L133.6,333.6z"/>
			<path class="st6" d="M126.7,337.2c-1.8-1.5-3.6-3.1-5.4-4.6c-1.1-1-2.7,0.7-1.5,1.7c1.8,1.5,3.6,3.1,5.4,4.6
				C126.2,339.8,127.8,338.1,126.7,337.2L126.7,337.2z"/>
			<path class="st6" d="M117.8,336.6c-0.9-0.5-1.8-0.9-2.7-1.4c-1.3-0.7-2.3,1.3-1,2c0.9,0.5,1.8,0.9,2.7,1.4
				C118.1,339.3,119.1,337.3,117.8,336.6L117.8,336.6z"/>
		</g>
	</g>
	<path class="st7" d="M220.3,312.3c0,0-119.3,19.3-176.9,71c-19.6,17.6-30.3,35-35.9,50.3c-11.8,32,14.8,65.1,48.6,60.4
		c16.2-2.2,35.5-8.9,56.9-24.3C175.7,424.6,220.3,312.3,220.3,312.3z"/>
	<path class="st8" d="M62.2,442.4c4.2-3.4,8.3-6.7,12.5-10.1c18.2,7.9,36.4,15.9,54.6,23.8c0.5-0.4,0.9-0.9,1.4-1.3
		c-18.1-7.9-36.3-15.8-54.4-23.8c3.9-3.2,7.9-6.3,11.8-9.5c17.5,7.3,34.7,15.4,51.5,24.3c0.4-0.4,0.8-0.9,1.2-1.3
		c-16.7-8.8-33.8-16.9-51.2-24.2c3.8-3,7.6-6.1,11.3-9.1c16.3,7.7,32.6,15.3,48.9,23c0.4-0.5,0.8-0.9,1.1-1.4
		c-16.2-7.6-32.3-15.2-48.5-22.8c4-3.2,7.9-6.4,11.9-9.6c15.8,5.8,31.4,12.3,46.6,19.4c0.3-0.5,0.7-1,1-1.4
		c-15.1-7-30.5-13.5-46.1-19.3c4.1-3.3,8.2-6.6,12.2-9.9c14.1,5.4,28,11.5,41.6,18.1c0.3-0.5,0.7-1,1-1.5
		c-13.4-6.5-27.1-12.5-41-17.9c3.3-2.7,6.6-5.4,10-8c12.9,4.4,25.7,9.4,38.2,14.9c0.3-0.5,0.6-1,0.9-1.5
		c-12.3-5.5-24.8-10.4-37.5-14.7c4.1-3.3,8.1-6.5,12.2-9.8c11.4,2.7,22.5,6.6,33.1,11.7c0.3-0.5,0.6-1,0.9-1.5
		c-10.3-4.9-21.1-8.8-32.3-11.5c1.4-1.1,2.8-2.2,4.1-3.3c0.3,0,0.6-0.2,0.7-0.6c1-0.8,2-1.6,3-2.4c10.1,1.7,19.8,5.2,28.6,10.4
		c0.3-0.5,0.6-1,0.8-1.5c-8.6-5-17.9-8.5-27.7-10.3c3-2.4,6.1-4.9,9.1-7.4c8.1,2.1,16.1,4.7,23.8,7.9c0.3-0.5,0.5-1,0.8-1.5
		c-7.5-3.1-15.1-5.7-23-7.7c2.8-2.3,5.6-4.6,8.5-6.8c5.2,2.2,10.3,4.4,15.5,6.6c0.9,0.4,1.7,0.7,2.6,1.1c0.3-0.5,0.5-1,0.8-1.5
		c-1.3-0.5-2.5-1.1-3.8-1.6c-4.5-1.9-9-3.9-13.5-5.8c2.4-1.9,4.8-3.9,7.2-5.8c4.9,1.2,9.8,2.5,14.6,4.1c0.3-0.5,0.5-1.1,0.8-1.6
		c-4.5-1.5-9-2.8-13.6-3.9c2.8-2.2,5.6-4.5,8.4-6.7c3,0.8,6,1.8,8.9,2.9c0.2-0.5,0.5-1.1,0.7-1.6c-2.6-1-5.3-1.9-8-2.6
		c1.7-1.4,3.4-2.7,5-4.1c1.8,0.5,3.6,1,5.4,1.4c0.2-0.5,0.5-1.1,0.7-1.6c-1.5-0.4-2.9-0.8-4.4-1.2c2.5-2,5-4.1,7.5-6.1
		c1.1-2.5,1.6-3.9,1.6-3.9s-1.4,0.2-4.1,0.7c-2.8,2.3-5.6,4.5-8.4,6.8c0.4-1.8,0.7-3.5,0.9-5.3c-0.6,0.1-1.2,0.2-1.8,0.4
		c-0.3,2.3-0.7,4.6-1.4,6.8c-2,1.6-3.9,3.2-5.9,4.7c0.8-3.4,1.4-6.9,1.6-10.4c-0.6,0.1-1.2,0.3-1.8,0.4c-0.3,3.7-0.9,7.3-1.9,11
		c-0.1,0.2,0,0.5,0.1,0.6c-3.6,2.9-7.2,5.8-10.8,8.7c1-6,1.8-12,2.4-18c-0.6,0.1-1.2,0.3-1.8,0.4c-0.6,6.4-1.5,12.8-2.6,19.2
		c-3.2,2.6-6.5,5.2-9.7,7.8c1.3-8.2,2.3-16.5,3.2-24.7c-0.6,0.2-1.2,0.3-1.8,0.5c-0.9,8.7-2,17.3-3.4,25.9c-4,3.2-7.9,6.4-11.9,9.6
		c2-10.8,3.6-21.7,4.8-32.7c-0.6,0.2-1.2,0.3-1.8,0.5c-1.3,11.3-3,22.6-5.1,33.8c-2.6,2.1-5.2,4.2-7.8,6.3
		c0.2-12.2,0.5-24.4,0.7-36.5c-0.6,0.2-1.2,0.4-1.7,0.5c-0.2,12.5-0.5,24.9-0.7,37.4c-5.1,4.1-10.1,8.2-15.2,12.3
		c2.8-15.4,4.8-30.9,5.9-46.5c-0.6,0.2-1.2,0.4-1.8,0.6c-1.2,15.9-3.3,31.8-6.2,47.5c-4.6,3.7-9.3,7.5-13.9,11.2
		c0.7-17.4,1.3-34.8,2-52.2c-0.6,0.2-1.2,0.5-1.8,0.7c-0.7,17.7-1.3,35.3-2,53c-1.8,1.4-3.5,2.9-5.3,4.3c-2.2,1.7-4.3,3.5-6.5,5.2
		c0.3-19.1,0.7-38.1,1-57.2c-0.6,0.3-1.2,0.5-1.7,0.8c-0.3,19.3-0.7,38.6-1,57.9c-3.3,2.7-6.6,5.4-10,8c-1.5-19.5-3.1-39.1-4.6-58.6
		c-0.6,0.3-1.1,0.6-1.7,0.8c1.5,19.6,3.1,39.2,4.6,58.8c0,0.1,0,0.2,0.1,0.3c-4.7,3.8-9.5,7.7-14.2,11.5
		c-1.1-21.2-2.2-42.4-3.3-63.6c-0.6,0.3-1.1,0.7-1.7,1c1.1,21.3,2.2,42.6,3.3,64c-3.6,2.9-7.1,5.7-10.7,8.6
		c-3.3-20.4-6.6-40.8-9.9-61.2c-0.5,0.4-1.1,0.8-1.6,1.2c3.3,20.4,6.6,40.8,10,61.2c-3.8,3.1-7.6,6.1-11.4,9.2
		c-5.3-19.2-9.5-38.7-12.7-58.4c-0.5,0.5-1,1-1.5,1.5c3.2,19.6,7.4,39,12.7,58.1c-6.1,5-12.3,9.9-18.4,14.9
		c-4.8-17.2-8.8-34.6-11.9-52.1c-0.5,0.7-0.9,1.4-1.4,2.1c3.1,17.1,7.1,34.1,11.8,50.9c0,0.1,0.1,0.2,0.1,0.3
		c-2.6,2.1-5.2,4.2-7.8,6.3c-4.4-13.5-8.9-27.1-13.3-40.6c-0.4,0.8-0.7,1.6-1,2.4c4.3,13.1,8.6,26.2,12.9,39.4
		c-2.6,2.1-5.1,4.1-7.7,6.2c0.8,1.1,1.7,2.1,2.6,3.1c0.7-0.6,1.4-1.1,2.1-1.7c11.2,5.6,22.4,11.1,33.6,16.7c1.1-0.1,2.2-0.1,3.3-0.3
		c-11.8-5.9-23.6-11.7-35.4-17.6c2.3-1.8,4.6-3.7,6.9-5.5c14,6.8,28,13.6,42.1,20.4c0.8-0.2,1.7-0.5,2.5-0.7
		c-14.4-7-28.7-13.9-43.1-20.9c3.5-2.9,7.1-5.7,10.6-8.6c15.8,8,31.5,16,47.3,24c0.7-0.3,1.3-0.6,2-0.9
		c-15.9-8.1-31.9-16.2-47.8-24.3c3.1-2.5,6.2-5,9.3-7.5c0.1-0.1,0.2-0.1,0.3-0.2c17.2,7.7,34,16.2,50.3,25.7c0.6-0.3,1.1-0.7,1.7-1
		c-16.4-9.5-33.2-18.1-50.5-25.9c0.4-0.3,0.8-0.6,1.2-1c0.1,0,0.2-0.1,0.3-0.2c2.6-2.1,5.2-4.2,7.8-6.3c19,6.9,37.7,14.6,56,23.3
		c0.5-0.4,1-0.8,1.5-1.2C99.9,457.1,81.2,449.3,62.2,442.4z"/>
	<path class="st9" d="M124.4,307.6c4.4,8.2,3.2,21.1,2.6,25.8c3.6-4.9,7.3-9.5,11.3-13.7c-8.9-29.4-3.3-61.1-3.3-61.1
		s0.1,7.2,4.2,26.1c3.7,16.7,1.1,29.6-0.1,34.1c3.7-4,7.6-7.7,11.7-11.1c1.5-1.2,3-2.4,4.5-3.6c1.7-9.2-6.1-21.6-8.1-35.1
		c-1.5-10.1,9.6-23.6,9.6-23.6s-8.7,13.1-2,27.4c5.3,11.4,2.1,25.9,0.6,31.2c4.8-3.7,9.8-7,14.9-9.9c-0.5-2.8-1.9-12.2-2.4-21.7
		c-0.6-11.2,2.7-36.6,2.7-36.6s3.1,9.6,4.5,23.7c1.2,11.4-3.2,29.8-4.3,34.4c4.3-2.4,8.7-4.5,13.2-6.3c-0.1-2.9-0.6-12.6-0.6-22.7
		c0-12.1,8.7-42.3,8.7-42.3s0,9,0.2,28.1c0.1,16.5-6,32.5-7.7,36.7c4.1-1.6,8.3-3,12.5-4.2c2.5-2.5,10.3-8.8,30-11.6
		c23.1-3.3,30.8-2.6,30.8-2.6s-37.5,19.9-60.1,15.6c-3.9,1.1-7.6,2.3-11.2,3.7c4.5,1.5,20.6,7.5,35.4,17.8
		c17.4,12.1,22.1,16.3,22.1,16.3s-32.6-13.4-43.4-21.5c-8.5-6.4-13.2-10.8-14.8-12.4c-4.9,1.9-9.5,4.1-13.9,6.5
		c4.4,1.6,21,8.1,29.7,19.3c10.1,12.9,22.9,16.9,22.9,16.9s-13.1-0.7-29-15.5c-13.2-12.2-21.5-18.7-23.9-20.5
		c-5.7,3.2-11,6.7-15.9,10.5c3.9,1,16,4.7,25.7,14.2c11.8,11.5,29.5,20.8,29.5,20.8s-24.6-6.2-40.4-18.7
		c-11.4-9-14.7-13.6-15.7-15.5c-5.5,4.4-10.4,9-14.9,13.8c3.5,0.4,14.9,2.4,28.2,11.3c16,10.8,28.4,19.1,28.4,19.1
		s-44.8-15-57.1-29.9c-4.4,4.7-8.3,9.6-11.7,14.3c3,0,12.4,0.7,22,8.3c11.7,9.3,18.1,11,26.7,12.3c0,0-18.3,0.4-27.2-5.7
		c-10.5-7.1-16.1-13.6-21.7-14.8c-2.3,3.1-4.3,6.2-6.2,9.2C106.6,368.3,101,390,101,390.2c-0.1,0.4-0.6,0.7-1,0.6
		c-0.1,0-0.1,0-0.2-0.1c-0.3-0.2-0.5-0.5-0.4-0.9c0.1-0.2,5.7-22.2,20.7-46.3c2-3.3,4.2-6.4,6.4-9.5c-1.2-3.6-5.8-16.8-9.3-25.3
		c-4.2-9.9,4.5-34.5,4.5-34.5S119,297.4,124.4,307.6z"/>
	<path class="st10" d="M131.7,296.6c0.1,0,0.2,0,0.4,0.1c0,0,0,0,0.1,0c0.1,0,0.2,0,0.4,0.1c0,0,0,0,0,0c0.1,0,0.2,0,0.4,0
		c0,0,0,0,0.1,0c0.1,0,0.2,0,0.4,0c0,0,0,0,0.1,0c0.1,0,0.2,0,0.4,0c0,0,0,0,0,0c0.1,0,0.3,0,0.4,0c0,0,0,0,0.1,0c0.1,0,0.2,0,0.4,0
		c0,0,0,0,0.1,0c0.1,0,0.2,0,0.4,0c0,0,0,0,0,0c0.1,0,0.2,0,0.4,0c0,0,0,0,0,0c0.1,0,0.2,0,0.4,0c0,0,0,0,0.1,0c0.1,0,0.2,0,0.3,0
		c0,0,0,0,0,0c0.1,0,0.2,0,0.3,0c0,0,0,0,0,0c0.1,0,0.2,0,0.3,0c0,0,0,0,0,0c0.1,0,0.2,0,0.3-0.1c0,0,0,0,0,0c0.2,0,0.5-0.1,0.7-0.1
		c0,0,0,0,0,0c0.1,0,0.2-0.1,0.3-0.1c0,0,0,0,0,0c0.2-0.1,0.4-0.1,0.6-0.2c0,0,0,0,0,0c0.1,0,0.2-0.1,0.3-0.1c0,0,0,0,0,0
		c0.1,0,0.2-0.1,0.3-0.1c0,0,0,0,0,0c0.2-0.1,0.4-0.2,0.6-0.3c0,0,0,0,0,0c0.1,0,0.2-0.1,0.3-0.1c0,0,0,0,0,0
		c0.2-0.1,0.3-0.2,0.5-0.3c0,0,0,0,0,0c0.1-0.1,0.1-0.1,0.2-0.2c0,0,0,0,0,0c0.2-0.2,0.4-0.3,0.6-0.5c0,0,0,0,0,0
		c0.2-0.2,0.3-0.4,0.4-0.5c0,0,0,0,0,0c0-0.1,0.1-0.1,0.1-0.2l0,0c0.1-0.1,0.1-0.3,0.2-0.4c0,0,0,0,0,0c0-0.1,0-0.1,0-0.2
		c0,0,0,0,0,0c0.2-0.9-0.3-1.9-1.5-2.8c-5.7-4.3-14.5-2.2-17.6-1.2c0.9-1.1,1.8-2.2,2.6-3.3c0.6-0.8,1.2-1.5,1.7-2.3l0.8-1.1
		c2.1-2.9,4.2-5.7,6.3-8.6c0,0,0.1,0.1,0.1,0.1c0.1,0.1,0.2,0.3,0.2,0.4c0,0.1,0.1,0.1,0.1,0.2c0.1,0.1,0.2,0.2,0.2,0.3
		c0.1,0.1,0.1,0.1,0.2,0.2c0.1,0.1,0.2,0.2,0.2,0.3c0.1,0.1,0.1,0.1,0.2,0.2c0.1,0.1,0.2,0.2,0.2,0.3c0.1,0.1,0.1,0.1,0.2,0.2
		c0.1,0.1,0.2,0.2,0.2,0.3c0.1,0.1,0.1,0.1,0.2,0.2c0.1,0.1,0.2,0.2,0.3,0.3c0.1,0.1,0.1,0.1,0.2,0.2c0.1,0.1,0.2,0.2,0.3,0.3
		c0.1,0.1,0.1,0.1,0.2,0.2c0.1,0.1,0.2,0.2,0.3,0.3c0,0,0.1,0.1,0.1,0.1c0.2,0.1,0.3,0.3,0.5,0.4c0,0,0,0,0,0
		c0.1,0.1,0.3,0.2,0.4,0.3c0,0,0.1,0.1,0.2,0.1c0.1,0.1,0.2,0.2,0.3,0.2c0.1,0,0.1,0.1,0.2,0.1c0.1,0.1,0.2,0.1,0.3,0.2
		c0.1,0,0.1,0.1,0.2,0.1c0.1,0.1,0.2,0.1,0.3,0.2c0.1,0,0.1,0.1,0.2,0.1c0.1,0.1,0.2,0.1,0.3,0.2c0.1,0,0.1,0.1,0.2,0.1
		c0.1,0.1,0.2,0.1,0.3,0.1c0.1,0,0.1,0.1,0.2,0.1c0.1,0,0.2,0.1,0.3,0.1c0.1,0,0.1,0.1,0.2,0.1c0.1,0,0.2,0.1,0.3,0.1
		c0.1,0,0.1,0,0.2,0.1c0.1,0,0.3,0.1,0.4,0.1c0,0,0.1,0,0.1,0c0.2,0.1,0.3,0.1,0.5,0.2c0,0,0,0,0.1,0c0.1,0,0.3,0.1,0.4,0.1
		c0.1,0,0.1,0,0.2,0c0.1,0,0.2,0.1,0.3,0.1c0.1,0,0.1,0,0.2,0c0.1,0,0.2,0,0.3,0.1c0.1,0,0.1,0,0.2,0c0.1,0,0.2,0,0.3,0.1
		c0.1,0,0.1,0,0.2,0c0.1,0,0.2,0,0.3,0c0.1,0,0.1,0,0.2,0c0.1,0,0.2,0,0.3,0c0.1,0,0.1,0,0.2,0c0.1,0,0.2,0,0.3,0c0.1,0,0.1,0,0.2,0
		c0.1,0,0.2,0,0.3,0c0.1,0,0.1,0,0.2,0c0.1,0,0.2,0,0.3,0c0,0,0.1,0,0.1,0c0.2,0,0.3,0,0.5,0c0.1,0,0.1,0,0.1,0c0.1,0,0.2,0,0.3,0
		c0.1,0,0.1,0,0.2,0c0.1,0,0.2,0,0.3,0c0.1,0,0.1,0,0.2,0c0.1,0,0.2,0,0.2,0c0.1,0,0.1,0,0.2,0c0.1,0,0.1,0,0.2,0c0.1,0,0.1,0,0.2,0
		c0.1,0,0.1,0,0.2,0c0.1,0,0.1,0,0.2,0c0.1,0,0.1,0,0.2,0c0.1,0,0.1,0,0.2,0c0.1,0,0.1,0,0.2,0c0.1,0,0.1,0,0.2,0c0.1,0,0.1,0,0.2,0
		c0.1,0,0.1,0,0.2-0.1c0,0,0.1,0,0.1,0c0.3-0.1,0.5-0.2,0.8-0.3c0,0,0.1,0,0.1,0c0.1,0,0.1-0.1,0.2-0.1c0,0,0.1,0,0.1-0.1
		c0.1,0,0.1-0.1,0.2-0.1c0,0,0.1,0,0.1-0.1c0.1,0,0.1-0.1,0.2-0.1c0,0,0.1,0,0.1-0.1c0.1,0,0.1-0.1,0.2-0.1c0,0,0.1,0,0.1-0.1
		c0.1,0,0.1-0.1,0.2-0.1c0,0,0.1,0,0.1-0.1c0.1,0,0.1-0.1,0.1-0.1c0,0,0.1,0,0.1-0.1c0,0,0.1-0.1,0.1-0.1c0,0,0,0,0.1-0.1
		c0,0,0.1-0.1,0.1-0.1c0,0,0,0,0,0c0.2-0.2,0.3-0.4,0.4-0.5c0,0,0,0,0,0c0-0.1,0.1-0.1,0.1-0.2c0,0,0,0,0-0.1c0,0,0-0.1,0.1-0.1
		c0,0,0,0,0-0.1c0,0,0-0.1,0-0.1c0,0,0-0.1,0-0.1c0-0.1,0-0.1,0-0.2c0,0,0-0.1,0-0.1c0-0.1,0-0.1,0-0.2c0,0,0-0.1,0-0.1
		c0-0.1,0-0.1,0-0.2c0,0,0-0.1,0-0.1c0-0.1,0-0.1,0-0.2c0,0,0,0,0-0.1c-0.1-0.6-0.4-1.2-1-1.8c-4.7-5.1-16.1-3.3-19.6-2.6
		c1.5-1.9,3-3.8,4.6-5.7l0,0l0.1-0.1c0-0.1,0.1-0.1,0.1-0.2c0,0,0,0,0,0l0.9-1c2.1-2.3,4.3-4.4,6.7-6.3c0.3,0.3,0.6,0.6,1,1.1
		c0,0,0.1,0.1,0.1,0.1c0.2,0.2,0.4,0.4,0.6,0.6c0.1,0,0.1,0.1,0.2,0.1c0.1,0.1,0.2,0.2,0.4,0.3c0.1,0.1,0.2,0.2,0.3,0.2
		c0.1,0.1,0.1,0.1,0.2,0.2c0.2,0.2,0.5,0.4,0.8,0.7c0.1,0.1,0.3,0.2,0.4,0.3c1.8,1.4,4,2.8,6.4,3.7c0,0,0,0,0,0
		c0.1,0,0.2,0.1,0.3,0.1c0,0,0.1,0,0.1,0c0.1,0,0.2,0.1,0.3,0.1c0,0,0.1,0,0.1,0c0.1,0,0.2,0.1,0.3,0.1c0,0,0,0,0.1,0
		c0.1,0,0.2,0.1,0.3,0.1c0,0,0.1,0,0.1,0c0.1,0,0.2,0,0.3,0.1c0,0,0,0,0.1,0c0.1,0,0.2,0.1,0.3,0.1c0,0,0.1,0,0.1,0
		c0.1,0,0.2,0,0.3,0.1c0,0,0.1,0,0.1,0c0.1,0,0.2,0,0.3,0.1c0,0,0,0,0,0c0.1,0,0.2,0,0.3,0c0,0,0.1,0,0.1,0c0.1,0,0.2,0,0.2,0
		c0,0,0,0,0.1,0c0.1,0,0.2,0,0.3,0c0,0,0,0,0,0c0.1,0,0.2,0,0.3,0c0,0,0,0,0.1,0c0.1,0,0.2,0,0.2,0c0,0,0,0,0,0c0.1,0,0.2,0,0.3,0
		c0,0,0,0,0,0c0.1,0,0.2,0,0.2,0c0,0,0,0,0.1,0c0.1,0,0.2,0,0.3,0c0,0,0,0,0,0c0.1,0,0.2,0,0.3,0c0,0,0,0,0,0c0.1,0,0.1,0,0.2,0
		c0,0,0,0,0,0c0.2,0,0.3-0.1,0.5-0.1c0,0,0,0,0,0c0.1,0,0.1,0,0.2-0.1c0,0,0,0,0,0c0.1,0,0.3-0.1,0.4-0.2c0,0,0,0,0,0
		c0.1-0.1,0.2-0.1,0.3-0.2l0,0c0.1,0,0.1-0.1,0.1-0.1c0,0,0,0,0,0c0.1-0.1,0.2-0.2,0.3-0.3c0,0,0,0,0,0c0,0,0.1-0.1,0.1-0.1
		c0,0,0,0,0,0c0.1-0.1,0.1-0.2,0.1-0.3c0,0,0,0,0,0c0.3-0.9-0.2-2.2-1.8-3.8c-3.8-3.9-12.6-3.9-16-3.7c2.2-1.7,4.4-3.4,6.8-4.8
		l1.4-0.8c0.5-0.3,0.9-0.5,1.4-0.8c1.9-1.1,3.8-2,5.8-2.9c0.1,0.1,0.1,0.2,0.2,0.3c0,0.1,0.1,0.1,0.1,0.2c0.1,0.1,0.2,0.3,0.3,0.4
		c0.3,0.4,0.7,0.9,1.2,1.6c0.2,0.2,0.3,0.4,0.5,0.6c0.1,0.1,0.2,0.2,0.3,0.3c1,1.1,2.1,2.5,3.5,4.1c0.1,0.1,0.1,0.1,0.2,0.2
		c0,0,0,0,0.1,0.1c0,0,0.1,0.1,0.1,0.1c0,0,0.1,0.1,0.1,0.1c0,0,0.1,0.1,0.1,0.1c0,0,0.1,0.1,0.1,0.1c0,0,0.1,0.1,0.1,0.1
		c0,0,0.1,0.1,0.1,0.1c0,0,0.1,0.1,0.1,0.1c0,0,0.1,0.1,0.1,0.1c0,0,0.1,0.1,0.1,0.1c0,0,0.1,0.1,0.1,0.1c0,0,0.1,0.1,0.1,0.1
		c0,0,0.1,0,0.1,0.1c0.1,0,0.1,0.1,0.2,0.1c0,0,0,0,0,0c0.1,0.1,0.2,0.1,0.2,0.2c0,0,0,0,0.1,0c0.1,0,0.1,0.1,0.2,0.1
		c0,0,0.1,0,0.1,0.1c0.1,0,0.1,0.1,0.2,0.1c0,0,0.1,0,0.1,0.1c0,0,0.1,0.1,0.1,0.1c0,0,0.1,0,0.1,0.1c0,0,0.1,0.1,0.1,0.1
		c0,0,0.1,0,0.1,0.1c0,0,0.1,0.1,0.1,0.1c0,0,0.1,0,0.1,0.1c0,0,0.1,0.1,0.1,0.1c0,0,0.1,0,0.1,0.1c0.1,0,0.1,0.1,0.2,0.1
		c0,0,0.1,0,0.1,0c0.1,0,0.2,0.1,0.2,0.1c0,0,0.1,0,0.1,0c0.1,0,0.1,0.1,0.2,0.1c0,0,0.1,0,0.1,0.1c0,0,0.1,0,0.1,0.1
		c0,0,0.1,0,0.1,0.1c0,0,0.1,0,0.1,0.1c0,0,0.1,0,0.1,0.1c0,0,0.1,0,0.1,0.1c0,0,0.1,0,0.1,0c0,0,0.1,0,0.1,0c0,0,0.1,0,0.1,0
		c0,0,0.1,0,0.1,0c0,0,0.1,0,0.1,0c0,0,0.1,0,0.1,0c0,0,0.1,0,0.1,0c0,0,0.1,0,0.1,0c0.1,0,0.2,0.1,0.3,0.1c0,0,0.1,0,0.1,0
		c0,0,0.1,0,0.1,0c0,0,0.1,0,0.1,0c0,0,0.1,0,0.1,0c0,0,0.1,0,0.1,0c0,0,0.1,0,0.1,0c0,0,0.1,0,0.1,0c0,0,0.1,0,0.1,0
		c0,0,0.1,0,0.1,0c0,0,0.1,0,0.1,0c0,0,0.1,0,0.1,0c0.1,0,0.1,0,0.1,0c0,0,0.1,0,0.1,0c0.1,0,0.1,0,0.2,0c0,0,0,0,0,0
		c0.2,0,0.4,0,0.6,0c0,0,0,0,0,0c0.1,0,0.1,0,0.2,0c0,0,0,0,0.1,0c0.1,0,0.1,0,0.2,0c0,0,0,0,0.1,0c0,0,0.1,0,0.1,0c0,0,0,0,0.1,0
		c0,0,0.1,0,0.1,0c0,0,0,0,0.1,0c0,0,0.1,0,0.1,0c0,0,0,0,0,0c0.1,0,0.1,0,0.2,0c0,0,0,0,0,0c0.2-0.1,0.5-0.1,0.7-0.2c0,0,0,0,0,0
		c0,0,0.1,0,0.1-0.1c0,0,0,0,0,0c0,0,0.1,0,0.1-0.1c0,0,0,0,0,0c0,0,0.1,0,0.1-0.1c0,0,0,0,0,0c0,0,0.1-0.1,0.1-0.1c0,0,0,0,0,0
		c0,0,0.1-0.1,0.1-0.1c0,0,0,0,0,0c0.2-0.1,0.3-0.3,0.5-0.5c0,0,0,0,0,0c0,0,0.1-0.1,0.1-0.1c0,0,0,0,0,0c0,0,0.1-0.1,0.1-0.1
		c0,0,0,0,0,0c0,0,0-0.1,0.1-0.1c0,0,0,0,0,0c0,0,0-0.1,0.1-0.1c0,0,0,0,0,0c0,0,0-0.1,0.1-0.1c0,0,0,0,0,0c0.2-0.5,0.3-1.1,0.2-1.8
		c-0.4-6.6-13.3-8-17.8-8.3c3.2-1.4,6.5-2.5,9.9-3.3c0,0,0,0,0,0l1.3-0.3c2-0.5,4-0.8,6-1.1c0,0,0,0,0.1,0c0.1,0.1,0.2,0.2,0.3,0.2
		c0,0,0,0,0,0c0.1,0.1,0.2,0.2,0.3,0.2c0,0,0,0,0,0c0.1,0.1,0.2,0.1,0.3,0.2c0,0,0,0,0.1,0c0.1,0.1,0.2,0.1,0.3,0.2c0,0,0,0,0.1,0
		c0.1,0.1,0.2,0.1,0.4,0.2c0,0,0,0,0,0c0.1,0.1,0.2,0.1,0.4,0.2c0,0,0,0,0.1,0c0.1,0.1,0.2,0.1,0.4,0.2c0,0,0,0,0.1,0
		c0.1,0.1,0.3,0.1,0.4,0.1c0,0,0,0,0.1,0c0.1,0,0.3,0.1,0.4,0.1c0,0,0,0,0,0c0.1,0,0.3,0.1,0.4,0.1c0,0,0,0,0.1,0
		c0.1,0,0.3,0.1,0.4,0.1c0,0,0,0,0.1,0c0.1,0,0.3,0.1,0.4,0.1c0,0,0,0,0,0c0.1,0,0.3,0.1,0.4,0.1c0,0,0,0,0.1,0
		c0.1,0,0.3,0.1,0.4,0.1c0,0,0.1,0,0.1,0c0.1,0,0.3,0,0.4,0.1c0,0,0,0,0.1,0c0.1,0,0.3,0,0.4,0.1c0,0,0,0,0,0c0.1,0,0.3,0,0.4,0
		c0,0,0,0,0.1,0c0.1,0,0.3,0,0.4,0c0,0,0.1,0,0.1,0c0.1,0,0.3,0,0.4,0c0,0,0,0,0,0c0.1,0,0.3,0,0.4,0c0,0,0,0,0.1,0
		c0.1,0,0.3,0,0.4,0c0,0,0.1,0,0.1,0c0.1,0,0.3,0,0.4,0c0,0,0,0,0.1,0c0.1,0,0.3,0,0.4,0c0,0,0,0,0,0c0.1,0,0.3,0,0.4,0
		c0,0,0,0,0.1,0c0.1,0,0.3,0,0.4,0c0,0,0.1,0,0.1,0c0.1,0,0.3,0,0.4,0c0,0,0,0,0,0c0.1,0,0.3,0,0.4-0.1c0,0,0,0,0,0
		c0.1,0,0.3,0,0.4-0.1c0,0,0,0,0.1,0c0.1,0,0.3,0,0.4-0.1c0,0,0,0,0.1,0c0.1,0,0.3,0,0.4-0.1c0,0,0,0,0,0c0.1,0,0.3-0.1,0.4-0.1
		c0,0,0,0,0.1,0c0.1,0,0.3-0.1,0.4-0.1c0,0,0,0,0.1,0c0.1,0,0.3-0.1,0.4-0.1c0,0,0,0,0,0c0.1,0,0.2-0.1,0.4-0.1c0,0,0,0,0,0
		c0.1,0,0.2-0.1,0.4-0.1c0,0,0,0,0.1,0c0.1,0,0.2-0.1,0.3-0.1c0,0,0,0,0.1,0c0.1,0,0.2-0.1,0.4-0.1c0,0,0,0,0,0
		c0.1,0,0.2-0.1,0.3-0.1c0,0,0,0,0,0c0.1,0,0.2-0.1,0.3-0.1c0,0,0,0,0.1,0c0.1,0,0.2-0.1,0.3-0.1c0,0,0,0,0,0c0.1,0,0.2-0.1,0.3-0.1
		c0,0,0,0,0,0c0.1,0,0.2-0.1,0.3-0.2c0,0,0,0,0,0c0.1,0,0.2-0.1,0.3-0.2c0,0,0,0,0,0c0.1-0.1,0.2-0.1,0.3-0.2c0,0,0,0,0,0
		c0.1-0.1,0.2-0.1,0.3-0.2c0,0,0,0,0,0c0.1-0.1,0.2-0.1,0.2-0.2c0,0,0,0,0,0c0.1-0.1,0.1-0.1,0.2-0.2c0,0,0,0,0,0
		c0.1-0.1,0.3-0.2,0.4-0.4c0,0,0,0,0,0c0.1-0.1,0.1-0.1,0.2-0.2c0,0,0,0,0,0c0.1-0.1,0.1-0.1,0.2-0.2c0,0,0,0,0,0
		c0-0.1,0.1-0.1,0.1-0.2c0,0,0,0,0,0c0-0.1,0.1-0.1,0.1-0.2c0,0,0,0,0,0c0-0.1,0.1-0.1,0.1-0.2c0,0,0,0,0,0c0.1-0.1,0.1-0.3,0.1-0.4
		c0,0,0,0,0,0c0-0.1,0-0.1,0-0.2c0,0,0,0,0,0c0-0.1,0-0.1,0-0.2c0,0,0,0,0,0c0-0.1,0-0.1,0-0.2c0,0,0,0,0,0c0-0.1,0-0.1,0-0.2
		c0,0,0,0,0,0c0-0.1,0-0.1-0.1-0.2c0,0,0,0,0,0c0-0.1,0-0.1-0.1-0.2l0,0l0,0c-0.3-0.7-1.2-1.5-2.6-2.1c-8.4-3.8-15.6,1.8-18,3.9
		c-2.1,0.3-4.2,0.7-6.2,1.1l-1.1,0.3c-3.5,0.9-6.9,2-10.2,3.4c3-3.1,10.1-11.3,7.2-16.9c-0.8-1.5-1.6-2.2-2.6-2.4c0,0,0,0,0,0
		c-0.3-0.1-0.6-0.1-0.8,0c0,0,0,0,0,0c-0.3,0-0.6,0.1-0.9,0.2c0,0,0,0,0,0c-0.3,0.1-0.6,0.3-0.8,0.5c0,0,0,0,0,0
		c-0.1,0-0.1,0.1-0.2,0.1c0,0,0,0,0,0c-0.2,0.2-0.4,0.3-0.7,0.6c0,0,0,0,0,0c0,0-0.1,0.1-0.1,0.1c0,0,0,0,0,0
		c-0.2,0.2-0.3,0.3-0.5,0.5c0,0,0,0,0,0c0,0.1-0.1,0.1-0.1,0.2c0,0,0,0,0,0.1c0,0.1-0.1,0.1-0.1,0.2c0,0,0,0,0,0.1
		c-0.1,0.2-0.3,0.3-0.4,0.5c0,0,0,0,0,0.1c0,0.1-0.1,0.1-0.1,0.2c0,0,0,0.1-0.1,0.1c0,0.1-0.1,0.1-0.1,0.2c0,0,0,0.1-0.1,0.1
		c0,0.1-0.1,0.1-0.1,0.2c0,0,0,0.1,0,0.1c-0.1,0.1-0.1,0.2-0.2,0.3c0,0,0,0.1-0.1,0.1c0,0-0.1,0.1-0.1,0.1c0,0,0,0.1-0.1,0.1
		c0,0-0.1,0.1-0.1,0.1c0,0,0,0.1-0.1,0.1c0,0,0,0.1-0.1,0.1c0,0.1-0.1,0.1-0.1,0.2c0,0.1-0.1,0.1-0.1,0.2c0,0.1-0.1,0.1-0.1,0.2
		c0,0,0,0.1-0.1,0.1c0,0.1,0,0.1-0.1,0.2c0,0,0,0.1-0.1,0.1c0,0.1,0,0.1-0.1,0.2c0,0,0,0.1,0,0.1c0,0.1-0.1,0.2-0.1,0.3
		c0,0,0,0.1,0,0.1c0,0.1-0.1,0.2-0.1,0.2c0,0,0,0.1,0,0.1c0,0.1,0,0.1-0.1,0.2c0,0,0,0.1,0,0.1c0,0.1,0,0.1-0.1,0.2c0,0,0,0.1,0,0.1
		c0,0.1-0.1,0.2-0.1,0.3c0,0,0,0,0,0c0,0.1,0,0.2-0.1,0.3c0,0,0,0.1,0,0.1c0,0.1,0,0.1-0.1,0.2c0,0,0,0.1,0,0.1c0,0.1,0,0.1,0,0.2
		c0,0,0,0.1,0,0.1c0,0.1,0,0.2-0.1,0.3c0,0,0,0,0,0c0,0.1,0,0.2-0.1,0.3c0,0,0,0.1,0,0.1c0,0.1,0,0.1,0,0.2c0,0,0,0.1,0,0.1
		c0,0.1,0,0.2,0,0.2c0,0,0,0.1,0,0.1c0,0.1,0,0.2,0,0.3c0,0,0,0,0,0c0,0.1,0,0.2,0,0.3c0,0,0,0.1,0,0.1c0,0.1,0,0.1,0,0.2
		c0,0,0,0.1,0,0.1c0,0.1,0,0.1,0,0.2c0,0,0,0.1,0,0.1c0,0.1,0,0.2,0,0.3c0,1.6,0.1,2.9,0.3,3.9c0,0.3,0.1,0.6,0.1,0.9
		c0,0.3,0.1,0.5,0.1,0.7c0.1,0.3,0.1,0.7,0.2,0.9c0,0.1,0,0.2,0.1,0.3c0.1,0.3,0.2,0.6,0.3,0.8c0,0.1,0,0.1,0.1,0.2
		c0,0.1,0.1,0.2,0.1,0.2c-2,0.9-3.9,1.9-5.8,2.9l-1.5,0.9c-2.7,1.6-5.3,3.4-7.7,5.3c2-4,7.2-15.8,1.4-18.8c-0.2-0.1-0.5-0.2-0.7-0.3
		c0,0,0,0,0,0c-0.1,0-0.1,0-0.2-0.1c0,0,0,0,0,0c-0.1,0-0.1,0-0.2-0.1c0,0,0,0,0,0c-0.1,0-0.1,0-0.2,0c0,0,0,0,0,0
		c-0.1,0-0.1,0-0.2,0c0,0,0,0,0,0c0,0-0.1,0-0.1,0c0,0,0,0,0,0c0,0-0.1,0-0.1,0c0,0,0,0,0,0c0,0-0.1,0-0.1,0c0,0,0,0,0,0
		c0,0-0.1,0-0.1,0c0,0,0,0,0,0c0,0-0.1,0-0.1,0c0,0,0,0,0,0c0,0-0.1,0-0.1,0c0,0,0,0,0,0c0,0-0.1,0-0.1,0c0,0,0,0,0,0
		c0,0-0.1,0-0.1,0c0,0,0,0,0,0c0,0-0.1,0-0.1,0c0,0,0,0,0,0c0,0-0.1,0-0.1,0c0,0,0,0,0,0c0,0-0.1,0-0.1,0c0,0,0,0,0,0
		c0,0-0.1,0-0.1,0c0,0,0,0,0,0c0,0-0.1,0-0.1,0c0,0,0,0,0,0c0,0-0.1,0-0.1,0c0,0,0,0,0,0c0,0-0.1,0-0.1,0c0,0,0,0,0,0
		c0,0-0.1,0-0.1,0.1c0,0,0,0,0,0c0,0-0.1,0-0.1,0.1c0,0,0,0,0,0c0,0-0.1,0-0.1,0.1c0,0,0,0,0,0c0,0-0.1,0-0.1,0.1l0,0
		c-0.8,0.6-1.3,1.6-1.6,3l0,0c0,0.1,0,0.1,0,0.2c0,0,0,0,0,0c0,0.1,0,0.1,0,0.2c0,0,0,0,0,0c0,0.1,0,0.1,0,0.2c0,0,0,0,0,0
		c0,0.1,0,0.1,0,0.2c0,0,0,0,0,0c0,0.1,0,0.1,0,0.2c0,0,0,0,0,0c0,0.1,0,0.1,0,0.2c0,0,0,0,0,0c0,0.1,0,0.1,0,0.2c0,0,0,0,0,0
		c0,0.1,0,0.1,0,0.2c0,0,0,0,0,0c0,0.1,0,0.1,0,0.2c0,0,0,0,0,0c0,0.1,0,0.1,0,0.2c0,0,0,0,0,0c0,0.1,0,0.1,0,0.2c0,0,0,0,0,0
		c0,0.1,0,0.1,0,0.2c0,0,0,0,0,0c0,0.1,0,0.1,0,0.2c0,0,0,0,0,0c0,0.1,0,0.1,0,0.2c0,0,0,0,0,0c0,0.1,0,0.1,0,0.2c0,0,0,0,0,0
		c0,0.1,0,0.1,0,0.2c0,0,0,0,0,0.1c0,0.1,0,0.1,0,0.2c0,0,0,0,0,0.1c0,0.1,0,0.1,0,0.2c0,0,0,0,0,0.1c0,0.1,0,0.1,0,0.2
		c0,0,0,0,0,0.1c0,0.1,0,0.1,0,0.2c0,0,0,0,0,0.1c0,0.1,0,0.1,0,0.2c0,0,0,0,0,0.1c0,0.1,0,0.1,0,0.2c0,0,0,0,0,0.1
		c0,0.1,0,0.1,0,0.2c0,0,0,0,0,0.1c0,0.1,0,0.1,0,0.2c0,0,0,0,0,0.1c0,0.1,0,0.1,0,0.2c0,0,0,0,0,0.1c0,0.1,0,0.1,0,0.2
		c0,0,0,0,0,0.1c0,0.1,0,0.1,0,0.2c0,0,0,0,0,0c0,0.1,0,0.1,0,0.2c0,0,0,0,0,0c0,0.1,0,0.1,0,0.2c0,0,0,0,0,0c0,0.1,0,0.1,0,0.2
		c0,0,0,0,0,0c0,0.1,0,0.1,0,0.2c0,0,0,0,0,0c0.1,0.5,0.2,1.1,0.3,1.7l0,0c0,0.1,0,0.1,0,0.2c0,0,0,0,0,0c0,0.1,0,0.1,0,0.2
		c0,0,0,0,0,0.1c0,0.1,0,0.1,0,0.2c0,0,0,0.1,0,0.1c0,0.1,0,0.1,0,0.2c0,0,0,0.1,0,0.1c0,0,0,0.1,0,0.1c0,0,0,0.1,0,0.1
		c0,0,0,0.1,0,0.1c0,0,0,0.1,0,0.1c0,0,0,0.1,0,0.1c0,0,0,0.1,0,0.1c0,0,0,0.1,0,0.1c0,0,0,0.1,0,0.1c0,0,0,0.1,0,0.1
		c0,0,0,0.1,0,0.1c0,0,0,0.1,0,0.1c0,0,0,0.1,0,0.1c0,0,0,0.1,0,0.1c0,0,0,0.1,0,0.1c0,0,0,0.1,0,0.1c0,0,0,0.1,0,0.1
		c0,0,0,0.1,0,0.1c0,0,0,0.1,0,0.1c0,0,0,0.1,0,0.1c0,0,0,0.1,0,0.1c0,0,0,0.1,0,0.1c0,0,0,0.1,0,0.1c0,0,0,0.1,0,0.1
		c0,0,0,0.1,0,0.1c0,0,0,0.1,0,0.1c0,0,0,0.1,0,0.1c0,0,0,0.1,0,0.1c0,0,0,0.1,0,0.1c0,0,0,0.1,0,0.1c0,0,0,0.1,0,0.1
		c0,0,0,0.1,0,0.1c0,0,0,0.1,0,0.1c0,0,0,0.1,0,0.1c0,0,0,0.1,0,0.1c0,0,0,0.1,0,0.1c0,0,0,0.1,0,0.1c0,0,0,0.1,0,0.1
		c0,0,0,0.1,0,0.1c0,0,0,0.1,0,0.1c0,0,0,0.1,0,0.1c0,0,0,0.1,0,0.1c0,0,0,0.1,0,0.1c0,0,0,0.1,0,0.1c0,0,0,0.1,0,0.1
		c0,0,0,0.1,0,0.1c0,0,0,0.1,0,0.1c0,0,0,0.1,0,0.1c0,0,0,0.1,0,0.1c0,0,0,0.1,0,0.1c0,0,0,0.1,0,0.1c0,0,0,0.1,0,0.1
		c0,0,0,0.1,0,0.1c0,0,0,0.1,0,0.1c0,0,0,0.1,0,0.1c0,0,0,0.1,0,0.1c0,0,0,0.1,0,0.1c0,0,0,0.1,0,0.1c0,0,0,0.1,0,0.1
		c0,0,0,0.1,0,0.1c0,0,0,0.1,0,0.1c0,0,0,0.1,0,0.1c0,0,0,0.1,0,0.1c0,0,0,0.1,0,0.1c0,0,0,0.1,0,0.1c0,0,0,0.1,0,0.1
		c0,0,0,0.1,0.1,0.1c0,0,0,0.1,0,0.1c0,0,0,0.1,0.1,0.1c0,0,0,0.1,0,0.1c0,0,0,0.1,0.1,0.1c0,0,0,0,0,0c-1.8,1.4-3.4,3-5,4.6
		c-0.5,0.5-0.9,0.9-1.3,1.4l-0.8,0.9c-1.7,1.9-3.3,3.8-4.9,5.8c1.3-3.9,2.9-12.4-3.4-18c-1.2-1.1-2.2-1.6-3-1.7c0,0,0,0,0,0
		c-0.1,0-0.1,0-0.2,0c0,0,0,0,0,0c-0.1,0-0.1,0-0.2,0c0,0,0,0,0,0c-0.1,0-0.3,0.1-0.4,0.1c0,0,0,0,0,0c-0.1,0-0.1,0.1-0.2,0.1
		c0,0,0,0,0,0c-0.1,0-0.1,0.1-0.2,0.1c0,0,0,0,0,0c-0.2,0.1-0.3,0.3-0.4,0.5c0,0,0,0,0,0c0,0.1-0.1,0.1-0.1,0.2c0,0,0,0,0,0
		c-0.1,0.2-0.2,0.4-0.3,0.7c0,0,0,0,0,0c0,0.1,0,0.2-0.1,0.3c0,0,0,0,0,0c-0.1,0.3-0.1,0.6-0.2,0.9c0,0,0,0,0,0c0,0.1,0,0.2,0,0.3
		c0,0,0,0,0,0c0,0.1,0,0.2,0,0.3c0,0,0,0,0,0c0,0.2,0,0.5,0,0.7c0,0,0,0,0,0c0,0.1,0,0.2,0,0.4c0,0,0,0,0,0c0,0.1,0,0.2,0,0.4
		c0,0,0,0,0,0c0,0.3,0,0.5,0.1,0.8c0,0,0,0,0,0c0,0.1,0,0.3,0,0.4c0,0,0,0,0,0c0,0.1,0,0.3,0.1,0.4c0,0,0,0,0,0
		c0,0.3,0.1,0.5,0.1,0.8c0,0,0,0,0,0c0,0.1,0.1,0.3,0.1,0.4c0,0,0,0,0,0.1c0,0.1,0.1,0.3,0.1,0.4c0,0,0,0,0,0.1
		c0,0.1,0.1,0.3,0.1,0.4c0,0,0,0,0,0c0,0.1,0.1,0.3,0.1,0.4c0,0,0,0,0,0c0,0.1,0.1,0.3,0.1,0.4c0,0,0,0,0,0.1c0,0.1,0.1,0.3,0.1,0.4
		c0,0,0,0,0,0.1c0,0.1,0.1,0.3,0.1,0.4c0,0,0,0,0,0c0,0.1,0.1,0.3,0.1,0.4c0,0,0,0,0,0c0,0.1,0.1,0.3,0.1,0.4c0,0,0,0,0,0.1
		c0,0.1,0.1,0.3,0.1,0.4c0,0,0,0,0,0.1c0.1,0.1,0.1,0.3,0.2,0.4c0,0,0,0,0,0.1c0.1,0.1,0.1,0.3,0.2,0.4c0,0,0,0,0,0
		c0.1,0.1,0.1,0.3,0.2,0.4c0,0,0,0,0,0.1c0.1,0.1,0.1,0.3,0.2,0.4c0,0,0,0.1,0,0.1c0.1,0.1,0.1,0.3,0.2,0.4c0,0,0,0,0,0.1
		c0.1,0.1,0.1,0.3,0.2,0.4c0,0,0,0,0,0c0.1,0.1,0.1,0.3,0.2,0.4c0,0,0,0,0,0.1c0.1,0.1,0.1,0.3,0.2,0.4c0,0,0,0,0,0.1
		c0.1,0.1,0.1,0.3,0.2,0.4c0,0,0,0,0,0.1c0.1,0.1,0.2,0.3,0.2,0.4c0,0,0,0,0,0c0.1,0.1,0.2,0.3,0.2,0.4c0,0,0,0,0,0
		c0.1,0.1,0.2,0.3,0.2,0.4c0,0,0,0,0,0.1c0.1,0.1,0.2,0.2,0.2,0.4c0,0,0,0,0,0.1c0.1,0.1,0.2,0.2,0.3,0.4c0,0,0,0,0,0
		c0.1,0.1,0.2,0.2,0.3,0.4c0,0,0,0,0,0c0.1,0.1,0.2,0.2,0.3,0.4c0,0,0,0,0,0.1c0.1,0.1,0.2,0.2,0.3,0.3c0,0,0,0,0.1,0.1
		c0.1,0.1,0.2,0.2,0.3,0.3c0,0,0,0,0,0c0.1,0.1,0.2,0.2,0.3,0.3c0,0,0,0,0,0c0.1,0.1,0.2,0.2,0.3,0.3c0,0,0,0,0,0.1
		c0.1,0.1,0.2,0.2,0.3,0.3c0,0,0,0,0.1,0.1c0.1,0.1,0.1,0.1,0.2,0.2c-2.3,3-4.5,6.1-6.8,9.1l-1.1,1.4c-1.3,1.7-2.5,3.3-3.9,4.9
		c-0.4-4.3-1.7-17.5-5.7-19.8c-1.2-0.7-2.3-0.6-3.2,0c0,0,0,0,0,0c-0.2,0.1-0.3,0.2-0.4,0.4c0,0,0,0,0,0c-0.1,0.1-0.3,0.3-0.4,0.5
		c0,0,0,0,0,0c-0.1,0.1-0.1,0.2-0.2,0.3c0,0,0,0,0,0c-0.1,0.1-0.1,0.2-0.2,0.3c0,0,0,0,0,0c-0.1,0.1-0.1,0.2-0.2,0.3c0,0,0,0,0,0
		c0,0.1-0.1,0.2-0.1,0.3c0,0,0,0,0,0c0,0.1-0.1,0.2-0.1,0.3c0,0,0,0,0,0c0,0.1-0.1,0.2-0.1,0.3c0,0,0,0,0,0c0,0.1-0.1,0.2-0.1,0.4
		c0,0,0,0,0,0.1c0,0.1-0.1,0.2-0.1,0.4c0,0,0,0,0,0c0,0.1-0.1,0.3-0.1,0.4c0,0,0,0,0,0.1c0,0.1,0,0.3-0.1,0.4c0,0,0,0,0,0
		c0,0.1,0,0.3,0,0.4c0,0,0,0.1,0,0.1c0,0.3,0,0.5,0,0.8c0,0,0,0.1,0,0.1c0,0.1,0,0.3,0,0.4c0,0,0,0,0,0c0,0.1,0,0.3,0,0.4
		c0,0,0,0.1,0,0.1c0,0.1,0,0.3,0,0.4c0,0,0,0,0,0.1c0,0.1,0,0.3,0,0.4c0,0,0,0.1,0,0.1c0,0.1,0,0.3,0.1,0.4c0,0,0,0,0,0.1
		c0,0.1,0,0.2,0.1,0.4c0,0,0,0.1,0,0.1c0,0.1,0.1,0.3,0.1,0.4c0,0,0,0.1,0,0.1c0,0.1,0.1,0.2,0.1,0.4c0,0,0,0.1,0,0.1
		c0,0.1,0.1,0.3,0.1,0.4c0,0,0,0.1,0,0.1c0,0.1,0.1,0.2,0.1,0.4c0,0,0,0,0,0.1c0.1,0.1,0.1,0.3,0.2,0.4c0,0,0,0.1,0,0.1
		c0.1,0.1,0.1,0.2,0.2,0.4c0,0,0,0,0,0c0.1,0.1,0.1,0.3,0.2,0.4c0,0,0,0.1,0.1,0.1c0.1,0.1,0.2,0.3,0.2,0.4l0,0l0,0
		c2.6,3.8,5.5,6.1,7.4,7.3c0.5,0.3,1,0.6,1.3,0.8c-2.2,2.6-4.5,5.2-7.1,7.5l0,0l0,0c0,0-0.1,0.1-0.1,0.1c0,0,0,0,0,0l-0.8,0.7
		c0,0,0,0,0,0c-0.1,0.1-0.1,0.1-0.2,0.2l0,0l0,0c-0.6,0.5-1.2,1-1.7,1.4c-7.1,5.6-15.5,9.6-24.4,11.5c-0.9,0.2-0.4,1.5,0.4,1.3
		c7.9-1.7,15.4-5,22-9.6c1.5-1.1,3-2.2,4.4-3.4l1.1-1c2.7-2.5,5.3-5.1,7.6-7.9c0.1,0.1,0.1,0.2,0.2,0.3c0,0,0,0.1,0.1,0.1
		c0.1,0.1,0.2,0.3,0.3,0.4c0,0,0,0,0,0c0.1,0.1,0.2,0.2,0.3,0.4c0,0,0,0,0,0.1c0.1,0.1,0.2,0.2,0.3,0.4c0,0,0,0,0.1,0.1
		c0.1,0.1,0.2,0.2,0.3,0.3c0,0,0,0,0,0c0.1,0.1,0.2,0.2,0.3,0.3c0,0,0,0,0,0c0.1,0.1,0.2,0.2,0.3,0.3c0,0,0,0,0.1,0.1
		c0.1,0.1,0.2,0.2,0.3,0.3c0,0,0,0,0.1,0.1c0.1,0.1,0.2,0.2,0.3,0.3c0,0,0,0,0,0c0.1,0.1,0.2,0.2,0.3,0.3c0,0,0,0,0.1,0
		c0.1,0.1,0.2,0.2,0.3,0.2c0,0,0,0,0.1,0c0.1,0.1,0.2,0.2,0.3,0.2c0,0,0,0,0,0c0.1,0.1,0.2,0.1,0.3,0.2c0,0,0,0,0.1,0
		c0.1,0.1,0.2,0.1,0.4,0.2c0,0,0.1,0,0.1,0c0.1,0.1,0.2,0.1,0.4,0.2c0,0,0,0,0.1,0c0.1,0.1,0.2,0.1,0.3,0.2c0,0,0,0,0,0
		c0.1,0.1,0.2,0.1,0.4,0.2c0,0,0.1,0,0.1,0c0.1,0.1,0.2,0.1,0.4,0.2c0,0,0,0,0.1,0c0.1,0,0.2,0.1,0.4,0.1c0,0,0,0,0,0
		c0.1,0,0.3,0.1,0.4,0.1c0,0,0,0,0.1,0c0.1,0,0.2,0.1,0.4,0.1c0,0,0.1,0,0.1,0c0.1,0,0.2,0.1,0.4,0.1c0,0,0,0,0,0
		c0.1,0,0.2,0.1,0.4,0.1c0,0,0,0,0.1,0C131.3,296.5,131.5,296.6,131.7,296.6C131.6,296.6,131.6,296.6,131.7,296.6z"/>
	<g>
		<path class="st2" d="M94,296.4c-0.9-7.2-2-11.1,6.9-13.4c8.9-2.2,6.9-8.6,6-15.7c-0.9-7.2,2.7-14.2,15.6-21.4s7.9-14.5,8.1-22.2
			c0.2-7.7,0.7-9.5,9.2-16.4c8.5-6.9,4.8-14.9,0.7-23.1c-4.1-8.2,9.2-37,9.2-37s-13.3,1.2-22.5,15.8c-9.2,14.6-12.5-0.1-24.5,10.4
			c-12,10.5-4.4,21.2-16.3,22.1s-21,4.8-25,22.6S41.8,230,36.1,242c-5.7,12,8.1,17.7-1.3,25c-9.4,7.3-15.4,8.3-11,19.4
			c4.4,11.2-10.6,14.9-7.5,29.9c0.1,0.6,0.3,1.1,0.4,1.7c4.6,16.8,23.7,25.2,39,16.8c3.5-1.9,6.1-4.3,6.9-7.3
			c3.3-12,4.8-11.4,15.8-9.9C89.4,319.3,94.8,303.5,94,296.4z"/>
		<path class="st11" d="M116,232.1c-5.4-1.4-10.9-2.1-16.5-1.9c3.8-5.8,7.5-11.8,11-17.9c1.2-2.1,2.4-4.3,3.6-6.4
			c0.1,0,0.2-0.1,0.3-0.1c4.3-3,9-5.2,14-6.5c1-0.3,0.7-1.9-0.4-1.6c-4.3,1.2-8.4,2.9-12.2,5.3c7.4-13.6,14.2-27.6,21-41.5
			c0.5-1-1-1.9-1.4-0.9c-6.5,13.3-13,26.7-20,39.7c-1.1-4.6-2.8-8.9-5.2-13c-0.5-0.9-2-0.2-1.5,0.8c2.6,4.4,4.4,9.2,5.4,14.2
			c0,0.1,0,0.2,0.1,0.2c-0.6,1.1-1.2,2.1-1.7,3.2c-4.6,8.3-9.5,16.4-14.7,24.4c-2.6-5.5-5.6-10.8-9-15.9c-0.6-0.9-2.1-0.1-1.5,0.8
			c3.6,5.3,6.8,10.9,9.4,16.8c-3.6,5.5-7.4,11-11.3,16.4c-4.2,5.9-8.5,11.7-12.8,17.4c-2-5.7-4.3-11.2-7-16.6c-0.5-1-2-0.2-1.5,0.8
			c2.8,5.5,5.2,11.2,7.1,17c0,0.1,0.1,0.2,0.2,0.3c-5.3,7.1-10.6,14.2-15.8,21.4c-1,1.4-2,2.7-2.9,4.1c-1.9-4.4-4.3-8.5-7.2-12.4
			c-0.7-0.9-1.9,0.3-1.2,1.1c2.9,3.9,5.3,8.1,7.2,12.6c0,0.1,0.1,0.2,0.1,0.2c-8,11.5-15.6,23.3-22.4,35.6
			c-8.2,14.9-16.4,30.8-30.9,40.4c-0.9,0.6-0.1,2.1,0.8,1.5c12.6-8.4,20.7-21.5,27.9-34.5c3.8-6.9,7.6-13.8,11.7-20.5
			c4.4-7.2,9.1-14.3,14-21.2c0,0,0-0.1,0.1-0.1c5.8,0.6,11.6,1.7,17.3,3.4c1,0.3,1.5-1.3,0.5-1.6c-5.4-1.6-11-2.7-16.6-3.3
			c6.3-8.9,12.8-17.7,19.4-26.5c6.2,0.7,12.4,1.4,18.6,2.1c1.1,0.1,1.1-1.6,0.1-1.7c-5.8-0.7-11.7-1.3-17.5-2
			c8.3-11.2,16.5-22.4,24.2-33.9c5.8-0.2,11.5,0.4,17.2,1.8C116.6,234,117.1,232.4,116,232.1z"/>
		<g>
			<path class="st11" d="M112.4,180.7c0.3,0.7,0.7,1.4,1,2.1c0.3,0.6,0.9,1,1.6,0.8c0.6-0.2,1.1-1,0.8-1.6c-0.3-0.7-0.7-1.4-1-2.1
				c-0.3-0.6-0.9-1-1.6-0.8C112.6,179.3,112.1,180.1,112.4,180.7L112.4,180.7z"/>
			<path class="st11" d="M118.8,178.2c-0.2,0.8-0.4,1.5-0.6,2.3c-0.2,0.7,0.4,1.4,1,1.5c0.7,0.1,1.3-0.3,1.5-1
				c0.2-0.8,0.4-1.5,0.6-2.3c0.2-0.7-0.4-1.4-1-1.5C119.6,177.1,119,177.5,118.8,178.2L118.8,178.2z"/>
			<path class="st11" d="M105.4,181.1c0.4,0.8,0.8,1.6,1.1,2.4c0.3,0.6,0.9,1,1.6,0.8c0.6-0.2,1.1-1,0.8-1.6
				c-0.4-0.8-0.8-1.6-1.1-2.4c-0.3-0.6-0.9-1-1.6-0.8C105.6,179.7,105.1,180.5,105.4,181.1L105.4,181.1z"/>
			<path class="st11" d="M129.2,188.9c-0.4,0.6-0.7,1.1-1.1,1.7c-0.4,0.6,0,1.4,0.6,1.7c0.7,0.3,1.3,0,1.7-0.6
				c0.4-0.6,0.7-1.1,1.1-1.7c0.4-0.6,0-1.4-0.6-1.7C130.2,188,129.6,188.3,129.2,188.9L129.2,188.9z"/>
			<path class="st11" d="M134.9,195.3c-0.1,0.1-0.3,0.2-0.4,0.3c-0.1,0-0.1,0.1-0.2,0.1c0.1,0,0.1,0,0,0c-0.1,0.1-0.3,0.1-0.4,0.2
				c0,0-0.5,0.1-0.3,0.1c-0.6,0.1-1.3,0.6-1.2,1.3c0.1,0.6,0.7,1.3,1.3,1.2c1-0.2,1.8-0.5,2.6-1.1c0.5-0.4,0.8-1.2,0.4-1.8
				C136.2,195.2,135.4,194.9,134.9,195.3L134.9,195.3z"/>
			<path class="st11" d="M133,202.5c-0.8-0.2-1.6-0.5-2.4-0.7c-0.7-0.2-1.4,0.4-1.5,1c-0.1,0.7,0.3,1.3,1,1.5
				c0.8,0.2,1.6,0.5,2.4,0.7c0.7,0.2,1.4-0.4,1.5-1C134.2,203.2,133.7,202.7,133,202.5L133,202.5z"/>
			<path class="st11" d="M77.4,214c0.8,0.2,1.7,0.4,2.5,0.6c0.7,0.2,1.4-0.4,1.5-1c0.1-0.7-0.3-1.3-1-1.5c-0.8-0.2-1.7-0.4-2.5-0.6
				c-0.7-0.2-1.4,0.4-1.5,1C76.2,213.2,76.7,213.8,77.4,214L77.4,214z"/>
			<path class="st11" d="M82.1,207.3c0.5,0.8,1,1.5,1.5,2.3c0.9,1.4,3,0,2.1-1.4c-0.5-0.8-1-1.5-1.5-2.3
				C83.4,204.5,81.3,205.9,82.1,207.3L82.1,207.3z"/>
			<path class="st11" d="M90.7,205.2c-0.4,0.8-0.6,1.6-0.5,2.5c0,0.7,0.7,1.2,1.3,1.2c0.7-0.1,1.2-0.6,1.2-1.3c0-0.1,0-0.5,0-0.2
				c0-0.1,0-0.3,0.1-0.4c0-0.1,0-0.1,0.1-0.2c0,0.1,0,0.1,0,0c0.1-0.1,0.1-0.3,0.2-0.4c0.3-0.6,0-1.4-0.6-1.7
				C91.7,204.4,91,204.6,90.7,205.2L90.7,205.2z"/>
			<path class="st11" d="M96.2,209.4c-0.3,0.5-0.6,1-0.9,1.5c-0.3,0.6,0,1.4,0.6,1.7c0.7,0.3,1.3,0,1.7-0.6c0.3-0.5,0.6-1,0.9-1.5
				c0.3-0.6,0-1.4-0.6-1.7C97.2,208.5,96.5,208.8,96.2,209.4L96.2,209.4z"/>
			<path class="st11" d="M114.7,226.2c-0.1,0.6-0.3,1.1-0.4,1.7c-0.2,0.6,0.4,1.4,1,1.5c0.7,0.1,1.3-0.3,1.5-1
				c0.1-0.6,0.3-1.1,0.4-1.7c0.2-0.6-0.4-1.4-1-1.5C115.4,225,114.8,225.5,114.7,226.2L114.7,226.2z"/>
			<path class="st11" d="M122.5,230.2c-0.7,0.2-1.4,0.4-2.1,0.6c-0.6,0.2-1,1-0.8,1.6c0.3,0.7,0.9,1,1.6,0.8
				c0.7-0.2,1.4-0.4,2.1-0.6c0.6-0.2,1-1,0.8-1.6C123.8,230.4,123.2,230.1,122.5,230.2L122.5,230.2z"/>
			<path class="st11" d="M121.1,238.4c-0.6-0.6-1.2-1.2-1.9-1.8c-0.5-0.5-1.4-0.4-1.8,0.1c-0.5,0.5-0.4,1.3,0.1,1.8
				c0.6,0.6,1.2,1.2,1.9,1.8c0.5,0.5,1.4,0.4,1.8-0.1C121.7,239.6,121.6,238.8,121.1,238.4L121.1,238.4z"/>
			<path class="st11" d="M112,239.7c0.4,0.8,0.8,1.6,1.1,2.4c0.3,0.6,0.9,1,1.6,0.8c0.6-0.2,1.1-1,0.8-1.6c-0.4-0.8-0.8-1.6-1.1-2.4
				c-0.3-0.6-0.9-1-1.6-0.8C112.2,238.3,111.7,239.1,112,239.7L112,239.7z"/>
			<path class="st11" d="M58.3,251.6c-0.9-0.2-1.8-0.5-2.7-0.7c-0.7-0.2-1.4,0.4-1.5,1c-0.1,0.7,0.3,1.3,1,1.5
				c0.9,0.2,1.8,0.5,2.7,0.7c0.7,0.2,1.4-0.4,1.5-1C59.5,252.4,59,251.8,58.3,251.6L58.3,251.6z"/>
			<path class="st11" d="M57.4,243.1c-1.3-0.7-2.6-1.4-3.8-2.1c-1.4-0.8-2.5,1.5-1.1,2.3c1.3,0.7,2.6,1.4,3.8,2.1
				C57.7,246.2,58.8,243.9,57.4,243.1L57.4,243.1z"/>
			<path class="st11" d="M60.1,238.3c0.5,1.1,0.9,2.2,1.4,3.4c0.6,1.5,3,0.7,2.4-0.8c-0.5-1.1-0.9-2.2-1.4-3.4
				C61.9,236,59.5,236.8,60.1,238.3L60.1,238.3z"/>
			<path class="st11" d="M69.7,238.4c-0.1,0.6-0.3,1.2-0.4,1.9c-0.1,0.6,0.3,1.4,1,1.5c0.7,0.1,1.3-0.3,1.5-1
				c0.1-0.6,0.3-1.2,0.4-1.9c0.1-0.6-0.3-1.4-1-1.5C70.5,237.2,69.8,237.7,69.7,238.4L69.7,238.4z"/>
			<path class="st11" d="M74.4,245.9c-0.6,0.7-1.3,1.5-1.9,2.2c-1.1,1.2,0.8,2.9,1.9,1.7c0.6-0.7,1.3-1.5,1.9-2.2
				C77.4,246.4,75.5,244.7,74.4,245.9L74.4,245.9z"/>
			<path class="st11" d="M87.9,260.1c-0.3,0.7-0.6,1.5-0.9,2.2c-0.3,0.6,0,1.4,0.6,1.7c0.6,0.3,1.4,0,1.7-0.6
				c0.3-0.7,0.6-1.5,0.9-2.2c0.3-0.6,0-1.4-0.6-1.7C89,259.3,88.2,259.5,87.9,260.1L87.9,260.1z"/>
			<path class="st11" d="M98.9,259.1c-0.9,1-1.7,2-2.6,3c-1.1,1.2,0.8,2.9,1.9,1.7c0.9-1,1.7-2,2.6-3
				C101.9,259.6,100,257.9,98.9,259.1L98.9,259.1z"/>
			<path class="st11" d="M100.3,269.7c-1.3-0.3-2.7-0.7-4-1c-1.6-0.4-2,2.1-0.5,2.5c1.3,0.3,2.7,0.7,4,1
				C101.4,272.6,101.9,270.1,100.3,269.7L100.3,269.7z"/>
			<path class="st11" d="M95.8,278.1c-0.9-0.8-1.8-1.6-2.8-2.4c-1.2-1.1-2.9,0.8-1.7,1.9c0.9,0.8,1.8,1.6,2.8,2.4
				C95.4,281.1,97,279.2,95.8,278.1L95.8,278.1z"/>
			<path class="st11" d="M88.5,280.9c-0.9-1.6-2.1-3-3.4-4.3c-1.2-1.1-2.8,0.8-1.7,1.9c1.2,1.1,2.2,2.4,3,3.8
				C87.2,283.7,89.3,282.3,88.5,280.9L88.5,280.9z"/>
			<path class="st11" d="M38.4,285.4c-1.3,0.1-2.6,0.1-3.9,0.2c-1.6,0.1-1.5,2.6,0.2,2.5c1.3-0.1,2.6-0.1,3.9-0.2
				C40.2,287.8,40,285.3,38.4,285.4L38.4,285.4z"/>
			<path class="st11" d="M34.3,280.2c1,0.5,1.9,1.1,2.9,1.6c0.6,0.3,1.4,0,1.7-0.6c0.3-0.6,0-1.4-0.6-1.7c-1-0.5-1.9-1.1-2.9-1.6
				c-0.6-0.3-1.4,0-1.7,0.6C33.4,279.2,33.7,279.9,34.3,280.2L34.3,280.2z"/>
			<path class="st11" d="M37.3,271.5c0.8,0.7,1.5,1.3,2.3,2c1.2,1.1,2.9-0.8,1.7-1.9c-0.8-0.7-1.5-1.3-2.3-2
				C37.8,268.6,36.1,270.5,37.3,271.5L37.3,271.5z"/>
			<path class="st11" d="M48.1,270.9c0,0.9,0.1,1.8,0.1,2.7c0,0.7,0.7,1.2,1.3,1.2c0.7-0.1,1.2-0.6,1.2-1.3c0-0.9-0.1-1.8-0.1-2.7
				c0-0.7-0.7-1.2-1.3-1.2C48.6,269.6,48.1,270.2,48.1,270.9L48.1,270.9z"/>
			<path class="st11" d="M52.3,277.7c-0.4,0.7-0.8,1.4-1.2,2c-0.3,0.6,0,1.4,0.6,1.7c0.7,0.3,1.3,0,1.7-0.6c0.4-0.7,0.8-1.4,1.2-2
				c0.3-0.6,0-1.4-0.6-1.7C53.3,276.8,52.7,277.1,52.3,277.7L52.3,277.7z"/>
			<path class="st11" d="M66.5,288.2c-0.8,0.6-1.7,1.1-2.5,1.7c-1.3,0.9,0,3,1.4,2.1c0.8-0.6,1.7-1.1,2.5-1.7
				C69.3,289.4,67.9,287.2,66.5,288.2L66.5,288.2z"/>
			<path class="st11" d="M74,290.4c-0.8,0.7-1.7,1.2-2.6,1.6c-1.5,0.6-0.7,3,0.8,2.4c1.2-0.5,2.3-1.1,3.2-1.9
				c0.5-0.4,0.8-1.1,0.4-1.8C75.4,290.2,74.5,289.9,74,290.4L74,290.4z"/>
			<path class="st11" d="M79.9,297.3c-1.4,0-2.7-0.2-4.1-0.6c-0.7-0.2-1.4,0.4-1.5,1c-0.1,0.7,0.4,1.3,1,1.5
				c1.5,0.5,3.1,0.7,4.7,0.7C81.8,299.8,81.6,297.3,79.9,297.3L79.9,297.3z"/>
			<path class="st11" d="M77.4,304.6c-1.2-0.8-2.4-1.6-3.6-2.4c-0.6-0.4-1.4,0-1.7,0.6c-0.3,0.7,0,1.3,0.6,1.7
				c1.2,0.8,2.4,1.6,3.6,2.4c0.6,0.4,1.4,0,1.7-0.6C78.3,305.6,77.9,304.9,77.4,304.6L77.4,304.6z"/>
			<path class="st11" d="M69,306.6c-1.5-2.1-3-4.3-4.6-6.4c-0.9-1.3-3.1,0.1-2.1,1.4c1.5,2.1,3,4.3,4.6,6.4
				C67.8,309.3,69.9,307.9,69,306.6L69,306.6z"/>
			<path class="st11" d="M59.6,303.6c-0.8-0.7-1.7-1.5-2.5-2.2c-1.2-1.1-2.9,0.8-1.7,1.9c0.8,0.7,1.7,1.5,2.5,2.2
				C59.1,306.6,60.8,304.7,59.6,303.6L59.6,303.6z"/>
		</g>
	</g>
	<g>
		<path class="st9" d="M93.7,391.4c-11.7,24.1-19.8,49.8-24,76.3c-1.2,7.5-2,15-2.6,22.6c-0.2,2.6,3.9,2.6,4.1,0
			c1.9-26.2,7.7-52,17.2-76.5c2.7-6.9,5.6-13.7,8.8-20.3C98.3,391.1,94.8,389.1,93.7,391.4L93.7,391.4z"/>
		<path class="st12" d="M160.9,354.6c-7.4,11.3-29.6,17.3-33.1,14.7c-3.5-2.6,28.9-14.3,31.1-21.5c2.3-7.3-2-20.8-2-20.8
			c-0.9,4.2-16.7,17.4-21.7,15.2c-5-2.2,10.1-7.1,16.7-16.7c6.6-9.6-10.2-35.7-10.2-35.7s-7.7,7.5-18.7,6.9
			c-11-0.6-31.5-2.8-36.3,11c-3.7,10.6,18.9,31,16.3,30.3c-2.7-0.7-24.2-16.3-21.5-29.7c0,0-24.9,18-17.6,33.5
			c7.3,15.5,21.9,26,18.4,27.1c-3.5,1.1-23.2-17.8-22.4-34.3c0,0-28.3,36.7-9.2,59.1c19.1,22.4,42.4,5.2,42.4,5.2
			c11.2,26.9,32.6,26.8,48.6,13.9C156,401.3,160.9,354.6,160.9,354.6z M82.6,339.1c-1-0.3-4.6-2.2-5.5-3.2c-1.3-1.3-0.4-2.8,1.2-2.8
			c2.4,0,4.6,0.2,5,2.2C83.8,337.4,83.6,339.5,82.6,339.1z M81.1,380.5c-4.6-1.7-14.7-6.6-16-9.3c-1-2.1,0.7-4,1.2-4.2
			c2.5-1.1,4.9-0.3,8.4,3.2c3.5,3.5,12,5.6,12.2,7.3C87.1,379.2,85.7,382.2,81.1,380.5z M101.8,351.8c-1.8,0.8-8.6-3.2-10.4-4.6
			c-2.6-2-7.9-3.3-4.6-6.2c2-1.7,6.5,1,9.6,4.3C99.5,348.5,103.6,351,101.8,351.8z M131.4,326.3c0.8-1.3,2.2-2.5,4.7-3.2
			c5-1.4,8.6-1.4,5.9,1.4c-2.7,2.8-6.2,6.7-7.7,6.7c0,0,0,0,0,0C131.8,331.2,130.2,328.5,131.4,326.3z M121.9,387.9
			c-10.6-1.6-19-1.8-13.9-6.2c0,0,2.2-2.4,7.9-1c5.7,1.5,8.5-0.7,12.2,0.6C131.8,382.7,132.6,389.6,121.9,387.9z M139,388.1
			c-4.1-1.6-6.3-1.4-5.9-3.4c0.2-1.2,1.2-2.1,2.3-2.4c2.2-0.6,4.8,0,6.1,0.5C143.3,383.4,144.2,390.1,139,388.1z"/>
		<g>
			<g>
				<path class="st9" d="M65.8,367.4c-1.5-1.3-3-2.6-4.5-3.8c-0.7-0.6-1.6,0.5-0.9,1.1c1.5,1.3,3,2.6,4.6,3.9
					C65.2,368.1,65.5,367.7,65.8,367.4z"/>
				<path class="st9" d="M98.4,381.5c0.1,0,0.1,0,0.2,0c0.1,0,0.2,0,0.2-0.1c2.6,0.7,5.2,1.4,7.8,1.9c0.2-0.4,0.5-0.8,1-1.2
					c-2.9-0.6-5.8-1.3-8.7-2.1c0.9-2.6,1.8-5.1,2.8-7.6c2.3-5.7,5-11.2,7.8-16.7c12.3,2.3,25.3-0.6,35.4-8c0.7-0.5-0.1-1.7-0.8-1.2
					c-9.7,7.1-22.1,10-33.9,7.9c3.6-6.8,7.4-13.4,11.2-20c3.7-0.9,7.2-2.3,10.5-4.1c-0.3-0.3-0.6-0.7-0.7-1.2
					c-2.7,1.6-5.7,2.8-8.7,3.6c3.2-5.5,6.3-11.1,9.2-16.7c4.2-8.2,7.9-16.7,10.6-25.5c-0.2-0.4-0.4-0.6-0.4-0.6s-0.4,0.4-1.3,1.1
					c-4.5,14.6-11.9,28.2-19.5,41.5c-3.6-5.4-5.8-11.6-6.5-18c-0.1-0.9-1.5-0.8-1.4,0.2c0.7,6.9,3.1,13.5,7,19.2c0,0,0,0,0.1,0.1
					c-1.2,2.1-2.4,4.1-3.5,6.2c-4.9,8.7-9.8,17.4-13.9,26.5c-9.6-5.2-17.6-12.9-23.1-22.3c-0.5-0.8-1.6,0-1.2,0.8
					c5.7,9.6,13.9,17.4,23.7,22.7c0,0.1-0.1,0.1-0.1,0.2c-1.8,4-3.3,8.2-4.7,12.3c-3.8,0.5-7.4,0.1-10.9-0.8
					c-0.3,0.5-0.6,0.9-1.1,1.1c3.7,1.1,7.5,1.6,11.5,1.2c-1.8,5.5-3.5,11-5.3,16.5c-0.2,0.7-0.5,1.4-0.7,2.2
					c0.9-0.5,1.5-0.9,1.9-1.2C94.7,393.3,96.5,387.4,98.4,381.5z"/>
				<path class="st9" d="M133.1,384.7c0.1-0.2,0.1-0.5,0.2-0.7c-0.9,0.1-1.9,0.1-2.8,0.1c0.1,0.5,0.1,1,0,1.4c0.9,0,1.7-0.1,2.6-0.1
					C133,385.2,133.1,385,133.1,384.7z"/>
				<path class="st9" d="M142.7,318.9c-0.9,1.2-1.9,2.4-2.9,3.5c0.8-0.1,1.5-0.2,2-0.1c0.7-0.8,1.4-1.6,2-2.4
					C144.3,319,143.3,318.1,142.7,318.9z"/>
			</g>
		</g>
	</g>
</g>
</svg>
