<?xml version="1.0" encoding="utf-8"?>
<!-- Generator: Adobe Illustrator 24.0.2, SVG Export Plug-In . SVG Version: 6.00 Build 0)  -->
<svg version="1.1" id="Camada_1" xmlns="http://www.w3.org/2000/svg" xmlns:xlink="http://www.w3.org/1999/xlink" x="0px" y="0px"
	 viewBox="0 0 480 400" style="enable-background:new 0 0 480 400;" xml:space="preserve">
<style type="text/css">
	.st0{fill:#3D7A89;}
	.st1{fill:#FCF4DF;}
	.st2{fill:#E5674E;}
	.st3{fill:#F9896E;}
	.st4{fill:#F4879C;}
	.st5{fill:#EA6887;}
	.st6{fill:#FBC5AB;}
	.st7{fill:#BAE3DD;}
	.st8{fill:#97C9CE;}
	.st9{fill:#2F8C91;}
	.st10{fill:#286F7F;}
	.st11{fill:#011E6A;}
</style>
<g id="bottom">
	<g>
		<path class="st0" d="M426.5,257.9c-16.4-28.1-50.1-62.9-80.1-76.3c-15.4-6.9-32.1-10.7-49-10.8c-8.4,0-16.7,0.9-24.9,2.8
			c-8.2,1.9-15.9,5-23.5,8.6c-15.4,7.3-30.7,16.7-48.1,18.2c-16.5,1.4-31.9-5.5-46.6-12.3c-14.5-6.7-29.4-13.5-45.7-13.6
			c-4.6,0-9.2,0.4-13.7,1.2c-13.2,2.4-25.6,8.1-36.3,16.2c-8.4,6.3-18.1,15-22.4,24.1c-5.8,12.4-67.5,86.8-13.8,186
			c13,0,50.5,0,50.5,0h363.2C472.3,318.7,434.7,271.9,426.5,257.9z"/>
		<g>
			<path class="st1" d="M337.3,286.5c-0.4,1.4-0.9,2.9-1.3,4.3c-0.6,2.2,2.8,3.2,3.4,0.9c0.4-1.4,0.9-2.9,1.3-4.3
				C341.3,285.2,337.9,284.3,337.3,286.5L337.3,286.5z"/>
			<path class="st1" d="M349,285.9c0.1,2,0.2,3.9,0.2,5.9c0.1,2.3,3.7,2.3,3.6,0c-0.1-2-0.2-3.9-0.2-5.9
				C352.5,283.6,348.9,283.6,349,285.9L349,285.9z"/>
			<path class="st1" d="M360.7,287.2c0.4,1.5,0.9,3.1,1.3,4.6c0.6,2.2,4.1,1.3,3.4-0.9c-0.4-1.5-0.9-3.1-1.3-4.6
				C363.5,284,360,285,360.7,287.2L360.7,287.2z"/>
			<path class="st1" d="M370.4,286.6c1,2.4,2,4.8,3.1,7.1c0.4,0.9,1.7,1.1,2.4,0.6c0.9-0.5,1-1.6,0.6-2.4c-1-2.4-2-4.8-3.1-7.1
				c-0.4-0.9-1.7-1.1-2.4-0.6C370.1,284.6,370,285.7,370.4,286.6L370.4,286.6z"/>
			<path class="st1" d="M380.8,284.6c0.9,2.3,1.9,4.6,2.8,6.9c0.4,0.9,1.2,1.5,2.2,1.2c0.8-0.2,1.6-1.3,1.2-2.2
				c-0.9-2.3-1.9-4.6-2.8-6.9c-0.4-0.9-1.2-1.5-2.2-1.2C381.2,282.7,380.4,283.8,380.8,284.6L380.8,284.6z"/>
			<path class="st1" d="M392.5,284c0.8,1.8,1.7,3.6,2.5,5.4c1,2.1,4.1,0.3,3.1-1.8c-0.8-1.8-1.7-3.6-2.5-5.4
				C394.6,280.2,391.5,282,392.5,284L392.5,284z"/>
			<path class="st1" d="M403.9,282.4c0.5,2.2,1.1,4.4,1.6,6.6c0.5,2.2,4,1.3,3.4-0.9c-0.5-2.2-1.1-4.4-1.6-6.6
				C406.8,279.2,403.4,280.1,403.9,282.4L403.9,282.4z"/>
			<path class="st1" d="M413.2,282.1c0,2.1,0.5,4.1,1.4,6c1,2,4.1,0.2,3.1-1.8c-0.7-1.3-1-2.7-1-4.2
				C416.8,279.8,413.3,279.8,413.2,282.1L413.2,282.1z"/>
			<path class="st1" d="M345.9,269.4c-0.3,1.7-0.9,3.1-1.9,4.4c-0.6,0.8-0.1,2,0.6,2.4c0.9,0.5,1.9,0.1,2.4-0.6
				c1.1-1.6,1.9-3.4,2.2-5.3c0.2-1-0.2-1.9-1.2-2.2C347.3,267.9,346.1,268.4,345.9,269.4L345.9,269.4z"/>
			<path class="st1" d="M355.4,270.4c-0.2,1.6-0.3,3.2-0.5,4.8c-0.1,1,0.9,1.8,1.8,1.8c1.1,0,1.7-0.8,1.8-1.8
				c0.2-1.6,0.3-3.2,0.5-4.8c0.1-1-0.9-1.8-1.8-1.8C356.1,268.6,355.5,269.4,355.4,270.4L355.4,270.4z"/>
			<path class="st1" d="M364.8,271.6c0.6,1.8,1.2,3.6,1.8,5.4c0.7,2.2,4.2,1.2,3.4-0.9c-0.6-1.8-1.2-3.6-1.8-5.4
				C367.5,268.5,364.1,269.4,364.8,271.6L364.8,271.6z"/>
			<path class="st1" d="M374.8,270.6c0.6,1.6,1.2,3.2,1.8,4.8c0.3,0.9,1.2,1.5,2.2,1.2c0.9-0.2,1.6-1.3,1.2-2.2
				c-0.6-1.6-1.2-3.2-1.8-4.8c-0.3-0.9-1.2-1.5-2.2-1.2C375.1,268.6,374.4,269.7,374.8,270.6L374.8,270.6z"/>
			<path class="st1" d="M385.6,271c0.5,1.1,1,2.2,1.5,3.3c0.4,0.9,1.7,1.1,2.4,0.6c0.9-0.5,1-1.6,0.6-2.4c-0.5-1.1-1-2.2-1.5-3.3
				c-0.4-0.9-1.7-1.1-2.4-0.6C385.4,269.1,385.2,270.1,385.6,271L385.6,271z"/>
			<path class="st1" d="M393.3,266.8c-0.2,1.9-0.1,3.8,0.5,5.6c0.7,2.2,4.1,1.3,3.4-0.9c-0.5-1.5-0.6-3-0.4-4.6
				c0.1-1-0.9-1.8-1.8-1.8C394.1,265,393.5,265.8,393.3,266.8L393.3,266.8z"/>
			<path class="st1" d="M401,266.5c0.8,1.9,1.5,3.7,2.3,5.6c0.4,0.9,1.2,1.5,2.2,1.2c0.8-0.2,1.6-1.3,1.2-2.2
				c-0.8-1.9-1.5-3.7-2.3-5.6c-0.4-0.9-1.2-1.5-2.2-1.2C401.4,264.5,400.7,265.6,401,266.5L401,266.5z"/>
			<path class="st1" d="M410.7,267.5c0.5,1.4,1,2.9,1.5,4.3c0.3,0.9,1.2,1.5,2.2,1.2c0.9-0.2,1.6-1.3,1.2-2.2
				c-0.5-1.4-1-2.9-1.5-4.3c-0.3-0.9-1.2-1.5-2.2-1.2C411.1,265.6,410.4,266.6,410.7,267.5L410.7,267.5z"/>
			<path class="st1" d="M421.2,284.9c0.3,1.3,0.7,2.6,1,3.8c0.6,2.2,4,1.3,3.4-0.9c-0.3-1.3-0.7-2.6-1-3.8
				C424,281.7,420.6,282.6,421.2,284.9L421.2,284.9z"/>
			<path class="st1" d="M420.9,270.3c0.3,1.6,0.5,3.2,0.8,4.8c0.2,1,1.3,1.5,2.2,1.2c1-0.3,1.4-1.2,1.2-2.2
				c-0.3-1.6-0.5-3.2-0.8-4.8c-0.2-1-1.3-1.5-2.2-1.2C421.2,268.4,420.8,269.4,420.9,270.3L420.9,270.3z"/>
			<path class="st1" d="M352.5,257.1c-0.4,1.6-0.8,3.2-1.3,4.8c-0.6,2.2,2.9,3.2,3.4,0.9c0.4-1.6,0.8-3.2,1.3-4.8
				C356.5,255.8,353.1,254.9,352.5,257.1L352.5,257.1z"/>
			<path class="st1" d="M362.5,258.9c0.2,1.4,0.3,2.9,0.5,4.3c0.1,1,0.7,1.8,1.8,1.8c0.9,0,1.9-0.8,1.8-1.8
				c-0.2-1.4-0.3-2.9-0.5-4.3c-0.1-1-0.7-1.8-1.8-1.8C363.4,257.1,362.4,257.9,362.5,258.9L362.5,258.9z"/>
			<path class="st1" d="M372.9,260.2c0.2,1.9,0.8,3.6,1.8,5.2c1.2,1.9,4.3,0.2,3.1-1.8c-0.7-1-1.1-2.2-1.3-3.4
				c-0.1-1-0.7-1.8-1.8-1.8C373.8,258.4,372.8,259.2,372.9,260.2L372.9,260.2z"/>
			<path class="st1" d="M383.9,258.3c0.3,1.2,0.6,2.4,0.9,3.5c0.5,2.2,4,1.3,3.4-0.9c-0.3-1.2-0.6-2.4-0.9-3.5
				C386.8,255.2,383.4,256.1,383.9,258.3L383.9,258.3z"/>
			<path class="st1" d="M391.8,255.6c0.1,1,0.2,2,0.3,3.1c0.1,1,0.8,1.8,1.8,1.8c0.9,0,1.9-0.8,1.8-1.8c-0.1-1-0.2-2-0.3-3.1
				c-0.1-1-0.8-1.8-1.8-1.8C392.7,253.8,391.7,254.6,391.8,255.6L391.8,255.6z"/>
			<path class="st1" d="M400.8,254c0.3,1.1,0.5,2.2,0.8,3.3c0.2,0.9,1.3,1.5,2.2,1.2c1-0.3,1.5-1.3,1.2-2.2
				c-0.3-1.1-0.5-2.2-0.8-3.3c-0.2-0.9-1.3-1.5-2.2-1.2C401.1,252.1,400.6,253.1,400.8,254L400.8,254z"/>
			<path class="st1" d="M407.4,250.9c0.4,2.1,1.4,4,2.8,5.6c1.5,1.7,4.1-0.8,2.5-2.5c-1-1.2-1.6-2.5-1.9-4.1c-0.2-1-1.3-1.5-2.2-1.2
				C407.6,249,407.2,250,407.4,250.9L407.4,250.9z"/>
			<path class="st1" d="M254.8,235.2c0,2,0,3.9,0,5.9c0,2.3,3.6,2.3,3.6,0c0-2,0-3.9,0-5.9C258.4,232.9,254.8,232.9,254.8,235.2
				L254.8,235.2z"/>
			<path class="st1" d="M268.4,237.2c-0.2,1.8-0.4,3.6-0.6,5.4c-0.1,1,0.9,1.8,1.8,1.8c1,0,1.7-0.8,1.8-1.8c0.2-1.8,0.4-3.6,0.6-5.4
				c0.1-1-0.9-1.8-1.8-1.8C269.1,235.4,268.5,236.2,268.4,237.2L268.4,237.2z"/>
			<path class="st1" d="M283,240.1c-0.3,1.4-0.6,2.9-0.8,4.3c-0.2,0.9,0.3,1.9,1.2,2.2c0.9,0.2,2-0.3,2.2-1.2
				c0.3-1.4,0.6-2.9,0.8-4.3c0.2-0.9-0.3-1.9-1.2-2.2C284.3,238.6,283.2,239.1,283,240.1L283,240.1z"/>
			<path class="st1" d="M292.1,243.1c0.1,1.8,0.2,3.6,0.3,5.4c0.1,2.3,3.7,2.3,3.6,0c-0.1-1.8-0.2-3.6-0.3-5.4
				C295.5,240.8,291.9,240.8,292.1,243.1L292.1,243.1z"/>
			<path class="st1" d="M304.3,245.6c0,1.6,0,3.2,0,4.8c0,2.3,3.6,2.3,3.6,0c0-1.6,0-3.2,0-4.8C307.9,243.3,304.3,243.3,304.3,245.6
				L304.3,245.6z"/>
			<path class="st1" d="M257.8,254c-0.3,2-0.5,3.9-0.8,5.9c-0.1,1,0.9,1.8,1.8,1.8c1.1,0,1.7-0.8,1.8-1.8c0.3-2,0.5-3.9,0.8-5.9
				c0.1-1-0.9-1.8-1.8-1.8C258.5,252.2,257.9,253.1,257.8,254L257.8,254z"/>
			<path class="st1" d="M270.3,255.3c0.1,2.5,0.1,4.9,0.2,7.4c0.1,2.3,3.6,2.3,3.6,0c-0.1-2.5-0.1-4.9-0.2-7.4
				C273.8,253,270.2,253,270.3,255.3L270.3,255.3z"/>
			<path class="st1" d="M283.6,258.6c0,1.9,0,3.7,0,5.6c0,2.3,3.6,2.3,3.6,0c0-1.9,0-3.7,0-5.6C287.2,256.3,283.6,256.3,283.6,258.6
				L283.6,258.6z"/>
			<path class="st1" d="M292.4,262.7c0.5,1.4,1,2.7,1.5,4.1c0.3,0.9,1.2,1.5,2.2,1.2c0.9-0.2,1.6-1.3,1.2-2.2
				c-0.5-1.4-1-2.7-1.5-4.1c-0.3-0.9-1.2-1.5-2.2-1.2C292.7,260.7,292,261.8,292.4,262.7L292.4,262.7z"/>
			<path class="st1" d="M300,261.4c0.5,1.9,1,3.8,1.4,5.6c0.6,2.2,4,1.3,3.4-0.9c-0.5-1.9-1-3.8-1.4-5.6
				C302.9,258.2,299.5,259.2,300,261.4L300,261.4z"/>
			<path class="st1" d="M256.3,273.4c-0.1,1.5-0.2,3.1-0.2,4.6c-0.1,2.3,3.5,2.3,3.6,0c0.1-1.5,0.2-3.1,0.2-4.6
				C260,271.1,256.4,271.1,256.3,273.4L256.3,273.4z"/>
			<path class="st1" d="M267.6,275c0.1,2.3,0.2,4.6,0.2,6.9c0.1,2.3,3.7,2.3,3.6,0c-0.1-2.3-0.2-4.6-0.2-6.9
				C271.1,272.7,267.5,272.7,267.6,275L267.6,275z"/>
			<path class="st1" d="M278.8,277c0.2,2.1,0.5,4.3,0.7,6.4c0.1,1,0.7,1.8,1.8,1.8c0.9,0,1.9-0.8,1.8-1.8c-0.2-2.1-0.5-4.3-0.7-6.4
				c-0.1-1-0.7-1.8-1.8-1.8C279.7,275.2,278.7,276,278.8,277L278.8,277z"/>
			<path class="st1" d="M291.1,279.5c0.4,1.4,0.9,2.7,1.3,4.1c0.7,2.2,4.1,1.3,3.4-0.9c-0.4-1.4-0.9-2.7-1.3-4.1
				C293.8,276.4,290.4,277.3,291.1,279.5L291.1,279.5z"/>
			<path class="st1" d="M302,278.3c0,2,0,4.1,0,6.1c0,2.3,3.6,2.3,3.6,0c0-2,0-4.1,0-6.1C305.6,276,302,276,302,278.3L302,278.3z"/>
			<path class="st1" d="M258.7,291.3c-0.3,1.1-0.7,2.2-1,3.3c-0.3,0.9,0.3,1.9,1.2,2.2c1,0.3,1.9-0.3,2.2-1.2c0.3-1.1,0.7-2.2,1-3.3
				c0.3-0.9-0.3-1.9-1.2-2.2C259.9,289.8,259,290.4,258.7,291.3L258.7,291.3z"/>
			<path class="st1" d="M269.7,291.5c0,1.3,0.1,2.5,0.1,3.8c0.1,2.3,3.6,2.3,3.6,0c0-1.3-0.1-2.5-0.1-3.8
				C273.2,289.2,269.7,289.2,269.7,291.5L269.7,291.5z"/>
			<path class="st1" d="M278.4,292.8c0.2,1.3,0.4,2.5,0.5,3.8c0.1,1,1.4,1.5,2.2,1.2c1-0.3,1.4-1.2,1.2-2.2
				c-0.2-1.3-0.4-2.5-0.5-3.8c-0.1-1-1.4-1.5-2.2-1.2C278.6,290.9,278.2,291.8,278.4,292.8L278.4,292.8z"/>
			<path class="st1" d="M289.4,292c0.3,1.2,0.6,2.4,0.9,3.6c0.6,2.2,4,1.3,3.4-0.9c-0.3-1.2-0.6-2.4-0.9-3.6
				C292.2,288.8,288.8,289.8,289.4,292L289.4,292z"/>
			<path class="st1" d="M298.2,291.8c0,1,0,2,0,3.1c0,1,0.8,1.8,1.8,1.8c1,0,1.8-0.8,1.8-1.8c0-1,0-2,0-3.1c0-1-0.8-1.8-1.8-1.8
				C299,290,298.2,290.8,298.2,291.8L298.2,291.8z"/>
		</g>
		<g>
			<path class="st1" d="M194.3,214.9c-1.4-0.4-2.9-0.9-4.3-1.3c-2.2-0.6-3.2,2.8-0.9,3.4c1.4,0.4,2.9,0.9,4.3,1.3
				C195.5,219,196.5,215.6,194.3,214.9L194.3,214.9z"/>
			<path class="st1" d="M194.8,226.6c-2,0.1-3.9,0.2-5.9,0.2c-2.3,0.1-2.3,3.7,0,3.6c2-0.1,3.9-0.2,5.9-0.2
				C197.1,230.1,197.1,226.5,194.8,226.6L194.8,226.6z"/>
			<path class="st1" d="M193.6,238.3c-1.5,0.4-3.1,0.9-4.6,1.3c-2.2,0.6-1.3,4.1,0.9,3.4c1.5-0.4,3.1-0.9,4.6-1.3
				C196.7,241.1,195.8,237.7,193.6,238.3L193.6,238.3z"/>
			<path class="st1" d="M194.2,248c-2.4,1-4.8,2-7.1,3.1c-0.9,0.4-1.1,1.7-0.6,2.4c0.5,0.9,1.6,1,2.4,0.6c2.4-1,4.8-2,7.1-3.1
				c0.9-0.4,1.1-1.7,0.6-2.4C196.1,247.7,195.1,247.6,194.2,248L194.2,248z"/>
			<path class="st1" d="M196.1,258.5c-2.3,0.9-4.6,1.9-6.9,2.8c-0.9,0.4-1.5,1.2-1.2,2.2c0.2,0.8,1.3,1.6,2.2,1.2
				c2.3-0.9,4.6-1.9,6.9-2.8c0.9-0.4,1.5-1.2,1.2-2.2C198.1,258.9,197,258.1,196.1,258.5L196.1,258.5z"/>
			<path class="st1" d="M196.7,270.2c-1.8,0.8-3.6,1.7-5.4,2.5c-2.1,1-0.3,4.1,1.8,3.1c1.8-0.8,3.6-1.7,5.4-2.5
				C200.6,272.3,198.8,269.2,196.7,270.2L196.7,270.2z"/>
			<path class="st1" d="M198.4,281.6c-2.2,0.5-4.4,1.1-6.6,1.6c-2.2,0.5-1.3,4,0.9,3.4c2.2-0.5,4.4-1.1,6.6-1.6
				C201.6,284.5,200.6,281,198.4,281.6L198.4,281.6z"/>
			<path class="st1" d="M198.7,290.9c-2.1,0-4.1,0.5-6,1.4c-2,1-0.2,4.1,1.8,3.1c1.3-0.7,2.7-1,4.2-1
				C201,294.5,201,290.9,198.7,290.9L198.7,290.9z"/>
			<path class="st1" d="M211.4,223.6c-1.7-0.3-3.1-0.9-4.4-1.9c-0.8-0.6-2-0.1-2.4,0.6c-0.5,0.9-0.1,1.9,0.6,2.4
				c1.6,1.1,3.4,1.9,5.3,2.2c1,0.2,1.9-0.2,2.2-1.2C212.9,224.9,212.3,223.7,211.4,223.6L211.4,223.6z"/>
			<path class="st1" d="M210.4,233c-1.6-0.2-3.2-0.3-4.8-0.5c-1-0.1-1.8,0.9-1.8,1.8c0,1.1,0.8,1.7,1.8,1.8c1.6,0.2,3.2,0.3,4.8,0.5
				c1,0.1,1.8-0.9,1.8-1.8C212.2,233.8,211.4,233.1,210.4,233L210.4,233z"/>
			<path class="st1" d="M209.2,242.5c-1.8,0.6-3.6,1.2-5.4,1.8c-2.2,0.7-1.2,4.2,0.9,3.4c1.8-0.6,3.6-1.2,5.4-1.8
				C212.3,245.2,211.3,241.7,209.2,242.5L209.2,242.5z"/>
			<path class="st1" d="M210.2,252.4c-1.6,0.6-3.2,1.2-4.8,1.8c-0.9,0.3-1.5,1.2-1.2,2.2c0.2,0.9,1.3,1.6,2.2,1.2
				c1.6-0.6,3.2-1.2,4.8-1.8c0.9-0.3,1.5-1.2,1.2-2.2C212.1,252.8,211.1,252.1,210.2,252.4L210.2,252.4z"/>
			<path class="st1" d="M209.8,263.3c-1.1,0.5-2.2,1-3.3,1.5c-0.9,0.4-1.1,1.7-0.6,2.4c0.5,0.9,1.6,1,2.4,0.6c1.1-0.5,2.2-1,3.3-1.5
				c0.9-0.4,1.1-1.7,0.6-2.4C211.7,263,210.6,262.9,209.8,263.3L209.8,263.3z"/>
			<path class="st1" d="M214,271c-1.9-0.2-3.8-0.1-5.6,0.5c-2.2,0.7-1.3,4.1,0.9,3.4c1.5-0.5,3-0.6,4.6-0.4c1,0.1,1.8-0.9,1.8-1.8
				C215.8,271.7,214.9,271.1,214,271L214,271z"/>
			<path class="st1" d="M214.3,278.7c-1.9,0.8-3.7,1.5-5.6,2.3c-0.9,0.4-1.5,1.2-1.2,2.2c0.2,0.8,1.3,1.6,2.2,1.2
				c1.9-0.8,3.7-1.5,5.6-2.3c0.9-0.4,1.5-1.2,1.2-2.2C216.2,279.1,215.2,278.3,214.3,278.7L214.3,278.7z"/>
			<path class="st1" d="M213.2,288.4c-1.4,0.5-2.9,1-4.3,1.5c-0.9,0.3-1.5,1.2-1.2,2.2c0.2,0.9,1.3,1.6,2.2,1.2
				c1.4-0.5,2.9-1,4.3-1.5c0.9-0.3,1.5-1.2,1.2-2.2C215.2,288.7,214.2,288,213.2,288.4L213.2,288.4z"/>
			<path class="st1" d="M195.9,298.8c-1.3,0.3-2.6,0.7-3.8,1c-2.2,0.6-1.3,4,0.9,3.4c1.3-0.3,2.6-0.7,3.8-1
				C199.1,301.7,198.1,298.2,195.9,298.8L195.9,298.8z"/>
			<path class="st1" d="M210.4,298.6c-1.6,0.3-3.2,0.5-4.8,0.8c-1,0.2-1.5,1.3-1.2,2.2c0.3,1,1.2,1.4,2.2,1.2
				c1.6-0.3,3.2-0.5,4.8-0.8c1-0.2,1.5-1.3,1.2-2.2C212.3,298.8,211.4,298.4,210.4,298.6L210.4,298.6z"/>
			<path class="st1" d="M223.6,230.2c-1.6-0.4-3.2-0.8-4.8-1.3c-2.2-0.6-3.2,2.9-0.9,3.4c1.6,0.4,3.2,0.8,4.8,1.3
				C224.9,234.2,225.9,230.7,223.6,230.2L223.6,230.2z"/>
			<path class="st1" d="M221.9,240.1c-1.4,0.2-2.9,0.3-4.3,0.5c-1,0.1-1.8,0.7-1.8,1.8c0,0.9,0.8,1.9,1.8,1.8
				c1.4-0.2,2.9-0.3,4.3-0.5c1-0.1,1.8-0.7,1.8-1.8C223.7,241,222.8,240,221.9,240.1L221.9,240.1z"/>
			<path class="st1" d="M220.6,250.6c-1.9,0.2-3.6,0.8-5.2,1.8c-1.9,1.2-0.2,4.3,1.8,3.1c1-0.7,2.2-1.1,3.4-1.3
				c1-0.1,1.8-0.7,1.8-1.8C222.4,251.5,221.6,250.4,220.6,250.6L220.6,250.6z"/>
			<path class="st1" d="M222.4,261.6c-1.2,0.3-2.4,0.6-3.5,0.9c-2.2,0.5-1.3,4,0.9,3.4c1.2-0.3,2.4-0.6,3.5-0.9
				C225.6,264.5,224.7,261,222.4,261.6L222.4,261.6z"/>
			<path class="st1" d="M225.2,269.4c-1,0.1-2,0.2-3.1,0.3c-1,0.1-1.8,0.8-1.8,1.8c0,0.9,0.8,1.9,1.8,1.8c1-0.1,2-0.2,3.1-0.3
				c1-0.1,1.8-0.8,1.8-1.8C227,270.3,226.2,269.3,225.2,269.4L225.2,269.4z"/>
			<path class="st1" d="M226.8,278.4c-1.1,0.3-2.2,0.5-3.3,0.8c-0.9,0.2-1.5,1.3-1.2,2.2c0.3,1,1.3,1.5,2.2,1.2
				c1.1-0.3,2.2-0.5,3.3-0.8c0.9-0.2,1.5-1.3,1.2-2.2C228.7,278.7,227.7,278.2,226.8,278.4L226.8,278.4z"/>
			<path class="st1" d="M229.8,285c-2.1,0.4-4,1.4-5.6,2.8c-1.7,1.5,0.8,4.1,2.5,2.5c1.2-1,2.5-1.6,4.1-1.9c1-0.2,1.5-1.3,1.2-2.2
				C231.7,285.3,230.8,284.9,229.8,285L229.8,285z"/>
			<g>
				<path class="st1" d="M140.6,248.4c-2,0-3.9,0-5.9,0c-2.3,0-2.3,3.6,0,3.6c2,0,3.9,0,5.9,0C142.9,252,142.9,248.4,140.6,248.4
					L140.6,248.4z"/>
				<path class="st1" d="M138.6,262c-1.8-0.2-3.6-0.4-5.4-0.6c-1-0.1-1.8,0.9-1.8,1.8c0,1,0.8,1.7,1.8,1.8c1.8,0.2,3.6,0.4,5.4,0.6
					c1,0.1,1.8-0.9,1.8-1.8C140.3,262.8,139.5,262.1,138.6,262L138.6,262z"/>
				<path class="st1" d="M135.7,276.6c-1.4-0.3-2.9-0.6-4.3-0.8c-0.9-0.2-1.9,0.3-2.2,1.2c-0.2,0.9,0.3,2,1.2,2.2
					c1.4,0.3,2.9,0.6,4.3,0.8c0.9,0.2,1.9-0.3,2.2-1.2C137.2,278,136.7,276.8,135.7,276.6L135.7,276.6z"/>
				<path class="st1" d="M132.7,285.7c-1.8,0.1-3.6,0.2-5.4,0.3c-2.3,0.1-2.3,3.7,0,3.6c1.8-0.1,3.6-0.2,5.4-0.3
					C135,289.2,135,285.6,132.7,285.7L132.7,285.7z"/>
				<path class="st1" d="M130.1,297.9c-1.6,0-3.2,0-4.8,0c-2.3,0-2.3,3.6,0,3.6c1.6,0,3.2,0,4.8,0
					C132.4,301.5,132.4,297.9,130.1,297.9L130.1,297.9z"/>
				<path class="st1" d="M121.7,251.5c-2-0.3-3.9-0.5-5.9-0.8c-1-0.1-1.8,0.9-1.8,1.8c0,1.1,0.8,1.7,1.8,1.8c2,0.3,3.9,0.5,5.9,0.8
					c1,0.1,1.8-0.9,1.8-1.8C123.5,252.2,122.7,251.6,121.7,251.5L121.7,251.5z"/>
				<path class="st1" d="M120.4,264c-2.5,0.1-4.9,0.1-7.4,0.2c-2.3,0.1-2.3,3.6,0,3.6c2.5-0.1,4.9-0.1,7.4-0.2
					C122.7,267.5,122.7,263.9,120.4,264L120.4,264z"/>
				<path class="st1" d="M117.1,277.3c-1.9,0-3.7,0-5.6,0c-2.3,0-2.3,3.6,0,3.6c1.9,0,3.7,0,5.6,0
					C119.4,280.8,119.4,277.3,117.1,277.3L117.1,277.3z"/>
				<path class="st1" d="M113.1,286c-1.4,0.5-2.7,1-4.1,1.5c-0.9,0.3-1.5,1.2-1.2,2.2c0.2,0.9,1.3,1.6,2.2,1.2
					c1.4-0.5,2.7-1,4.1-1.5c0.9-0.3,1.5-1.2,1.2-2.2C115,286.4,114,285.7,113.1,286L113.1,286z"/>
				<path class="st1" d="M114.4,293.7c-1.9,0.5-3.8,1-5.6,1.4c-2.2,0.6-1.3,4,0.9,3.4c1.9-0.5,3.8-1,5.6-1.4
					C117.5,296.6,116.6,293.1,114.4,293.7L114.4,293.7z"/>
				<path class="st1" d="M102.3,249.9c-1.5-0.1-3.1-0.2-4.6-0.2c-2.3-0.1-2.3,3.5,0,3.6c1.5,0.1,3.1,0.2,4.6,0.2
					C104.6,253.6,104.6,250,102.3,249.9L102.3,249.9z"/>
				<path class="st1" d="M100.8,261.2c-2.3,0.1-4.6,0.2-6.9,0.2c-2.3,0.1-2.3,3.7,0,3.6c2.3-0.1,4.6-0.2,6.9-0.2
					C103.1,264.7,103.1,261.2,100.8,261.2L100.8,261.2z"/>
				<path class="st1" d="M98.8,272.4c-2.1,0.2-4.3,0.5-6.4,0.7c-1,0.1-1.8,0.7-1.8,1.8c0,0.9,0.8,1.9,1.8,1.8
					c2.1-0.2,4.3-0.5,6.4-0.7c1-0.1,1.8-0.7,1.8-1.8C100.6,273.3,99.7,272.3,98.8,272.4L98.8,272.4z"/>
				<path class="st1" d="M96.2,284.7c-1.4,0.4-2.7,0.9-4.1,1.3c-2.2,0.7-1.3,4.1,0.9,3.4c1.4-0.4,2.7-0.9,4.1-1.3
					C99.4,287.5,98.5,284,96.2,284.7L96.2,284.7z"/>
				<path class="st1" d="M97.5,295.6c-2,0-4.1,0-6.1,0c-2.3,0-2.3,3.6,0,3.6c2,0,4.1,0,6.1,0C99.8,299.2,99.8,295.6,97.5,295.6
					L97.5,295.6z"/>
				<path class="st1" d="M84.4,252.3c-1.1-0.3-2.2-0.7-3.3-1c-0.9-0.3-1.9,0.3-2.2,1.2c-0.3,1,0.3,1.9,1.2,2.2
					c1.1,0.3,2.2,0.7,3.3,1c0.9,0.3,1.9-0.3,2.2-1.2C85.9,253.6,85.4,252.6,84.4,252.3L84.4,252.3z"/>
				<path class="st1" d="M84.2,263.4c-1.3,0-2.5,0.1-3.8,0.1c-2.3,0.1-2.3,3.6,0,3.6c1.3,0,2.5-0.1,3.8-0.1
					C86.5,266.9,86.5,263.3,84.2,263.4L84.2,263.4z"/>
				<path class="st1" d="M83,272c-1.3,0.2-2.5,0.4-3.8,0.5c-1,0.1-1.5,1.4-1.2,2.2c0.3,1,1.2,1.4,2.2,1.2c1.3-0.2,2.5-0.4,3.8-0.5
					c1-0.1,1.5-1.4,1.2-2.2C84.9,272.2,83.9,271.9,83,272L83,272z"/>
				<path class="st1" d="M83.8,283c-1.2,0.3-2.4,0.6-3.6,0.9c-2.2,0.6-1.3,4,0.9,3.4c1.2-0.3,2.4-0.6,3.6-0.9
					C86.9,285.9,86,282.5,83.8,283L83.8,283z"/>
				<path class="st1" d="M84,291.8c-1,0-2,0-3.1,0c-1,0-1.8,0.8-1.8,1.8c0,1,0.8,1.8,1.8,1.8c1,0,2,0,3.1,0c1,0,1.8-0.8,1.8-1.8
					C85.8,292.6,84.9,291.8,84,291.8L84,291.8z"/>
			</g>
		</g>
	</g>
	<g>
		<path class="st2" d="M262.1,170c3.4,16.1,5,32.6,4.8,49.1c-0.2,16.5-2.2,32.9-5.9,48.9c-2.1,9.1-4.8,18-8,26.8
			c-0.4,1-0.3,2,0.6,2.6c0.8,0.5,2,0.5,2.7-0.3c0.6-0.8,1.3-1.6,1.9-2.4c1.6-2-1.3-4.8-3-2.8c-0.6,0.8-1.3,1.6-1.9,2.4
			c1.1,0.8,2.2,1.6,3.3,2.3c5.9-15.9,10-32.3,12.3-49.1c2.3-16.8,2.7-33.8,1.3-50.6c-0.8-9.5-2.2-18.9-4.2-28.3
			c-0.2-1.1-1.6-1.6-2.6-1.3C262.2,167.8,261.8,168.9,262.1,170L262.1,170z"/>
		<path class="st3" d="M296.3,100.5c0.8,13.7-13.7,32-18.1,32c-4.4,0,15-29.1,12.4-36.4s-14.2-15.8-14.2-15.8
			c1.8,4-3.1,24.3-8.5,25.5c-5.4,1.2,4-11.9,3.6-23.8c-0.4-11.9-30-23-30-23s-1.7,10.8-11.1,16.9c-9.3,6.2-27.4,16.8-23,30.9
			c3.4,10.9,34.2,13.8,31.6,14.9c-2.6,1-29.6,1.4-35.5-11.2c0,0-9.5,29.8,5.9,38.1c15.4,8.3,33.6,8,31.4,11
			c-2.2,3-29.7-0.5-39.1-14.5c0,0-0.9,47.1,28.3,53.8s37.8-21.4,37.8-21.4c25.4,15.2,42.8,2.2,48.1-18.1
			C320.5,141.6,296.3,100.5,296.3,100.5z M222.9,135.2c-1,0.3-5.1,1-6.4,0.7c-1.8-0.3-2-2-0.7-3c1.9-1.4,3.9-2.6,5.4-1.2
			C222.8,133,223.9,134.9,222.9,135.2z M246.7,169.8c-4.8,1.4-16,3.5-18.8,2.1c-2.1-1.1-1.8-3.7-1.5-4.2c1.4-2.4,3.8-3.2,8.8-2.5
			c5,0.8,13.2-2.7,14.4-1.4C250.8,165.2,251.5,168.5,246.7,169.8z M246.3,134c-1,1.8-9,2.6-11.3,2.5c-3.3-0.1-8.4,2.1-7.5-2.3
			c0.6-2.6,5.9-3.1,10.4-2.3C242.4,132.6,247.3,132.2,246.3,134z M255.1,95.2c-0.2-1.6,0.3-3.3,1.9-5.5c3.2-4.2,6.2-6.4,5.7-2.4
			c-0.5,4-1,9.2-2.3,10.2c0,0,0,0,0,0C258.3,99,255.4,97.7,255.1,95.2z M284.6,151.2c-9.7,5.1-16.6,10-15.1,3.3c0,0,0.3-3.3,5.9-5.6
			c5.6-2.3,6.6-5.7,10.3-6.9C289.4,141,294.3,146.1,284.6,151.2z M298.6,141c-4.3,1.2-6,2.6-6.9,0.8c-0.5-1.1-0.3-2.4,0.4-3.4
			c1.5-1.9,3.9-2.9,5.3-3.3C299.3,134.6,304,139.5,298.6,141z"/>
		<g>
			<g>
				<path class="st2" d="M226.3,168.4c-2-0.1-4-0.3-5.9-0.4c-0.9-0.1-1,1.4-0.1,1.4c2,0.2,4.1,0.3,6.1,0.4
					C226.3,169.3,226.2,168.8,226.3,168.4z"/>
				<path class="st2" d="M261.5,160.2c0.1-0.1,0.1-0.1,0.2-0.2c0.1-0.1,0.1-0.1,0.1-0.2c2.6-1,5.1-2,7.6-3.2c-0.1-0.4-0.1-0.9,0-1.6
					c-2.8,1.3-5.6,2.5-8.4,3.5c-0.8-2.6-1.6-5.2-2.3-7.9c-1.6-6.1-2.7-12.2-3.7-18.3c11.5-5.5,20.3-15.8,24.1-28
					c0.3-0.9-1.1-1.3-1.4-0.4c-3.6,11.7-12,21.5-22.9,26.9c-1.2-7.7-2-15.4-3-23.2c2.5-2.9,4.5-6.2,6-9.7c-0.5-0.1-0.9-0.3-1.3-0.5
					c-1.3,2.9-2.9,5.7-4.9,8.3c-0.8-6.4-1.6-12.8-2.6-19.2c-1.5-9.3-3.7-18.4-6.8-27.3c-0.4-0.2-0.7-0.3-0.7-0.3s-0.1,0.6-0.4,1.6
					c5.2,14.7,7.3,30.2,9.1,45.7c-6.2-2.2-11.7-5.9-16.2-10.8c-0.6-0.7-1.7,0.3-1.1,1c4.7,5.2,10.7,9.1,17.3,11.4c0,0,0.1,0,0.1,0
					c0.3,2.4,0.6,4.8,0.8,7.2c1.2,10.1,2.5,20.2,4.7,30.1c-11,1.5-22.2,0.1-32.3-4.2c-0.9-0.4-1.3,1-0.4,1.4
					c10.4,4.4,21.9,5.8,33.1,4.3c0,0.1,0,0.1,0,0.2c1,4.4,2.2,8.7,3.6,12.9c-2.8,2.7-6,4.6-9.4,5.9c0.1,0.5,0,1.1-0.2,1.6
					c3.7-1.3,7.1-3.3,10.1-6c1.8,5.6,3.8,11.1,5.6,16.7c0.2,0.7,0.5,1.5,0.7,2.2c0.4-1,0.7-1.7,0.8-2.1
					C265.6,172.1,263.4,166.2,261.5,160.2z"/>
				<path class="st2" d="M291.7,141.8c-0.1-0.2-0.2-0.5-0.2-0.7c-0.7,0.6-1.5,1.2-2.3,1.8c0.4,0.3,0.7,0.7,0.8,1.2
					c0.7-0.5,1.4-1.1,2.1-1.7C292,142.3,291.9,142.1,291.7,141.8z"/>
				<path class="st2" d="M259.8,82.2c0,1.5-0.1,3.1-0.3,4.6c0.6-0.6,1.1-1,1.6-1.3c0.1-1.1,0.1-2.1,0.1-3.2
					C261.2,81.4,259.8,81.3,259.8,82.2z"/>
			</g>
		</g>
	</g>
	<g>
		<path class="st2" d="M336.4,215c2.3,10.9,3.3,22,3.2,33.1c-0.1,11.1-1.5,22.2-4,33c-1.4,6.1-3.2,12.2-5.4,18.1
			c-0.2,0.6-0.2,1.3,0.4,1.8c0.5,0.4,1.4,0.4,1.8-0.2c0.4-0.5,0.9-1.1,1.3-1.6c1.1-1.4-0.9-3.2-2-1.9c-0.4,0.5-0.9,1.1-1.3,1.6
			c0.7,0.5,1.5,1,2.2,1.6c4-10.7,6.8-21.8,8.3-33.1c1.5-11.3,1.8-22.7,0.9-34.1c-0.5-6.4-1.5-12.8-2.8-19.1
			c-0.2-0.7-1.1-1.1-1.7-0.9C336.5,213.5,336.3,214.3,336.4,215L336.4,215z"/>
		<path class="st3" d="M359.5,168.2c0.6,9.2-9.2,21.6-12.2,21.6c-3,0,10.1-19.6,8.4-24.6c-1.7-4.9-9.6-10.6-9.6-10.6
			c1.2,2.7-2.1,16.4-5.7,17.2c-3.6,0.8,2.7-8,2.4-16c-0.3-8-20.2-15.5-20.2-15.5s-1.2,7.3-7.5,11.4c-6.3,4.2-18.5,11.3-15.5,20.8
			c2.3,7.3,23,9.3,21.3,10c-1.8,0.7-20,0.9-24-7.5c0,0-6.4,20.1,4,25.7c10.4,5.6,22.6,5.4,21.2,7.4c-1.5,2-20-0.3-26.3-9.8
			c0,0-0.6,31.7,19.1,36.3c19.7,4.6,25.5-14.4,25.5-14.4c17.1,10.2,28.8,1.5,32.4-12.2C375.8,195.9,359.5,168.2,359.5,168.2z
			 M310,191.5c-0.7,0.2-3.4,0.7-4.3,0.5c-1.2-0.2-1.4-1.4-0.5-2.1c1.3-1,2.6-1.7,3.7-0.8C310,190.1,310.7,191.3,310,191.5z
			 M326.1,214.9c-3.3,0.9-10.8,2.4-12.6,1.4c-1.4-0.7-1.2-2.5-1-2.8c0.9-1.6,2.6-2.2,6-1.7c3.4,0.5,8.9-1.8,9.7-0.9
			C328.8,211.8,329.3,214,326.1,214.9z M325.8,190.7c-0.7,1.2-6,1.7-7.6,1.7c-2.2-0.1-5.7,1.4-5.1-1.5c0.4-1.8,4-2.1,7-1.6
			C323.2,189.8,326.4,189.5,325.8,190.7z M331.7,164.6c-0.1-1.1,0.2-2.2,1.3-3.7c2.2-2.8,4.2-4.3,3.8-1.6c-0.3,2.7-0.7,6.2-1.5,6.8
			c0,0,0,0,0,0C333.9,167.1,331.9,166.3,331.7,164.6z M351.6,202.4c-6.5,3.4-11.2,6.8-10.2,2.2c0,0,0.2-2.2,3.9-3.8
			c3.7-1.5,4.4-3.9,6.9-4.6C354.9,195.5,358.1,198.9,351.6,202.4z M361,195.5c-2.9,0.8-4,1.8-4.6,0.5c-0.3-0.8-0.2-1.6,0.3-2.3
			c1-1.3,2.6-2,3.5-2.2C361.5,191.2,364.7,194.5,361,195.5z"/>
		<g>
			<g>
				<path class="st2" d="M312.3,213.9c-1.4-0.1-2.7-0.2-4-0.3c-0.6-0.1-0.7,0.9,0,1c1.4,0.1,2.7,0.2,4.1,0.3
					C312.3,214.6,312.3,214.2,312.3,213.9z"/>
				<path class="st2" d="M336,208.4c0,0,0.1-0.1,0.1-0.1c0,0,0.1-0.1,0.1-0.1c1.7-0.6,3.4-1.4,5.1-2.1c-0.1-0.3,0-0.6,0-1.1
					c-1.9,0.9-3.7,1.7-5.7,2.4c-0.6-1.8-1.1-3.5-1.5-5.3c-1.1-4.1-1.8-8.2-2.5-12.4c7.7-3.7,13.7-10.7,16.2-18.9
					c0.2-0.6-0.7-0.9-0.9-0.3c-2.4,7.9-8.1,14.5-15.5,18.2c-0.8-5.2-1.4-10.4-2-15.6c1.7-2,3-4.2,4.1-6.5c-0.3-0.1-0.6-0.2-0.9-0.4
					c-0.9,2-2,3.9-3.3,5.6c-0.5-4.3-1.1-8.7-1.8-13c-1-6.2-2.5-12.4-4.6-18.4c-0.3-0.1-0.4-0.2-0.4-0.2s-0.1,0.4-0.3,1.1
					c3.5,9.9,4.9,20.4,6.2,30.8c-4.2-1.5-7.9-4-10.9-7.3c-0.4-0.5-1.1,0.2-0.7,0.7c3.2,3.5,7.2,6.1,11.7,7.7c0,0,0,0,0.1,0
					c0.2,1.6,0.4,3.2,0.6,4.8c0.8,6.8,1.7,13.6,3.1,20.3c-7.4,1-14.9,0-21.8-2.8c-0.6-0.2-0.9,0.7-0.3,0.9c7,3,14.8,3.9,22.3,2.9
					c0,0,0,0.1,0,0.1c0.7,2.9,1.5,5.8,2.4,8.7c-1.9,1.8-4,3.1-6.3,4c0,0.4,0,0.7-0.2,1.1c2.5-0.9,4.8-2.2,6.8-4.1
					c1.2,3.8,2.5,7.5,3.8,11.2c0.2,0.5,0.3,1,0.5,1.5c0.3-0.6,0.5-1.1,0.6-1.4C338.8,216.4,337.3,212.4,336,208.4z"/>
				<path class="st2" d="M356.4,196c-0.1-0.2-0.1-0.3-0.2-0.5c-0.5,0.4-1,0.8-1.5,1.2c0.2,0.2,0.4,0.5,0.6,0.8
					c0.5-0.4,0.9-0.7,1.4-1.1C356.6,196.3,356.5,196.2,356.4,196z"/>
				<path class="st2" d="M334.9,155.9c0,1-0.1,2.1-0.2,3.1c0.4-0.4,0.8-0.7,1.1-0.9c0.1-0.7,0.1-1.4,0.1-2.2
					C335.8,155.3,334.9,155.2,334.9,155.9z"/>
			</g>
		</g>
	</g>
	<path class="st3" d="M222.6,233.9c-7.7,1.4-15.6,8.9-18.3,11.7c1.4-4.9,2.4-9.7,3.2-14.6c24-9.5,41.9-29.6,41.9-29.6
		s-4.8,3.7-19.4,10.8c-12.9,6.3-20,14.7-22.4,17.9c0.7-4.5,1.1-9,1.2-13.5c0.1-1.6,0.1-3.2,0-4.8c5.2-5.9,17.4-7.3,27.3-12.9
		c7.4-4.3,10.5-18.6,10.5-18.6s-4.1,12.5-16.9,15.6c-10.3,2.4-18.1,12.1-20.9,15.9c-0.1-5.1-0.5-10.1-1.3-15c2.1-1.2,9-5.1,15.6-9.7
		c7.7-5.5,22.7-20.8,22.7-20.8s-7.9,3-18,9.4c-8.1,5.2-17.9,17.6-20.3,20.8c-0.7-4.1-1.6-8.1-2.7-12c2-1.4,8.6-6.2,15.3-11.4
		c7.9-6.3,23.3-27.7,23.3-27.7s-5.9,4.7-18.6,14.5c-10.9,8.5-18.3,20.9-20.1,24.2c-1.1-3.5-2.3-7-3.8-10.4c0.4-2.9,0.4-11.4-8-25.8
		c-9.9-17-14.4-21.6-14.4-21.6s6.4,35,21,47.7c1.3,3.1,2.5,6.2,3.4,9.3c-3.4-2.2-15.7-9.7-30.1-14c-17-5.1-22.3-6.1-22.3-6.1
		s25.8,14.5,36.7,17.3c8.6,2.2,14,3,15.8,3.3c1.3,4.2,2.3,8.4,2.9,12.5c-3.3-2.1-16.2-9.6-28.1-9.5c-13.8,0.1-23.1-6.3-23.1-6.3
		s7.3,8.2,25.3,11c14.9,2.3,23.5,4.4,26,5.1c0.9,5.4,1.3,10.7,1.3,15.9c-2.7-2.1-11.4-8-22.7-9.5c-13.7-1.8-29-8.6-29-8.6
		s16.9,13,33.4,16.9c11.9,2.8,16.6,2.6,18.3,2.2c0,5.9-0.5,11.6-1.3,17c-2.1-2.1-9.3-8.5-22.1-12.6c-15.4-4.9-27.4-8.7-27.4-8.7
		s33.2,21.7,49.4,22c-0.8,5.4-2,10.4-3.3,15.1c-1.6-2-6.9-7.8-17-10.2c-12.2-2.9-16.7-6.2-22-11.2c0,0,9.2,12.2,17.9,14.9
		c10.1,3.2,17.3,3.5,21,6.6c-0.9,3.1-1.8,6.1-2.8,8.9c-7.9,22.2-19.3,37.2-19.5,37.4c-0.2,0.3-0.2,0.7,0.1,1c0,0,0.1,0.1,0.1,0.1
		c0.3,0.1,0.6,0.1,0.8-0.2c0.1-0.2,11.6-15.3,19.6-37.7c1.1-3,2.1-6.1,2.9-9.1c3-1.1,14.1-5,21.5-7.1c8.7-2.4,20.3-20.9,20.3-20.9
		S232.1,232.2,222.6,233.9z"/>
	<g>
		<path class="st4" d="M176.6,166.5c-6-5.3-9.8-7.9-4-16.2c5.8-8.3-0.5-12.2-6.5-17.5c-6-5.3-8.2-13.8-2.6-29.3
			c5.6-15.4-3.9-17.9-9.4-24.5c-5.4-6.6-6.3-8.4-4.2-20.4c2.1-12-6.9-16-16.2-19.8c-9.4-3.9-19.3-37.6-19.3-37.6
			s-10.3,10.7-7.3,29.7c3,18.9-10.6,9.1-13,26.6c-2.4,17.5,11.8,21,2.5,30.4c-9.4,9.5-14.1,19.3-4.4,37.2c9.6,17.9-7.6,24-3.7,38.2
			c3.9,14.2,19.7,8.9,17.1,21.9s-6.8,18.2,5,24.3c11.8,6.1,2,20.2,15.6,30.5c0.5,0.4,1,0.8,1.6,1.2c16.1,10.7,38.2,3.8,44.9-14.3
			c1.5-4.1,2-8.1,0.5-11.2c-5.9-12.5-4.3-13,6-19.8C189.5,189,182.6,171.8,176.6,166.5z"/>
		<path class="st5" d="M148.2,96.6c-5.5,2.8-10.7,6.3-15.2,10.4c-1.1-7.7-2.3-15.3-3.8-23c-0.5-2.7-1.1-5.3-1.7-8
			c0.1-0.1,0.1-0.2,0.1-0.3c1.4-5.6,3.7-10.9,6.9-15.7c0.7-1-0.8-2.1-1.5-1.1c-2.8,4.1-4.9,8.6-6.4,13.3
			c-3.7-16.8-8.2-33.4-12.7-50.1c-0.3-1.1-2.2-0.9-1.8,0.3c4.3,15.9,8.6,31.8,12.2,47.9c-4.2-3-8.9-5.4-13.8-7.1
			c-1.1-0.4-1.8,1.4-0.7,1.7c5.4,1.8,10.4,4.5,14.9,8c0.1,0.1,0.1,0.1,0.2,0.1c0.3,1.3,0.6,2.6,0.9,3.9c2.2,10.3,4,20.7,5.5,31.1
			c-6.2-2.8-12.6-5-19.1-6.7c-1.2-0.3-1.8,1.4-0.7,1.7c6.9,1.8,13.6,4.2,20.1,7.2c1,7.3,1.8,14.6,2.5,22c0.8,8,1.4,16,2,24
			c-5.8-3.3-11.8-6.3-18-8.8c-1.1-0.5-1.8,1.3-0.7,1.7c6.3,2.6,12.5,5.6,18.4,9.1c0.1,0.1,0.3,0.1,0.4,0.1
			c0.7,9.8,1.5,19.6,2.4,29.4c0.2,1.9,0.4,3.7,0.5,5.6c-4.8-2.3-9.8-4-15-5.1c-1.2-0.2-1.4,1.6-0.2,1.9c5.3,1.1,10.3,2.9,15.2,5.3
			c0.1,0,0.2,0.1,0.3,0.1c1.7,15.5,4,30.9,7.3,46.1c4,18.4,8.7,37.7,3.6,56.4c-0.3,1.2,1.4,1.8,1.7,0.7c4.4-16.3,1.7-33.1-1.7-49.2
			c-1.8-8.6-3.8-17.1-5.2-25.7c-1.6-9.3-2.8-18.6-3.8-27.9c0,0,0-0.1,0-0.1c5.3-3.8,11-7,16.9-9.7c1.1-0.5,0.3-2.2-0.8-1.7
			c-5.7,2.6-11.2,5.8-16.4,9.3c-1.2-12.1-2.2-24.2-3.1-36.3c5.7-3.9,11.4-7.9,17.1-11.8c1-0.7-0.2-2.1-1.2-1.4
			c-5.4,3.7-10.8,7.4-16.1,11.1c-1.2-15.4-2.5-30.7-4.5-46c4.7-4.4,9.9-8.1,15.7-11C150,97.8,149.3,96.1,148.2,96.6z"/>
		<g>
			<path class="st5" d="M107.7,56.2c0.8,0.3,1.6,0.7,2.4,1c0.7,0.3,1.5,0.2,1.9-0.5c0.3-0.6,0.2-1.6-0.5-1.9c-0.8-0.3-1.6-0.7-2.4-1
				c-0.7-0.3-1.5-0.2-1.9,0.5C106.8,54.9,107,55.9,107.7,56.2L107.7,56.2z"/>
			<path class="st5" d="M111.2,49.4c0.4,0.8,0.8,1.6,1.2,2.4c0.3,0.7,1.3,0.9,1.9,0.5c0.7-0.4,0.8-1.2,0.5-1.9
				c-0.4-0.8-0.8-1.6-1.2-2.4c-0.3-0.7-1.3-0.9-1.9-0.5C111,47.9,110.9,48.7,111.2,49.4L111.2,49.4z"/>
			<path class="st5" d="M102,61.7c0.9,0.4,1.8,0.8,2.7,1.2c0.7,0.3,1.5,0.2,1.9-0.5c0.3-0.6,0.2-1.6-0.5-1.9
				c-0.9-0.4-1.8-0.8-2.7-1.2c-0.7-0.3-1.5-0.2-1.9,0.5C101.2,60.3,101.3,61.4,102,61.7L102,61.7z"/>
			<path class="st5" d="M127.7,50.8c0.1,0.7,0.2,1.5,0.3,2.2c0.1,0.7,1.1,1.2,1.7,1c0.8-0.3,1.1-0.9,1-1.7c-0.1-0.7-0.2-1.5-0.3-2.2
				c-0.1-0.7-1.1-1.2-1.7-1C127.9,49.3,127.6,50,127.7,50.8L127.7,50.8z"/>
			<path class="st5" d="M137.1,52.1c0,0.2-0.1,0.4-0.1,0.6c0,0.1-0.1,0.2-0.1,0.3c0-0.1,0-0.1,0,0c-0.1,0.2-0.1,0.3-0.2,0.4
				c0,0-0.3,0.5-0.2,0.3c-0.5,0.6-0.6,1.4,0,2c0.5,0.5,1.5,0.6,2,0c0.7-0.8,1.2-1.8,1.4-2.8c0.1-0.7-0.2-1.5-1-1.7
				C138.1,50.9,137.3,51.3,137.1,52.1L137.1,52.1z"/>
			<path class="st5" d="M140.8,59.4c-0.9,0.4-1.7,0.8-2.6,1.2c-0.7,0.3-0.9,1.3-0.5,1.9c0.4,0.7,1.2,0.8,1.9,0.5
				c0.9-0.4,1.7-0.8,2.6-1.2c0.7-0.3,0.9-1.3,0.5-1.9C142.3,59.2,141.5,59,140.8,59.4L140.8,59.4z"/>
			<path class="st5" d="M102.6,109.6c0.8-0.5,1.7-0.9,2.5-1.4c0.7-0.4,0.9-1.3,0.5-1.9c-0.4-0.7-1.2-0.9-1.9-0.5
				c-0.8,0.5-1.7,0.9-2.5,1.4c-0.7,0.4-0.9,1.3-0.5,1.9C101.1,109.8,101.9,110,102.6,109.6L102.6,109.6z"/>
			<path class="st5" d="M101.7,100.5c1,0.3,1.9,0.6,2.9,0.8c1.7,0.5,2.5-2.2,0.7-2.7c-1-0.3-1.9-0.6-2.9-0.8
				C100.7,97.3,100,100,101.7,100.5L101.7,100.5z"/>
			<path class="st5" d="M107.3,92.6c0.2,0.9,0.7,1.8,1.4,2.5c0.5,0.5,1.5,0.6,2,0c0.5-0.6,0.5-1.4,0-2c0,0-0.4-0.4-0.2-0.2
				c-0.1-0.1-0.2-0.3-0.3-0.4c0-0.1-0.1-0.1-0.1-0.2c0.1,0.2,0.1,0.2,0,0c0-0.2-0.1-0.3-0.1-0.5c-0.2-0.7-1-1.2-1.7-1
				C107.6,91.1,107.2,91.8,107.3,92.6L107.3,92.6z"/>
			<path class="st5" d="M115,92.1c0.1,0.6,0.2,1.2,0.3,1.9c0.1,0.7,1,1.2,1.7,1c0.8-0.3,1.1-1,1-1.7c-0.1-0.6-0.2-1.2-0.3-1.9
				c-0.1-0.7-1-1.2-1.7-1C115.2,90.6,114.9,91.3,115,92.1L115,92.1z"/>
			<path class="st5" d="M142.7,92.6c0.3,0.6,0.6,1.1,0.9,1.7c0.3,0.7,1.3,0.9,1.9,0.5c0.7-0.4,0.9-1.2,0.5-1.9
				c-0.3-0.6-0.6-1.1-0.9-1.7c-0.3-0.7-1.3-0.9-1.9-0.5C142.5,91.1,142.3,91.9,142.7,92.6L142.7,92.6z"/>
			<path class="st5" d="M152.2,90.3c-0.5,0.7-0.9,1.4-1.4,2c-0.4,0.6-0.1,1.6,0.5,1.9c0.7,0.4,1.5,0.1,1.9-0.5
				c0.5-0.7,0.9-1.4,1.4-2c0.4-0.6,0.1-1.6-0.5-1.9C153.4,89.5,152.6,89.7,152.2,90.3L152.2,90.3z"/>
			<path class="st5" d="M157,98.1c-1-0.1-1.9-0.1-2.9-0.2c-0.8,0-1.4,0.7-1.4,1.4c0,0.8,0.6,1.4,1.4,1.4c1,0.1,1.9,0.1,2.9,0.2
				c0.8,0,1.4-0.7,1.4-1.4C158.4,98.7,157.8,98.2,157,98.1L157,98.1z"/>
			<path class="st5" d="M150.3,105.9c0.9,0.4,1.8,0.8,2.7,1.2c0.7,0.3,1.5,0.2,1.9-0.5c0.3-0.6,0.2-1.6-0.5-1.9
				c-0.9-0.4-1.8-0.8-2.7-1.2c-0.7-0.3-1.5-0.2-1.9,0.5C149.5,104.5,149.6,105.6,150.3,105.9L150.3,105.9z"/>
			<path class="st5" d="M114.1,155c-0.9,0.5-1.8,0.9-2.7,1.4c-0.7,0.3-0.9,1.3-0.5,1.9c0.4,0.7,1.2,0.8,1.9,0.5
				c0.9-0.5,1.8-0.9,2.7-1.4c0.7-0.3,0.9-1.3,0.5-1.9C115.6,154.8,114.8,154.7,114.1,155L114.1,155z"/>
			<path class="st5" d="M107.1,148.6c-1.6,0.3-3.2,0.7-4.8,1c-1.8,0.4-1,3.1,0.7,2.7c1.6-0.3,3.2-0.7,4.8-1
				C109.7,150.9,108.9,148.2,107.1,148.6L107.1,148.6z"/>
			<path class="st5" d="M105.9,142.5c1.2,0.6,2.4,1.2,3.6,1.8c1.6,0.8,3-1.6,1.4-2.4c-1.2-0.6-2.4-1.2-3.6-1.8
				C105.7,139.3,104.3,141.7,105.9,142.5L105.9,142.5z"/>
			<path class="st5" d="M113.9,135.6c0.3,0.6,0.7,1.2,1,1.9c0.4,0.6,1.3,0.9,1.9,0.5c0.7-0.4,0.9-1.2,0.5-1.9
				c-0.3-0.6-0.7-1.2-1-1.9c-0.4-0.6-1.3-0.9-1.9-0.5C113.8,134.1,113.6,134.9,113.9,135.6L113.9,135.6z"/>
			<path class="st5" d="M123.5,138.5c0,1.1,0,2.2,0,3.2c0,1.8,2.8,1.8,2.8,0c0-1.1,0-2.2,0-3.2C126.3,136.7,123.5,136.7,123.5,138.5
				L123.5,138.5z"/>
			<path class="st5" d="M145.1,140.6c0.3,0.9,0.6,1.7,0.8,2.6c0.2,0.7,1,1.2,1.7,1c0.7-0.2,1.2-1,1-1.7c-0.3-0.9-0.6-1.7-0.8-2.6
				c-0.2-0.7-1-1.2-1.7-1C145.3,139,144.8,139.9,145.1,140.6L145.1,140.6z"/>
			<path class="st5" d="M153.6,131.7c0,1.5,0,2.9,0,4.4c0,1.8,2.8,1.8,2.8,0c0-1.5,0-2.9,0-4.4C156.4,129.9,153.6,129.9,153.6,131.7
				L153.6,131.7z"/>
			<path class="st5" d="M162.4,139.5c-1.4,0.7-2.7,1.4-4.1,2c-1.6,0.8-0.2,3.2,1.4,2.4c1.4-0.7,2.7-1.4,4.1-2
				C165.5,141.1,164,138.7,162.4,139.5L162.4,139.5z"/>
			<path class="st5" d="M164.8,149.8c-1.4,0-2.7,0-4.1,0c-1.8,0-1.8,2.8,0,2.8c1.4,0,2.7,0,4.1,0
				C166.6,152.7,166.6,149.8,164.8,149.8L164.8,149.8z"/>
			<path class="st5" d="M160.8,157.6c-1.9-0.7-3.9-1-6-1.1c-1.8-0.1-1.8,2.7,0,2.8c1.8,0.1,3.5,0.4,5.2,1
				C161.7,160.8,162.5,158.1,160.8,157.6L160.8,157.6z"/>
			<path class="st5" d="M122.1,197.8c-1,1-2.1,2-3.1,3c-1.3,1.3,0.7,3.2,2,2c1-1,2.1-2,3.1-3C125.3,198.5,123.4,196.5,122.1,197.8
				L122.1,197.8z"/>
			<path class="st5" d="M114.9,196.5c1.2-0.2,2.4-0.5,3.6-0.7c0.7-0.2,1.2-1,1-1.7c-0.2-0.8-1-1.1-1.7-1c-1.2,0.2-2.4,0.5-3.6,0.7
				c-0.7,0.2-1.2,1-1,1.7C113.4,196.3,114.1,196.7,114.9,196.5L114.9,196.5z"/>
			<path class="st5" d="M111.1,187c1.1,0,2.3,0,3.4,0c1.8,0,1.8-2.8,0-2.8c-1.1,0-2.3,0-3.4,0C109.3,184.2,109.3,187,111.1,187
				L111.1,187z"/>
			<path class="st5" d="M119.6,178.6c0.7,0.7,1.4,1.5,2,2.2c0.5,0.5,1.5,0.5,2,0c0.5-0.6,0.5-1.4,0-2c-0.7-0.7-1.4-1.5-2-2.2
				c-0.5-0.5-1.5-0.5-2,0C119.1,177.2,119.1,178,119.6,178.6L119.6,178.6z"/>
			<path class="st5" d="M128.1,181.2c0.2,0.9,0.3,1.7,0.5,2.6c0.1,0.7,1,1.2,1.7,1c0.8-0.2,1.1-1,1-1.7c-0.2-0.9-0.3-1.7-0.5-2.6
				c-0.1-0.7-1-1.2-1.7-1C128.3,179.7,127.9,180.5,128.1,181.2L128.1,181.2z"/>
			<path class="st5" d="M147.6,179.6c-0.3,1.1-0.6,2.2-0.9,3.2c-0.5,1.7,2.2,2.5,2.7,0.7c0.3-1.1,0.6-2.2,0.9-3.2
				C150.8,178.6,148.1,177.9,147.6,179.6L147.6,179.6z"/>
			<path class="st5" d="M155.5,176c-0.2,1.1-0.5,2.2-1,3.2c-0.8,1.6,1.6,3,2.4,1.4c0.6-1.2,1.1-2.5,1.3-3.9c0.1-0.7-0.2-1.5-1-1.7
				C156.5,174.9,155.6,175.3,155.5,176L155.5,176z"/>
			<path class="st5" d="M165.6,177.5c-1.1,1-2.4,1.8-3.8,2.4c-0.7,0.3-0.9,1.3-0.5,1.9c0.4,0.7,1.2,0.8,1.9,0.5
				c1.6-0.7,3.1-1.7,4.4-2.9C168.9,178.3,166.9,176.3,165.6,177.5L165.6,177.5z"/>
			<path class="st5" d="M168.7,185.4c-1.6,0.2-3.2,0.4-4.8,0.7c-0.8,0.1-1.2,1.1-1,1.7c0.2,0.8,1,1.1,1.7,1c1.6-0.2,3.2-0.4,4.8-0.7
				c0.8-0.1,1.2-1.1,1-1.7C170.2,185.6,169.4,185.3,168.7,185.4L168.7,185.4z"/>
			<path class="st5" d="M163.2,193.2c-2.8-0.7-5.7-1.4-8.5-2c-1.8-0.4-2.5,2.3-0.7,2.7c2.8,0.7,5.7,1.4,8.5,2
				C164.2,196.4,164.9,193.7,163.2,193.2L163.2,193.2z"/>
			<path class="st5" d="M153.1,197.6c-1.2,0-2.5,0-3.7,0c-1.8,0-1.8,2.8,0,2.8c1.2,0,2.5,0,3.7,0
				C154.9,200.4,154.9,197.6,153.1,197.6L153.1,197.6z"/>
		</g>
	</g>
	<g>
		<path class="st6" d="M262.7,248.9c-10,12.4-19.4,25.1-27.1,38.6c-7.7,13.7-13.6,28.1-16,43.2c-1.4,8.5-1.6,17.1-0.4,25.6
			c0.1,0.9,0.8,1.7,2,1.7c1,0,2.1-0.8,2-1.7c-2-14.9,0.3-29.9,5.3-44.2c5-14.2,12.8-27.6,21.7-40.4c5-7.2,10.4-14.2,16-21.1
			C267.5,248.8,264.1,247.2,262.7,248.9L262.7,248.9z"/>
		<path class="st1" d="M291.9,252.1c-1.6-2.3,28.8,3.5,38.8-2.4c10-6,9.3-30.7,9.3-30.7c-6.1,7-32.9,15.5-33.2,12.7
			c-0.3-2.8,26.2-12.1,30.9-18.2c4.6-6-6.5-22.9-6.5-22.9c-0.7,6.3-23,21-26.1,19.6c-3.1-1.3,13.1-10.8,19.9-19.9
			s-20.3-31.8-20.3-31.8s-4.4,6.3-10.1,6.6s-23.3-1.8-26.5,12.7c-3.2,14.5,6.2,24,2.7,25c-3.5,1-10.3-19.4-7.2-28
			c0,0-13.4,4.5-17.8,13.8c-4.4,9.2,11.6,32.5,10.3,34.6c-1.2,2.1-23.2-11.4-18.2-28.5c0,0-10.9,7.7-17.9,26.2
			c-6.9,18.1-1.4,33.2,15.8,38.4c16.9,5.1,26-4.3,26-4.3c-1.4,30.9,23.1,37.3,42.9,28.9c13.2-5.6,27.8-29.8,27.8-29.8
			C319.9,260.3,293.5,254.4,291.9,252.1z M313.1,239.6c2.8,0.3,4.5,3,1.6,4.1c-2.9,1.1-7.4-0.5-6.8-2.9
			C308.4,238.4,313.1,239.6,313.1,239.6z M241.3,233c-4.1-2.8-8.5-3.8-9.5-8.5c-0.8-3.6,2.7-4.9,2.7-4.9c3.3-0.3,6.1,2.4,8.6,5.6
			c2.6,3.2,6.3,4.7,5.7,6.6C248.1,234.4,245.4,235.7,241.3,233z M257.2,207.8c0.3-3.7,3-4.7,3.9-2.9c0.9,1.8,7.3,10.6,7.3,13.1
			c0,2.6-1.4,4.7-5,2.4C260.2,218.6,256.9,211.6,257.2,207.8z M259.3,239.6c-2,0.2-7.3-0.4-7.7-2.4c-0.4-2,1.2-3.6,3.1-3.4
			c1.6,0.2,3.6,0.2,4.5,2C260.1,237.5,261.4,239.4,259.3,239.6z M301.8,217.6c1.4-2.3,12.1-3.7,12.1-3.7s1.7-0.4,4.9,0.1
			c3.3,0.5-4.9,4.1-10.3,5.7C303,221.2,300.4,219.8,301.8,217.6z M286,239.5c0.4-2.9,16.4-0.3,16.4-0.3c2.4,0.3,0.7,4.2-3.9,4.2
			C293.9,243.4,285.5,242.4,286,239.5z"/>
		<g>
			<g>
				<path class="st6" d="M318.8,214c0.3,0,0.6,0.1,0.7,0.2c4.3-1.9,8.4-4.1,12.2-6.6c0.8-0.5-0.2-1.5-1-1c-4.2,2.7-8.8,5.1-13.6,7.1
					C317.7,213.8,318.2,213.9,318.8,214z"/>
				<path class="st6" d="M303,241.5c1.6,0,3.2,0.1,4.8,0c0-0.2,0-0.4,0-0.7c0.1-0.2,0.1-0.4,0.3-0.6c-1.5,0-3.1,0-4.6,0
					C303.5,240.6,303.3,241,303,241.5z"/>
				<path class="st6" d="M325.3,238.9c-3.6,0.5-7.2,0.9-10.8,1.1c0.6,0.3,1.1,0.7,1.4,1.2c3.2-0.2,6.4-0.6,9.6-1.1
					C326.5,240,326.3,238.7,325.3,238.9z"/>
				<path class="st6" d="M234.6,219.6C234.6,219.6,234.6,219.6,234.6,219.6c-1-1.4-1.8-2.8-2.7-4.2c-0.4-0.7-1.8-0.2-1.4,0.5
					c0.8,1.5,1.8,3,2.8,4.4C234,219.9,234.6,219.6,234.6,219.6z"/>
				<path class="st6" d="M261.7,257c1.7-2.8,3.5-5.7,5.3-8.7c6.5,9.4,17.9,16,30.6,17.8c1,0.1,1.1-1.1,0.1-1.3
					c-12.6-1.8-23.8-8.5-29.9-17.8c2-3.2,4-6.5,5.9-9.7c4,1.1,8.1,1.9,12.2,2.6c0-0.1,0-0.2,0-0.3c0.1-0.4,0.3-0.6,0.8-0.8
					c-4.1-0.7-8.2-1.5-12.2-2.6c1-1.6,2-3.2,2.9-4.7c0.1-0.1,0.2-0.2,0.2-0.4c1.9-3,3.6-5.9,5.2-8.4c6.5-0.3,13.1-1.2,19.4-2.6
					c-0.5-0.3-0.8-0.7-0.8-1.1c-5.8,1.3-11.8,2.2-17.8,2.5c0.8-1.4,1.6-2.6,2.3-3.7c2-3.3,4.1-7.8,6.1-12.9
					c8.2-1.4,13.6-7.2,18.4-12.6c0.6-0.7-0.7-1.4-1.2-0.7c-4.3,4.9-9.2,10.3-16.6,11.9c5.7-15.2,10.9-35,13-43.8
					c-0.6-0.5-1-0.8-1-0.8s0,0-0.1,0.1c0,0,0,0,0,0c0,0,0,0.1-0.1,0.1c0,0,0,0,0,0c-0.2,0.2-0.5,0.6-0.9,1.1
					c-2.2,9-7.2,28-12.7,42.6c-4.7-5.1-6.9-11.6-6.2-18c0.1-0.8-1.4-0.9-1.5-0.1c-0.8,6.9,1.7,13.9,6.8,19.3
					c0.1,0.1,0.2,0.2,0.3,0.2c-2,5.2-4.1,9.8-6.1,13.1c-2,3.3-4.8,7.7-7.9,12.8c-3.1-3-5.9-6.2-8.5-9.5c-0.2,0.5-0.5,0.9-0.9,1.2
					c2.6,3.4,5.4,6.6,8.6,9.6c-2.2,3.6-4.6,7.5-7,11.4c-3-0.8-5.8-1.7-8.6-2.9c-0.2,0.1-0.4,0.2-0.8,0.2c-0.5,0-1.3,0-2.1,0
					c3.4,1.6,7,2.8,10.7,3.8c-2.7,4.4-5.4,8.9-7.9,13l0,0c1-0.8,1.6-1.3,1.7-1.4c0,0,0,0,0,0c0,0.4,0,0.7,0,1.1
					C261.7,256.3,261.7,256.7,261.7,257z"/>
				<path class="st6" d="M251.9,235.2c-1.2-0.7-2.4-1.5-3.5-2.2c-0.3,0.4-0.6,0.7-1,1c1.4,0.9,2.8,1.8,4.2,2.6
					C251.6,236.1,251.7,235.6,251.9,235.2z"/>
				<path class="st6" d="M257.9,205.3c0.3-0.5,0.8-0.9,1.2-1.1c-1.6-3.9-2.7-7.8-3.5-11.9c-0.2-0.8-1.7-0.6-1.5,0.2
					C254.9,196.9,256.2,201.2,257.9,205.3z"/>
			</g>
		</g>
	</g>
	<g>
		<path class="st6" d="M437,273.2c4.6,16,6.8,32.7,6.6,49.4c-0.2,16.6-2.7,33.1-7.6,48.9c-2.7,8.9-6.2,17.7-10.4,26
			c-0.9,1.8,1.8,3.4,2.7,1.6c7.6-15.2,12.9-31.4,15.7-48.1c2.9-16.7,3.4-33.8,1.4-50.6c-1.1-9.5-3-18.8-5.6-28
			C439.5,270.4,436.5,271.3,437,273.2L437,273.2z"/>
		<path class="st1" d="M382.5,272.2c0,0,11.1,24.1,21.8,30c15.9,8.7,36.2,3.1,36.1-27.1c0,0,7.1,9.5,21.2,4.9
			c14.2-4.6,19.2-19.1,14.2-37.1c-5.1-18.3-13.8-26.1-13.8-26.1c3.5,16.8-14.9,29.4-15.9,27.4s12.9-24.4,9.6-33.5
			c-3.3-9.2-14.2-14-14.2-14c2.3,8.5-4,28.2-6.8,27.2c-2.8-1,5.2-10,3-24.3c-2.2-14.3-16.6-12.6-21.3-13.2c-4.7-0.5-8.1-6.8-8.1-6.8
			s-23,21.4-17.7,30.5c5.3,9.1,18.3,18.8,15.7,20.1c-2.6,1.2-20.4-13.7-20.7-19.9c0,0-9.7,16.2-6.1,22.2s25,15.9,24.7,18.6
			c-0.3,2.7-22-6.3-26.8-13.3c0,0-1.4,24.2,6.6,30.3c8,6.1,33.1,1.2,31.7,3.4C414.4,273.6,392.6,278.6,382.5,272.2z M403.1,260
			c0.4,2.4-3.4,3.8-5.7,2.6c-2.3-1.2-0.8-3.8,1.5-4C398.9,258.6,402.7,257.6,403.1,260z M451.7,252.7c-0.4-1.9,2.7-3.2,4.9-6.3
			c2.2-3,4.5-5.6,7.3-5.2c0,0,2.8,1.3,2.1,4.8c-1,4.5-4.6,5.4-8,8C454.4,256.7,452.3,255.3,451.7,252.7z M440.2,241.3
			c-3,2.1-4.1,0.1-4-2.5c0.1-2.5,5.6-10.9,6.4-12.6c0.8-1.8,3-0.7,3.1,2.9C445.8,232.7,442.9,239.5,440.2,241.3z M443.1,256.3
			c0.7-1.7,2.4-1.6,3.7-1.8c1.6-0.2,2.8,1.4,2.5,3.4c-0.4,2-4.7,2.4-6.4,2.1C441.2,259.8,442.3,258,443.1,256.3z M403.3,239.2
			c-4.4-1.7-11-5.5-8.3-5.8c2.7-0.4,4.1,0,4.1,0s8.6,1.7,9.8,3.9C409.9,239.6,407.7,240.9,403.3,239.2z M410.7,262.7
			c-3.8-0.1-5-4-3.1-4.2c0,0,13.2-2.1,13.4,0.8C421.3,262.1,414.5,262.9,410.7,262.7z"/>
		<g>
			<g>
				<path class="st6" d="M395,233.4c-0.3,0-0.5,0.1-0.5,0.2c-3.5-2-6.7-4.2-9.8-6.8c-0.6-0.5,0.2-1.5,0.8-0.9
					c3.4,2.8,7,5.3,10.9,7.3C396,233.2,395.5,233.3,395,233.4z"/>
				<path class="st6" d="M407,260.7c-1.3,0-2.6,0-3.9-0.1c0-0.2,0-0.4,0-0.6c0-0.2-0.1-0.4-0.2-0.6c1.3,0.1,2.5,0.1,3.8,0.1
					C406.7,259.8,406.8,260.3,407,260.7z"/>
				<path class="st6" d="M388.9,257.5c2.9,0.6,5.8,1.1,8.8,1.4c-0.5,0.3-0.9,0.7-1.2,1.1c-2.6-0.3-5.3-0.7-7.9-1.3
					C387.8,258.6,388.1,257.4,388.9,257.5z"/>
				<path class="st6" d="M463.8,241.3C463.8,241.3,463.8,241.3,463.8,241.3c0.8-1.3,1.6-2.7,2.3-4c0.4-0.7,1.5-0.2,1.1,0.6
					c-0.7,1.4-1.6,2.9-2.4,4.2C464.3,241.5,463.8,241.3,463.8,241.3z"/>
				<path class="st6" d="M440.4,277c-1.3-2.8-2.7-5.7-4.1-8.7c-5.6,9-15.2,15.1-25.7,16.5c-0.8,0.1-0.9-1.1-0.1-1.2
					c10.4-1.4,19.8-7.6,25.1-16.6c-1.5-3.2-3-6.5-4.5-9.6c-3.3,0.9-6.7,1.7-10,2.2c0-0.1,0-0.2,0-0.3c0-0.3-0.3-0.6-0.6-0.8
					c3.4-0.5,6.8-1.3,10.1-2.2c-0.8-1.6-1.5-3.2-2.2-4.7c-0.1-0.1-0.2-0.2-0.2-0.4c-1.4-3-2.8-5.9-4-8.4c-5.3-0.5-10.7-1.5-15.8-3.1
					c0.4-0.2,0.7-0.6,0.7-1.1c4.7,1.5,9.6,2.4,14.5,2.9c-0.6-1.4-1.2-2.6-1.8-3.7c-1.6-3.2-3.1-7.7-4.6-12.8
					c-6.7-1.6-10.9-7.4-14.6-12.8c-0.5-0.7,0.6-1.4,1-0.7c3.4,4.9,7.2,10.4,13.2,12.1c-4.2-15-7.7-34.6-9.2-43.2
					c0.5-0.5,0.8-0.8,0.8-0.8s0,0,0.1,0.1c0,0,0,0,0,0c0,0,0,0.1,0.1,0.1c0,0,0,0,0,0c0.1,0.2,0.4,0.6,0.7,1.1c1.5,8.9,5,27.6,9,42
					c4-4.9,6-11.1,5.6-17.5c0-0.8,1.2-0.9,1.2-0.1c0.4,6.8-1.9,13.5-6.2,18.7c-0.1,0.1-0.2,0.1-0.3,0.2c1.5,5.2,3,9.7,4.6,12.9
					c1.6,3.2,3.7,7.7,6.1,12.7c2.7-2.8,5.1-5.9,7.2-9.1c0.2,0.5,0.4,0.9,0.7,1.2c-2.2,3.2-4.7,6.3-7.4,9.1c1.7,3.6,3.5,7.5,5.4,11.4
					c2.5-0.7,4.8-1.5,7.1-2.6c0.1,0.1,0.3,0.2,0.6,0.2c0.4,0.1,1,0.1,1.7,0c-2.9,1.4-5.8,2.6-8.9,3.4c2.1,4.4,4.2,8.8,6.1,12.9l0,0
					c-0.8-0.8-1.3-1.3-1.3-1.4c0,0,0,0,0,0c0,0.4,0,0.7,0,1.1C440.4,276.4,440.4,276.7,440.4,277z"/>
				<path class="st6" d="M449.2,256c1-0.7,2-1.4,2.9-2.1c0.2,0.4,0.5,0.7,0.8,1c-1.1,0.9-2.3,1.7-3.5,2.5
					C449.4,256.9,449.3,256.4,449.2,256z"/>
				<path class="st6" d="M445.2,226.6c-0.3-0.5-0.6-0.9-0.9-1.1c1.4-3.7,2.5-7.6,3.3-11.5c0.2-0.8,1.4-0.5,1.2,0.3
					C447.9,218.4,446.7,222.6,445.2,226.6z"/>
			</g>
		</g>
	</g>
	<g>
		<path class="st7" d="M69.8,84.7c0,0-59.1,92.4-59,162.7c0,23.9,5.3,41.7,12.3,54.8c14.5,27.3,53,29.4,70.3,3.7
			c8.3-12.3,15.4-29.4,18-53.2C118.9,182.8,69.8,84.7,69.8,84.7z"/>
		<path class="st8" d="M62.2,270.5c0.2-4.8,0.5-9.7,0.7-14.5c16.4-7.5,32.8-15,49.2-22.5c0-0.6,0-1.1,0-1.7
			c-16.3,7.5-32.7,15-49,22.4c0.2-4.6,0.5-9.2,0.7-13.7c15.6-7.4,31.4-14.2,47.6-20.2c0-0.5-0.1-1.1-0.2-1.6
			c-16.1,6-31.9,12.6-47.3,20c0.2-4.4,0.4-8.8,0.7-13.2c15-6.4,30.1-12.8,45.1-19.2c-0.1-0.5-0.2-1.1-0.2-1.6
			c-14.9,6.3-29.8,12.7-44.8,19c0.2-4.6,0.5-9.2,0.7-13.8c13.5-7.2,27.3-13.8,41.4-19.8c-0.1-0.5-0.2-1-0.3-1.6
			c-13.9,6-27.6,12.5-40.9,19.5c0.2-4.8,0.5-9.5,0.7-14.3c12.2-6.3,24.7-12,37.4-17.2c-0.1-0.5-0.3-1-0.4-1.5
			c-12.5,5.1-24.9,10.8-36.9,16.9c0.2-3.9,0.4-7.7,0.6-11.6c10.8-6.1,21.9-11.7,33.2-16.8c-0.1-0.5-0.3-1-0.4-1.5
			c-11.1,5-22,10.5-32.7,16.5c0.2-4.7,0.5-9.4,0.7-14.2c8.7-6.1,18.1-11.2,27.9-15.3c-0.2-0.5-0.3-1-0.5-1.5
			c-9.6,4-18.7,9-27.3,14.9c0.1-1.6,0.2-3.2,0.2-4.8c0.2-0.2,0.2-0.5,0-0.8c0.1-1.2,0.1-2.3,0.2-3.5c7.3-5.8,15.5-10.2,24.4-13.1
			c-0.2-0.5-0.3-1-0.5-1.5c-8.6,2.8-16.6,7-23.7,12.5c0.2-3.5,0.4-7.1,0.5-10.6c6.3-4.3,12.9-8,19.8-11.3c-0.2-0.5-0.4-1-0.6-1.5
			c-6.6,3.2-13,6.8-19.1,10.9c0.2-3.3,0.3-6.6,0.5-9.9c4.6-2.2,9.2-4.3,13.8-6.5c0.8-0.4,1.5-0.7,2.3-1.1c-0.2-0.5-0.4-1-0.6-1.5
			c-1.1,0.5-2.3,1-3.4,1.6c-4,1.9-8.1,3.8-12.1,5.6c0.1-2.8,0.3-5.6,0.4-8.3c3.8-2.6,7.6-5.1,11.6-7.4c-0.2-0.5-0.4-1-0.6-1.5
			c-3.7,2.1-7.4,4.4-10.9,6.9c0.2-3.2,0.3-6.5,0.5-9.7c2.4-1.5,4.9-3,7.4-4.3c-0.2-0.5-0.4-1-0.6-1.5c-2.3,1.2-4.5,2.5-6.6,3.8
			c0.1-2,0.2-3.9,0.3-5.9c1.4-0.9,2.8-1.8,4.2-2.8c-0.2-0.5-0.4-1-0.7-1.5c-1.2,0.8-2.3,1.5-3.5,2.3c0.1-2.9,0.3-5.9,0.4-8.8
			c-1.1-2.3-1.7-3.5-1.7-3.5s-0.7,1.1-2,3.2c-0.2,3.3-0.3,6.5-0.5,9.8c-0.9-1.4-2-2.6-3.1-3.8c-0.3,0.5-0.5,0.9-0.8,1.4
			c1.4,1.6,2.7,3.3,3.8,5.1c-0.1,2.3-0.2,4.6-0.3,6.8c-1.8-2.6-3.8-5.1-6.1-7.4c-0.3,0.5-0.5,0.9-0.8,1.4c2.3,2.4,4.4,5,6.3,7.9
			c0.1,0.2,0.3,0.3,0.5,0.3c-0.2,4.2-0.4,8.4-0.6,12.6c-3.4-4.3-7-8.5-10.7-12.5c-0.3,0.5-0.5,1-0.8,1.5c4,4.3,7.8,8.8,11.4,13.4
			c-0.2,3.8-0.4,7.5-0.6,11.3c-4.8-5.8-9.7-11.5-14.8-17.1c-0.3,0.5-0.5,1-0.8,1.5c5.3,5.8,10.5,11.8,15.5,17.9
			c-0.2,4.6-0.5,9.2-0.7,13.9c-6.1-7.9-12.5-15.6-19.2-23c-0.2,0.5-0.5,1-0.8,1.5c6.9,7.7,13.5,15.7,19.8,23.9
			c-0.2,3-0.3,6.1-0.5,9.1c-8.1-7.5-16.2-15.1-24.3-22.6c-0.2,0.5-0.5,1-0.7,1.5c8.3,7.7,16.6,15.4,24.9,23.1
			c-0.3,5.9-0.6,11.8-0.9,17.7c-8.7-11.2-18-21.9-27.8-32.1c-0.2,0.5-0.5,1.1-0.7,1.6c10.1,10.5,19.6,21.5,28.4,33
			c-0.3,5.4-0.6,10.8-0.8,16.2c-11.4-11-22.8-22-34.1-32.9c-0.2,0.5-0.4,1.1-0.6,1.6c11.5,11.1,23.1,22.3,34.6,33.4
			c-0.1,2.1-0.2,4.1-0.3,6.2c-0.1,2.5-0.3,5-0.4,7.5c-12.7-11.8-25.4-23.5-38.1-35.3c-0.2,0.5-0.4,1.1-0.5,1.6
			c12.9,11.9,25.7,23.8,38.6,35.7c-0.2,3.9-0.4,7.7-0.6,11.6c-14.2-10.8-28.3-21.6-42.5-32.3c-0.1,0.5-0.3,1.1-0.4,1.6
			c14.2,10.8,28.4,21.6,42.6,32.4c0.1,0.1,0.2,0.1,0.2,0.1c-0.3,5.5-0.6,11.1-0.8,16.6c-15-12.1-30-24.2-45-36.3
			c-0.1,0.6-0.2,1.2-0.4,1.7c15.1,12.2,30.2,24.3,45.3,36.5c-0.2,4.1-0.4,8.3-0.6,12.4c-15.8-10.1-31.6-20.2-47.4-30.3
			c-0.1,0.6-0.1,1.2-0.2,1.8C27.1,245.9,43,256,58.8,266.1c-0.2,4.4-0.4,8.8-0.7,13.2c-16.2-8-32-17-47.2-26.8c0,0.6,0,1.3,0.1,1.9
			c15.2,9.7,30.9,18.6,47,26.5c-0.4,7.2-0.7,14.3-1.1,21.5c-14.5-7.2-28.7-15-42.5-23.5c0.2,0.7,0.4,1.5,0.6,2.2
			c13.5,8.3,27.4,15.9,41.6,22.9c0.1,0,0.2,0.1,0.3,0.1c-0.2,3-0.3,6-0.5,9c-11.8-5.2-23.7-10.4-35.5-15.6c0.3,0.7,0.7,1.5,1,2.2
			c11.5,5,22.9,10.1,34.4,15.1c-0.2,3-0.3,6-0.5,8.9c1.2,0.1,2.5,0.2,3.7,0.2c0-0.8,0.1-1.7,0.1-2.5c10.5-4.2,21.1-8.4,31.6-12.6
			c0.6-0.8,1.2-1.6,1.8-2.4c-11.1,4.4-22.2,8.9-33.3,13.3c0.1-2.7,0.3-5.3,0.4-8c13.1-5.4,26.2-10.7,39.3-16.1
			c0.4-0.7,0.7-1.4,1-2.1C87,299,73.6,304.5,60.2,310c0.2-4.1,0.4-8.3,0.6-12.4c15-5.8,29.9-11.6,44.9-17.5c0.2-0.6,0.4-1.3,0.6-1.9
			c-15.1,5.9-30.3,11.8-45.4,17.7c0.2-3.6,0.4-7.2,0.6-10.8c0-0.1,0-0.2,0-0.3c15.6-7,31.6-13.2,47.8-18.5c0.1-0.6,0.2-1.2,0.3-1.8
			c-16.3,5.3-32.4,11.5-48.1,18.5c0-0.5,0-0.9,0.1-1.4c0-0.1,0-0.2,0-0.3c0.2-3,0.3-6,0.5-9.1c16.2-8.7,32.7-16.6,49.6-23.8
			c0-0.6,0.1-1.2,0.1-1.8C95,253.9,78.4,261.8,62.2,270.5z"/>
	</g>
	<g>
		<path class="st7" d="M211.8,216.6c0,0-65.1,10.4-96.5,38.6c-10.7,9.6-16.6,19-19.6,27.4c-6.4,17.4,8,35.5,26.4,33
			c8.8-1.2,19.4-4.8,31-13.2C187.4,277.9,211.8,216.6,211.8,216.6z"/>
		<path class="st8" d="M125.4,287.5c2.3-1.8,4.5-3.7,6.8-5.5c9.9,4.3,19.8,8.7,29.7,13c0.3-0.2,0.5-0.5,0.7-0.7
			c-9.9-4.3-19.8-8.7-29.7-13c2.1-1.7,4.3-3.5,6.4-5.2c9.5,4,18.9,8.4,28.1,13.3c0.2-0.2,0.4-0.5,0.7-0.7
			c-9.1-4.8-18.4-9.2-27.9-13.2c2.1-1.7,4.1-3.3,6.2-5c8.9,4.2,17.7,8.4,26.6,12.6c0.2-0.3,0.4-0.5,0.6-0.8
			c-8.8-4.2-17.6-8.3-26.4-12.5c2.2-1.7,4.3-3.5,6.5-5.2c8.6,3.2,17.1,6.7,25.4,10.6c0.2-0.3,0.4-0.5,0.6-0.8
			c-8.2-3.9-16.6-7.4-25.1-10.5c2.2-1.8,4.5-3.6,6.7-5.4c7.7,3,15.3,6.3,22.7,9.9c0.2-0.3,0.4-0.5,0.5-0.8
			c-7.3-3.6-14.8-6.8-22.3-9.8c1.8-1.5,3.6-2.9,5.4-4.4c7.1,2.4,14,5.1,20.8,8.2c0.2-0.3,0.3-0.5,0.5-0.8c-6.7-3-13.5-5.7-20.4-8.1
			c2.2-1.8,4.4-3.6,6.6-5.3c6.2,1.5,12.3,3.6,18,6.4c0.2-0.3,0.3-0.5,0.5-0.8c-5.6-2.7-11.5-4.8-17.6-6.3c0.8-0.6,1.5-1.2,2.3-1.8
			c0.2,0,0.3-0.1,0.4-0.3c0.5-0.4,1.1-0.9,1.6-1.3c5.5,1,10.8,2.9,15.6,5.7c0.2-0.3,0.3-0.6,0.5-0.8c-4.7-2.7-9.8-4.6-15.1-5.6
			c1.7-1.3,3.3-2.7,5-4c4.4,1.1,8.8,2.6,13,4.4c0.1-0.3,0.3-0.6,0.4-0.8c-4.1-1.7-8.2-3.1-12.5-4.2c1.5-1.2,3.1-2.5,4.6-3.7
			c2.8,1.2,5.6,2.4,8.4,3.6c0.5,0.2,0.9,0.4,1.4,0.6c0.1-0.3,0.3-0.6,0.4-0.8c-0.7-0.3-1.4-0.6-2.1-0.9c-2.5-1.1-4.9-2.1-7.4-3.2
			c1.3-1,2.6-2.1,3.9-3.1c2.7,0.6,5.3,1.4,8,2.3c0.1-0.3,0.3-0.6,0.4-0.9c-2.4-0.8-4.9-1.5-7.4-2.2c1.5-1.2,3-2.4,4.6-3.7
			c1.7,0.5,3.3,1,4.9,1.6c0.1-0.3,0.3-0.6,0.4-0.9c-1.4-0.5-2.9-1-4.4-1.5c0.9-0.7,1.8-1.5,2.8-2.2c1,0.3,1.9,0.5,2.9,0.8
			c0.1-0.3,0.3-0.6,0.4-0.9c-0.8-0.2-1.6-0.4-2.4-0.6c1.4-1.1,2.7-2.2,4.1-3.3c0.6-1.4,0.9-2.2,0.9-2.2s-0.8,0.1-2.2,0.4
			c-1.5,1.2-3.1,2.5-4.6,3.7c0.2-1,0.4-1.9,0.5-2.9c-0.3,0.1-0.6,0.1-1,0.2c-0.1,1.3-0.4,2.5-0.8,3.7c-1.1,0.9-2.1,1.7-3.2,2.6
			c0.5-1.9,0.8-3.8,0.9-5.7c-0.3,0.1-0.6,0.1-1,0.2c-0.1,2-0.5,4-1,6c0,0.1,0,0.2,0,0.3c-2,1.6-3.9,3.2-5.9,4.7
			c0.6-3.2,1-6.5,1.3-9.8c-0.3,0.1-0.6,0.2-1,0.2c-0.4,3.5-0.8,7-1.5,10.5c-1.8,1.4-3.5,2.8-5.3,4.3c0.7-4.5,1.3-9,1.7-13.5
			c-0.3,0.1-0.7,0.2-1,0.3c-0.5,4.7-1.1,9.4-1.9,14.1c-2.2,1.7-4.3,3.5-6.5,5.2c1.1-5.9,2-11.8,2.7-17.8c-0.3,0.1-0.7,0.2-1,0.3
			c-0.7,6.2-1.6,12.3-2.8,18.4c-1.4,1.1-2.9,2.3-4.3,3.4c0.1-6.6,0.3-13.3,0.4-19.9c-0.3,0.1-0.6,0.2-1,0.3
			c-0.1,6.8-0.3,13.6-0.4,20.4c-2.8,2.2-5.5,4.5-8.3,6.7c1.6-8.4,2.6-16.8,3.3-25.3c-0.3,0.1-0.7,0.2-1,0.3
			c-0.7,8.7-1.8,17.3-3.4,25.9c-2.5,2-5.1,4.1-7.6,6.1c0.4-9.5,0.8-19,1.1-28.5c-0.3,0.1-0.6,0.2-1,0.4c-0.4,9.6-0.8,19.3-1.1,28.9
			c-1,0.8-1.9,1.6-2.9,2.3c-1.2,0.9-2.4,1.9-3.5,2.8c0.2-10.4,0.4-20.8,0.6-31.2c-0.3,0.1-0.6,0.3-1,0.4c-0.2,10.5-0.4,21-0.6,31.6
			c-1.8,1.5-3.6,2.9-5.4,4.4c-0.8-10.7-1.6-21.3-2.5-32c-0.3,0.2-0.6,0.3-0.9,0.5c0.8,10.7,1.6,21.4,2.5,32.1c0,0.1,0,0.1,0,0.2
			c-2.6,2.1-5.2,4.2-7.8,6.3c-0.6-11.6-1.1-23.1-1.7-34.7c-0.3,0.2-0.6,0.4-0.9,0.5c0.6,11.6,1.1,23.3,1.7,34.9
			c-1.9,1.6-3.9,3.1-5.8,4.7c-1.8-11.1-3.6-22.2-5.4-33.4c-0.3,0.2-0.6,0.4-0.9,0.6c1.8,11.1,3.6,22.3,5.4,33.4
			c-2.1,1.7-4.1,3.3-6.2,5c-2.9-10.5-5.2-21.1-6.9-31.8c-0.3,0.3-0.6,0.5-0.8,0.8c1.7,10.7,4,21.3,6.9,31.7
			c-3.4,2.7-6.7,5.4-10.1,8.1c-2.6-9.4-4.8-18.9-6.5-28.4c-0.3,0.4-0.5,0.8-0.8,1.1c1.7,9.4,3.8,18.6,6.4,27.8c0,0.1,0,0.1,0.1,0.1
			c-1.4,1.1-2.8,2.3-4.2,3.4c-2.4-7.4-4.8-14.8-7.2-22.2c-0.2,0.4-0.4,0.9-0.6,1.3c2.3,7.2,4.7,14.3,7,21.5
			c-1.4,1.1-2.8,2.2-4.2,3.4c0.4,0.6,0.9,1.2,1.4,1.7c0.4-0.3,0.8-0.6,1.2-0.9c6.1,3,12.2,6.1,18.3,9.1c0.6,0,1.2-0.1,1.8-0.2
			c-6.4-3.2-12.9-6.4-19.3-9.6c1.2-1,2.5-2,3.7-3c7.6,3.7,15.3,7.5,22.9,11.2c0.5-0.1,0.9-0.2,1.4-0.4c-7.8-3.8-15.7-7.6-23.5-11.4
			c1.9-1.6,3.9-3.1,5.8-4.7c8.6,4.4,17.2,8.8,25.8,13.1c0.4-0.2,0.7-0.3,1.1-0.5c-8.7-4.4-17.4-8.9-26.1-13.3
			c1.7-1.4,3.4-2.7,5.1-4.1c0,0,0.1-0.1,0.1-0.1c9.4,4.2,18.5,8.9,27.4,14c0.3-0.2,0.6-0.4,0.9-0.6c-8.9-5.2-18.1-9.9-27.5-14.2
			c0.2-0.2,0.4-0.3,0.7-0.5c0.1,0,0.1-0.1,0.1-0.1c1.4-1.1,2.8-2.3,4.2-3.4c10.4,3.8,20.5,8,30.5,12.8c0.3-0.2,0.6-0.4,0.8-0.7
			C146,295.5,135.8,291.2,125.4,287.5z"/>
	</g>
	<g>
		<path class="st9" d="M376.5,178c0,0-26.1,56.7-20.6,96.4c1.9,13.5,6.3,23.1,11.2,29.9c10.3,14.3,32.2,12.4,39.9-3.4
			c3.7-7.6,6.4-17.8,6-31.4C411.9,229.4,376.5,178,376.5,178z"/>
		<path class="st10" d="M386.8,283.3c-0.2-2.8-0.5-5.5-0.7-8.3c8.7-5.5,17.3-11,26-16.5c-0.1-0.3-0.1-0.6-0.2-1
			c-8.6,5.5-17.3,11-25.9,16.5c-0.2-2.6-0.5-5.2-0.7-7.8c8.2-5.4,16.6-10.4,25.3-15.1c-0.1-0.3-0.1-0.6-0.2-0.9
			c-8.6,4.6-17,9.6-25.1,15c-0.2-2.5-0.4-5-0.7-7.5c8-4.8,16-9.6,23.9-14.3c-0.1-0.3-0.2-0.6-0.3-0.9c-7.9,4.7-15.8,9.5-23.8,14.2
			c-0.2-2.6-0.5-5.2-0.7-7.9c7.1-5.1,14.3-9.9,21.8-14.4c-0.1-0.3-0.2-0.6-0.3-0.9c-7.4,4.4-14.6,9.2-21.6,14.2
			c-0.2-2.7-0.5-5.4-0.7-8.1c6.4-4.5,13-8.7,19.8-12.6c-0.1-0.3-0.2-0.6-0.3-0.8c-6.7,3.9-13.2,8-19.5,12.4
			c-0.2-2.2-0.4-4.4-0.6-6.6c5.6-4.3,11.4-8.3,17.4-12.1c-0.1-0.3-0.2-0.6-0.4-0.8c-5.9,3.7-11.6,7.6-17.1,11.8
			c-0.2-2.7-0.5-5.4-0.7-8c4.5-4.1,9.3-7.7,14.5-10.8c-0.1-0.3-0.3-0.5-0.4-0.8c-5.1,3-9.9,6.5-14.2,10.5c-0.1-0.9-0.2-1.8-0.2-2.7
			c0.1-0.1,0.1-0.3,0-0.5c-0.1-0.7-0.1-1.3-0.2-2c3.7-3.8,8-7,12.7-9.3c-0.1-0.3-0.3-0.5-0.4-0.8c-4.6,2.2-8.8,5.3-12.4,8.9
			c-0.2-2-0.4-4-0.5-6c3.2-2.9,6.7-5.5,10.3-7.9c-0.1-0.3-0.3-0.5-0.4-0.8c-3.5,2.3-6.8,4.8-9.9,7.6c-0.2-1.9-0.3-3.7-0.5-5.6
			c2.4-1.6,4.9-3.2,7.3-4.7c0.4-0.3,0.8-0.5,1.2-0.8c-0.1-0.3-0.3-0.5-0.4-0.8c-0.6,0.4-1.2,0.8-1.8,1.1c-2.1,1.4-4.2,2.8-6.4,4.1
			c-0.1-1.6-0.3-3.2-0.4-4.7c1.9-1.8,3.9-3.5,6-5.1c-0.2-0.3-0.3-0.5-0.5-0.8c-1.9,1.5-3.8,3.1-5.6,4.7c-0.2-1.8-0.3-3.7-0.5-5.5
			c1.2-1.1,2.5-2.1,3.8-3c-0.2-0.3-0.3-0.5-0.5-0.8c-1.2,0.8-2.3,1.7-3.4,2.7c-0.1-1.1-0.2-2.2-0.3-3.3c0.7-0.6,1.4-1.3,2.2-1.9
			c-0.2-0.3-0.3-0.5-0.5-0.8c-0.6,0.5-1.2,1-1.8,1.6c-0.1-1.7-0.3-3.3-0.4-5c-0.8-1.2-1.2-1.8-1.2-1.8s-0.3,0.7-0.9,2
			c0.2,1.9,0.3,3.7,0.5,5.6c-0.6-0.7-1.3-1.3-2-1.9c-0.1,0.3-0.2,0.6-0.4,0.9c0.9,0.8,1.8,1.6,2.5,2.6c0.1,1.3,0.2,2.6,0.3,3.9
			c-1.2-1.3-2.6-2.6-4-3.7c-0.1,0.3-0.2,0.6-0.3,0.9c1.5,1.2,2.9,2.5,4.2,4c0.1,0.1,0.2,0.1,0.3,0.2c0.2,2.4,0.4,4.8,0.6,7.1
			c-2.3-2.2-4.6-4.2-7-6.2c-0.1,0.3-0.2,0.6-0.3,0.9c2.6,2.1,5.1,4.3,7.5,6.7c0.2,2.1,0.4,4.3,0.6,6.4c-3.2-2.9-6.4-5.7-9.7-8.5
			c-0.1,0.3-0.2,0.6-0.3,0.9c3.5,2.9,6.8,5.8,10.1,8.9c0.2,2.6,0.5,5.2,0.7,7.9c-4.1-4-8.3-7.8-12.6-11.5c-0.1,0.3-0.2,0.6-0.3,0.9
			c4.5,3.8,8.8,7.8,13,12c0.2,1.7,0.3,3.5,0.5,5.2c-5.2-3.6-10.3-7.2-15.5-10.8c-0.1,0.3-0.2,0.6-0.3,0.9
			c5.3,3.7,10.6,7.4,15.8,11.1c0.3,3.4,0.6,6.7,0.9,10.1c-5.8-5.6-11.9-11-18.2-15.9c-0.1,0.3-0.2,0.6-0.3,0.9
			c6.5,5.1,12.7,10.6,18.6,16.4c0.3,3.1,0.5,6.1,0.8,9.2c-7.3-5.3-14.6-10.6-21.8-15.9c-0.1,0.3-0.1,0.6-0.2,1
			c7.4,5.4,14.8,10.8,22.1,16.1c0.1,1.2,0.2,2.3,0.3,3.5c0.1,1.4,0.2,2.8,0.4,4.3c-8.1-5.6-16.2-11.3-24.3-16.9
			c-0.1,0.3-0.1,0.6-0.2,1c8.2,5.7,16.4,11.4,24.5,17.1c0.2,2.2,0.4,4.4,0.6,6.6c-8.8-5-17.7-9.9-26.5-14.9c0,0.3-0.1,0.6-0.1,1
			c8.8,5,17.7,10,26.5,15c0,0,0.1,0,0.1,0.1c0.3,3.1,0.5,6.3,0.8,9.4c-9.4-5.6-18.8-11.3-28.2-16.9c0,0.3,0,0.7-0.1,1
			c9.5,5.7,18.9,11.4,28.4,17c0.2,2.4,0.4,4.7,0.6,7.1c-9.7-4.5-19.4-8.9-29.1-13.4c0,0.3,0,0.7,0.1,1c9.7,4.5,19.4,8.9,29.1,13.4
			c0.2,2.5,0.4,5,0.7,7.5c-9.8-3.3-19.4-7.1-28.7-11.4c0.1,0.4,0.1,0.7,0.2,1.1c9.3,4.3,18.9,8.1,28.6,11.3
			c0.4,4.1,0.7,8.1,1.1,12.2c-8.8-2.9-17.4-6.2-25.8-9.9c0.2,0.4,0.3,0.8,0.5,1.2c8.3,3.6,16.7,6.8,25.2,9.6c0.1,0,0.1,0,0.2,0
			c0.1,1.7,0.3,3.4,0.4,5.1c-7.1-2-14.2-4-21.3-6c0.2,0.4,0.5,0.8,0.8,1.1c6.9,1.9,13.7,3.9,20.6,5.8c0.1,1.7,0.3,3.4,0.4,5.1
			c0.7,0,1.4-0.1,2.1-0.2c0-0.5-0.1-0.9-0.1-1.4c5.6-3.2,11.2-6.4,16.8-9.6c0.3-0.5,0.6-1,0.8-1.5c-5.9,3.4-11.8,6.7-17.7,10.1
			c-0.1-1.5-0.3-3-0.4-4.5c7-4.1,13.9-8.1,20.9-12.2c0.1-0.4,0.3-0.8,0.4-1.3c-7.1,4.2-14.3,8.3-21.4,12.5c-0.2-2.3-0.4-4.7-0.6-7
			c8-4.5,16-8.9,23.9-13.4c0.1-0.4,0.1-0.8,0.2-1.1c-8.1,4.5-16.1,9-24.2,13.5c-0.2-2-0.4-4.1-0.5-6.1c0-0.1,0-0.1,0-0.2
			c8.3-5.2,16.8-9.9,25.5-14.2c0-0.3,0-0.7,0.1-1c-8.8,4.3-17.4,9-25.7,14.2c0-0.3,0-0.5-0.1-0.8c0-0.1,0-0.1,0-0.2
			c-0.1-1.7-0.3-3.4-0.4-5.1c8.4-6.2,17.2-11.9,26.1-17.3c0-0.3,0-0.7-0.1-1C403.9,271.4,395.2,277.1,386.8,283.3z"/>
	</g>
	<path class="st11" d="M281.8,241.3c0.1-0.1,0.2-0.2,0.3-0.3c0,0,0,0,0-0.1c0.1-0.1,0.2-0.2,0.2-0.3c0,0,0,0,0,0
		c0.1-0.1,0.2-0.2,0.2-0.4c0,0,0,0,0-0.1c0.1-0.1,0.1-0.2,0.2-0.3c0,0,0,0,0-0.1c0.1-0.1,0.1-0.2,0.2-0.4c0,0,0,0,0,0
		c0.1-0.1,0.1-0.2,0.2-0.4c0,0,0,0,0-0.1c0.1-0.1,0.1-0.2,0.2-0.4c0,0,0,0,0-0.1c0.1-0.1,0.1-0.2,0.2-0.4c0,0,0,0,0,0
		c0.1-0.1,0.1-0.2,0.2-0.4c0,0,0,0,0,0c0.1-0.1,0.1-0.2,0.2-0.4c0,0,0,0,0-0.1c0-0.1,0.1-0.2,0.1-0.4c0,0,0,0,0,0
		c0-0.1,0.1-0.2,0.1-0.4c0,0,0,0,0,0c0-0.1,0.1-0.2,0.1-0.4c0,0,0,0,0-0.1c0-0.1,0.1-0.2,0.1-0.4c0,0,0,0,0,0
		c0.1-0.3,0.1-0.5,0.2-0.7c0,0,0,0,0,0c0-0.1,0.1-0.2,0.1-0.4c0,0,0,0,0,0c0-0.2,0.1-0.5,0.1-0.7c0,0,0,0,0,0c0-0.1,0-0.2,0-0.3
		c0,0,0,0,0,0c0-0.1,0-0.2,0-0.3c0,0,0,0,0,0c0-0.2,0-0.5,0-0.7c0,0,0,0,0,0c0-0.1,0-0.2,0-0.3c0,0,0,0,0,0c0-0.2,0-0.4-0.1-0.6
		c0,0,0,0,0,0c0-0.1,0-0.2,0-0.3c0,0,0,0,0,0c-0.1-0.3-0.1-0.6-0.2-0.8c0,0,0,0,0,0c-0.1-0.3-0.2-0.5-0.3-0.7c0,0,0,0,0,0
		c0-0.1-0.1-0.1-0.1-0.2l0,0c-0.1-0.1-0.2-0.2-0.3-0.3c0,0,0,0,0,0c-0.1-0.1-0.1-0.1-0.2-0.1c0,0,0,0,0,0c-0.8-0.6-2-0.6-3.6,0.2
		c-7.2,3.7-9.4,13.5-10,17.2c-0.7-1.4-1.3-2.9-2-4.3c-0.5-1-1-1.9-1.5-2.9l-0.7-1.3c-1.8-3.5-3.7-7.1-5.5-10.6c0.1,0,0.1,0,0.2,0
		c0.2,0,0.3,0,0.5-0.1c0.1,0,0.2,0,0.3,0c0.1,0,0.3,0,0.4-0.1c0.1,0,0.2,0,0.3-0.1c0.1,0,0.3-0.1,0.4-0.1c0.1,0,0.2,0,0.3-0.1
		c0.1,0,0.3-0.1,0.4-0.1c0.1,0,0.2-0.1,0.3-0.1c0.1,0,0.3-0.1,0.4-0.1c0.1,0,0.2-0.1,0.3-0.1c0.1,0,0.3-0.1,0.4-0.1
		c0.1,0,0.2-0.1,0.3-0.1c0.1,0,0.3-0.1,0.4-0.1c0.1,0,0.2-0.1,0.2-0.1c0.1-0.1,0.3-0.1,0.4-0.2c0.1,0,0.1,0,0.2-0.1
		c0.2-0.1,0.4-0.2,0.6-0.3c0,0,0,0,0,0c0.2-0.1,0.4-0.2,0.5-0.3c0.1,0,0.1-0.1,0.2-0.1c0.1-0.1,0.3-0.1,0.4-0.2
		c0.1,0,0.1-0.1,0.2-0.1c0.1-0.1,0.2-0.1,0.3-0.2c0.1,0,0.1-0.1,0.2-0.1c0.1-0.1,0.2-0.1,0.3-0.2c0.1,0,0.1-0.1,0.2-0.1
		c0.1-0.1,0.2-0.1,0.3-0.2c0.1,0,0.1-0.1,0.2-0.2c0.1-0.1,0.2-0.1,0.3-0.2c0.1-0.1,0.1-0.1,0.2-0.2c0.1-0.1,0.2-0.2,0.3-0.2
		c0.1,0,0.1-0.1,0.2-0.1c0.1-0.1,0.2-0.2,0.3-0.3c0.1,0,0.1-0.1,0.2-0.1c0.1-0.1,0.2-0.2,0.3-0.3c0,0,0.1-0.1,0.1-0.1
		c0.1-0.1,0.3-0.3,0.4-0.4c0,0,0,0,0.1-0.1c0.1-0.1,0.2-0.2,0.3-0.4c0,0,0.1-0.1,0.1-0.1c0.1-0.1,0.2-0.2,0.3-0.3
		c0-0.1,0.1-0.1,0.1-0.2c0.1-0.1,0.1-0.2,0.2-0.3c0-0.1,0.1-0.1,0.1-0.2c0.1-0.1,0.1-0.2,0.2-0.3c0-0.1,0.1-0.1,0.1-0.2
		c0.1-0.1,0.1-0.2,0.2-0.3c0-0.1,0.1-0.1,0.1-0.2c0.1-0.1,0.1-0.2,0.2-0.3c0-0.1,0.1-0.1,0.1-0.2c0.1-0.1,0.1-0.2,0.2-0.3
		c0-0.1,0.1-0.1,0.1-0.2c0.1-0.1,0.1-0.2,0.2-0.3c0-0.1,0.1-0.1,0.1-0.2c0.1-0.1,0.1-0.2,0.2-0.3c0,0,0.1-0.1,0.1-0.1
		c0.1-0.2,0.2-0.3,0.2-0.5c0-0.1,0-0.1,0.1-0.2c0-0.1,0.1-0.2,0.1-0.3c0-0.1,0.1-0.1,0.1-0.2c0-0.1,0.1-0.2,0.1-0.3
		c0-0.1,0.1-0.1,0.1-0.2c0-0.1,0.1-0.2,0.1-0.2c0-0.1,0.1-0.1,0.1-0.2c0-0.1,0.1-0.2,0.1-0.2c0-0.1,0.1-0.1,0.1-0.2
		c0-0.1,0-0.1,0.1-0.2c0-0.1,0-0.2,0.1-0.2c0-0.1,0-0.1,0.1-0.2c0-0.1,0-0.2,0.1-0.2c0-0.1,0-0.1,0.1-0.2c0-0.1,0-0.2,0.1-0.2
		c0-0.1,0-0.1,0-0.2c0-0.1,0-0.2,0-0.2c0-0.1,0-0.1,0-0.2c0.1-0.3,0.1-0.6,0.1-0.9c0,0,0-0.1,0-0.1c0-0.1,0-0.2,0-0.2
		c0,0,0-0.1,0-0.1c0-0.1,0-0.2,0-0.2c0,0,0-0.1,0-0.1c0-0.1,0-0.1,0-0.2c0,0,0-0.1,0-0.1c0-0.1,0-0.1,0-0.2c0,0,0-0.1,0-0.1
		c0-0.1,0-0.1,0-0.2c0,0,0-0.1,0-0.1c0-0.1,0-0.1,0-0.2c0,0,0-0.1,0-0.1c0-0.1,0-0.1-0.1-0.2c0,0,0-0.1,0-0.1c0-0.1,0-0.1-0.1-0.2
		c0,0,0,0,0,0c-0.1-0.3-0.2-0.5-0.3-0.7c0,0,0,0,0,0c0-0.1-0.1-0.1-0.1-0.2c0,0,0,0,0-0.1c0,0-0.1-0.1-0.1-0.1c0,0,0,0-0.1-0.1
		c0,0-0.1-0.1-0.1-0.1c0,0,0,0-0.1-0.1c0,0-0.1-0.1-0.1-0.1c0,0-0.1,0-0.1-0.1c0,0-0.1-0.1-0.1-0.1c0,0-0.1,0-0.1,0
		c-0.1,0-0.1-0.1-0.2-0.1c0,0-0.1,0-0.1,0c-0.1,0-0.1,0-0.2-0.1c0,0,0,0-0.1,0c-0.6-0.2-1.4-0.2-2.3,0.1
		c-7.5,2.2-11.3,14.6-12.3,18.5c-1.2-2.5-2.4-5-3.4-7.5l0,0l0-0.1c0-0.1-0.1-0.2-0.1-0.2c0,0,0,0,0,0l-0.6-1.5
		c-1.3-3.2-2.3-6.5-3.1-9.9c0.4-0.1,0.9-0.3,1.6-0.5c0.1,0,0.1,0,0.2-0.1c0.3-0.1,0.6-0.2,0.9-0.3c0.1,0,0.2-0.1,0.2-0.1
		c0.2-0.1,0.3-0.1,0.5-0.2c0.1-0.1,0.3-0.1,0.4-0.2c0.1,0,0.2-0.1,0.3-0.1c0.3-0.1,0.7-0.3,1-0.5c0.2-0.1,0.4-0.2,0.5-0.3
		c2.3-1.1,4.8-2.6,6.9-4.6c0,0,0,0,0,0c0.1-0.1,0.2-0.2,0.3-0.3c0,0,0.1-0.1,0.1-0.1c0.1-0.1,0.1-0.2,0.2-0.2c0,0,0.1-0.1,0.1-0.1
		c0.1-0.1,0.2-0.2,0.3-0.3c0,0,0,0,0-0.1c0.1-0.1,0.1-0.2,0.2-0.2c0,0,0.1-0.1,0.1-0.1c0.1-0.1,0.1-0.2,0.2-0.2c0,0,0,0,0.1-0.1
		c0.1-0.1,0.2-0.2,0.2-0.3c0,0,0,0,0.1-0.1c0.1-0.1,0.1-0.2,0.2-0.2c0,0,0-0.1,0.1-0.1c0.1-0.1,0.1-0.2,0.2-0.3c0,0,0,0,0,0
		c0.1-0.1,0.1-0.2,0.2-0.3c0,0,0,0,0.1-0.1c0.1-0.1,0.1-0.2,0.2-0.2c0,0,0,0,0-0.1c0.1-0.1,0.1-0.2,0.2-0.3c0,0,0,0,0,0
		c0.1-0.1,0.1-0.2,0.2-0.3c0,0,0,0,0-0.1c0-0.1,0.1-0.2,0.1-0.2c0,0,0,0,0,0c0.1-0.1,0.1-0.2,0.1-0.3c0,0,0,0,0,0
		c0-0.1,0.1-0.2,0.1-0.3c0,0,0,0,0-0.1c0-0.1,0.1-0.2,0.1-0.3c0,0,0,0,0,0c0-0.1,0.1-0.2,0.1-0.3c0,0,0,0,0,0c0-0.1,0.1-0.2,0.1-0.2
		c0,0,0,0,0,0c0.1-0.2,0.1-0.4,0.1-0.5c0,0,0,0,0,0c0-0.1,0-0.2,0-0.2c0,0,0,0,0,0c0-0.2,0-0.3,0-0.5c0,0,0,0,0,0c0-0.2,0-0.3,0-0.4
		l0,0c0-0.1,0-0.1,0-0.2c0,0,0,0,0,0c0-0.1-0.1-0.3-0.1-0.4c0,0,0,0,0,0c0-0.1-0.1-0.1-0.1-0.2c0,0,0,0,0,0
		c-0.1-0.1-0.2-0.2-0.2-0.3c0,0,0,0,0,0c-0.8-0.7-2.3-0.9-4.8-0.1c-5.8,1.9-10.1,10.9-11.6,14.4c-0.7-3-1.2-6.1-1.5-9.2l-0.2-1.8
		c0-0.6-0.1-1.2-0.1-1.8c-0.1-2.4-0.2-4.8-0.1-7.2c0.1,0,0.3,0,0.4-0.1c0.1,0,0.2,0,0.2,0c0.2,0,0.4-0.1,0.6-0.1
		c0.6-0.1,1.3-0.3,2.2-0.5c0.3-0.1,0.6-0.1,0.9-0.2c0.2,0,0.3-0.1,0.5-0.1c1.6-0.4,3.6-0.9,5.9-1.6c0.1,0,0.2-0.1,0.3-0.1
		c0,0,0.1,0,0.1,0c0.1,0,0.1,0,0.2-0.1c0,0,0.1,0,0.1,0c0.1,0,0.1,0,0.2-0.1c0,0,0.1,0,0.1,0c0.1,0,0.1,0,0.2-0.1c0,0,0.1,0,0.1-0.1
		c0.1,0,0.1-0.1,0.2-0.1c0,0,0.1,0,0.1-0.1c0.1,0,0.1-0.1,0.2-0.1c0,0,0.1,0,0.1-0.1c0.1,0,0.1-0.1,0.2-0.1c0,0,0.1,0,0.1-0.1
		c0.1,0,0.2-0.1,0.2-0.1c0,0,0,0,0.1,0c0.1-0.1,0.2-0.1,0.3-0.2c0,0,0.1,0,0.1,0c0.1,0,0.1-0.1,0.2-0.1c0,0,0.1,0,0.1-0.1
		c0.1,0,0.1-0.1,0.2-0.1c0,0,0.1,0,0.1-0.1c0.1,0,0.1-0.1,0.2-0.1c0,0,0.1,0,0.1-0.1c0.1,0,0.1-0.1,0.2-0.1c0,0,0.1-0.1,0.1-0.1
		c0.1,0,0.1-0.1,0.2-0.1c0,0,0.1-0.1,0.1-0.1c0.1,0,0.1-0.1,0.2-0.1c0,0,0.1-0.1,0.1-0.1c0.1,0,0.1-0.1,0.2-0.1c0,0,0.1,0,0.1-0.1
		c0.1-0.1,0.2-0.1,0.2-0.2c0,0,0.1,0,0.1-0.1c0.1,0,0.1-0.1,0.2-0.1c0,0,0.1-0.1,0.1-0.1c0,0,0.1-0.1,0.1-0.1c0,0,0.1-0.1,0.1-0.1
		c0,0,0.1-0.1,0.1-0.1c0,0,0.1-0.1,0.1-0.1c0,0,0.1-0.1,0.1-0.1c0,0,0.1-0.1,0.1-0.1c0,0,0.1-0.1,0.1-0.1c0,0,0.1-0.1,0.1-0.1
		c0,0,0.1-0.1,0.1-0.1c0,0,0.1-0.1,0.1-0.1c0,0,0.1-0.1,0.1-0.1c0,0,0.1-0.1,0.1-0.1c0,0,0.1-0.1,0.1-0.1c0.1-0.1,0.1-0.2,0.2-0.2
		c0,0,0-0.1,0.1-0.1c0,0,0.1-0.1,0.1-0.1c0,0,0.1-0.1,0.1-0.1c0,0,0.1-0.1,0.1-0.1c0,0,0-0.1,0.1-0.1c0,0,0.1-0.1,0.1-0.1
		c0,0,0-0.1,0.1-0.1c0,0,0.1-0.1,0.1-0.1c0,0,0-0.1,0.1-0.1c0,0,0.1-0.1,0.1-0.1c0,0,0-0.1,0.1-0.1c0,0,0.1-0.1,0.1-0.1
		c0,0,0,0,0-0.1c0-0.1,0.1-0.1,0.1-0.2c0,0,0,0,0,0c0.1-0.2,0.2-0.4,0.3-0.6c0,0,0,0,0,0c0-0.1,0.1-0.1,0.1-0.2c0,0,0,0,0-0.1
		c0-0.1,0-0.1,0.1-0.2c0,0,0,0,0-0.1c0-0.1,0-0.1,0.1-0.2c0,0,0,0,0-0.1c0-0.1,0-0.1,0.1-0.2c0,0,0,0,0-0.1c0-0.1,0-0.1,0-0.2
		c0,0,0,0,0-0.1c0-0.1,0-0.1,0-0.2c0,0,0,0,0,0c0.1-0.3,0.1-0.5,0.1-0.8c0,0,0,0,0,0c0-0.1,0-0.1,0-0.2c0,0,0,0,0,0
		c0-0.1,0-0.1,0-0.2c0,0,0,0,0,0c0-0.1,0-0.1,0-0.2c0,0,0,0,0,0c0-0.1,0-0.1,0-0.2c0,0,0,0,0,0c0-0.1,0-0.1,0-0.2c0,0,0,0,0,0
		c-0.1-0.2-0.1-0.5-0.3-0.7c0,0,0,0,0,0c0-0.1-0.1-0.1-0.1-0.2c0,0,0,0,0,0c0,0-0.1-0.1-0.1-0.1c0,0,0,0,0,0c0,0-0.1-0.1-0.1-0.1
		c0,0,0,0,0,0c0,0-0.1-0.1-0.1-0.1c0,0,0,0,0,0c0,0-0.1-0.1-0.1-0.1c0,0,0,0,0,0c-0.4-0.4-1-0.8-1.7-1.1
		c-6.8-2.9-14.7,9.5-17.2,13.9c0.2-3.9,0.7-7.8,1.5-11.6c0,0,0,0,0,0l0.3-1.4c0.5-2.2,1.1-4.5,1.8-6.7c0,0,0,0,0.1,0
		c0.1-0.1,0.3-0.1,0.4-0.2c0,0,0,0,0,0c0.1-0.1,0.3-0.1,0.4-0.2c0,0,0,0,0,0c0.1-0.1,0.3-0.2,0.4-0.2c0,0,0,0,0.1,0
		c0.1-0.1,0.2-0.2,0.4-0.3c0,0,0,0,0.1,0c0.1-0.1,0.3-0.2,0.4-0.3c0,0,0,0,0,0c0.1-0.1,0.2-0.2,0.4-0.3c0,0,0,0,0.1,0
		c0.1-0.1,0.2-0.2,0.3-0.3c0,0,0,0,0.1-0.1c0.1-0.1,0.2-0.2,0.3-0.3c0,0,0,0,0,0c0.1-0.1,0.2-0.2,0.3-0.3c0,0,0,0,0,0
		c0.1-0.1,0.2-0.2,0.3-0.3c0,0,0,0,0.1-0.1c0.1-0.1,0.2-0.2,0.3-0.3c0,0,0,0,0.1-0.1c0.1-0.1,0.2-0.2,0.3-0.4c0,0,0,0,0,0
		c0.1-0.1,0.2-0.2,0.3-0.4c0,0,0,0,0-0.1c0.1-0.1,0.2-0.2,0.3-0.4c0,0,0,0,0.1-0.1c0.1-0.1,0.2-0.3,0.3-0.4c0,0,0,0,0-0.1
		c0.1-0.1,0.2-0.3,0.3-0.4c0,0,0,0,0,0c0.1-0.1,0.2-0.3,0.3-0.4c0,0,0,0,0-0.1c0.1-0.1,0.2-0.3,0.2-0.4c0,0,0-0.1,0-0.1
		c0.1-0.1,0.2-0.3,0.2-0.4c0,0,0,0,0,0c0.1-0.1,0.1-0.3,0.2-0.4c0,0,0,0,0-0.1c0.1-0.1,0.1-0.3,0.2-0.4c0,0,0-0.1,0-0.1
		c0.1-0.1,0.1-0.3,0.2-0.4c0,0,0,0,0-0.1c0.1-0.1,0.1-0.3,0.2-0.4c0,0,0,0,0,0c0.1-0.1,0.1-0.3,0.2-0.4c0,0,0,0,0-0.1
		c0.1-0.1,0.1-0.3,0.2-0.4c0,0,0-0.1,0-0.1c0.1-0.1,0.1-0.3,0.2-0.4c0,0,0,0,0,0c0.1-0.1,0.1-0.3,0.1-0.4c0,0,0,0,0,0
		c0-0.1,0.1-0.3,0.1-0.4c0,0,0-0.1,0-0.1c0-0.1,0.1-0.3,0.1-0.4c0,0,0,0,0-0.1c0-0.1,0.1-0.3,0.1-0.4c0,0,0,0,0,0
		c0-0.1,0.1-0.3,0.1-0.4c0,0,0,0,0-0.1c0-0.1,0.1-0.3,0.1-0.4c0,0,0-0.1,0-0.1c0-0.1,0.1-0.3,0.1-0.4c0,0,0,0,0,0
		c0-0.1,0.1-0.3,0.1-0.4c0,0,0,0,0,0c0-0.1,0-0.3,0.1-0.4c0,0,0,0,0-0.1c0-0.1,0-0.3,0.1-0.4c0,0,0,0,0-0.1c0-0.1,0-0.3,0-0.4
		c0,0,0,0,0,0c0-0.1,0-0.3,0-0.4c0,0,0,0,0,0c0-0.1,0-0.3,0-0.4c0,0,0,0,0-0.1c0-0.1,0-0.3,0-0.4c0,0,0,0,0,0c0-0.1,0-0.3,0-0.4
		c0,0,0,0,0,0c0-0.1,0-0.3,0-0.4c0,0,0,0,0-0.1c0-0.1,0-0.2,0-0.4c0,0,0,0,0-0.1c0-0.1,0-0.2,0-0.4c0,0,0,0,0,0c0-0.1,0-0.2,0-0.3
		c0,0,0,0,0,0c0-0.1,0-0.2,0-0.3c0,0,0,0,0,0c0-0.1,0-0.2-0.1-0.3c0,0,0,0,0,0c0-0.2-0.1-0.4-0.2-0.6c0,0,0,0,0,0
		c0-0.1-0.1-0.2-0.1-0.3c0,0,0,0,0,0c0-0.1-0.1-0.2-0.1-0.2c0,0,0,0,0,0c0-0.1-0.1-0.2-0.1-0.2c0,0,0,0,0,0c0-0.1-0.1-0.1-0.1-0.2
		c0,0,0,0,0,0c0-0.1-0.1-0.1-0.1-0.2c0,0,0,0,0,0c-0.1-0.1-0.2-0.2-0.3-0.3c0,0,0,0,0,0c-0.1,0-0.1-0.1-0.2-0.1c0,0,0,0,0,0
		c-0.1,0-0.1-0.1-0.2-0.1c0,0,0,0,0,0c-0.1,0-0.1-0.1-0.2-0.1c0,0,0,0,0,0c-0.1,0-0.1,0-0.2-0.1c0,0,0,0,0,0c-0.1,0-0.1,0-0.2,0
		c0,0,0,0,0,0c-0.1,0-0.2,0-0.2,0l0,0l0,0c-0.9,0-2,0.5-3.4,1.6c-8,6.6-6,16.7-4.9,20.1c-0.7,2.2-1.4,4.5-1.9,6.8l-0.3,1.3
		c-0.8,4-1.4,8-1.6,12c-1.7-4.6-6.5-15.8-13.4-15.6c-1.8,0-3,0.6-3.7,1.4c0,0,0,0,0,0c-0.2,0.3-0.3,0.5-0.4,0.8c0,0,0,0,0,0
		c-0.1,0.3-0.2,0.6-0.2,1c0,0,0,0,0,0c0,0.3,0,0.7,0.1,1.1c0,0,0,0,0,0c0,0.1,0,0.1,0,0.2c0,0,0,0,0,0c0.1,0.3,0.1,0.6,0.2,0.9
		c0,0,0,0,0,0c0,0.1,0,0.1,0.1,0.2c0,0,0,0,0,0c0.1,0.2,0.2,0.5,0.3,0.7c0,0,0,0,0,0c0,0.1,0.1,0.1,0.1,0.2c0,0,0,0,0,0.1
		c0,0.1,0.1,0.1,0.1,0.2c0,0,0,0,0,0.1c0.1,0.2,0.2,0.4,0.3,0.7c0,0,0,0,0,0.1c0,0.1,0.1,0.1,0.1,0.2c0,0,0,0.1,0.1,0.1
		c0,0.1,0.1,0.1,0.1,0.2c0,0,0,0.1,0.1,0.1c0,0.1,0.1,0.1,0.1,0.2c0,0,0,0.1,0.1,0.1c0.1,0.1,0.1,0.2,0.2,0.3c0,0,0.1,0.1,0.1,0.1
		c0,0.1,0.1,0.1,0.1,0.2c0,0,0.1,0.1,0.1,0.1c0,0,0.1,0.1,0.1,0.1c0,0,0.1,0.1,0.1,0.1c0,0,0.1,0.1,0.1,0.1c0.1,0.1,0.1,0.1,0.2,0.2
		c0,0.1,0.1,0.1,0.1,0.2c0,0.1,0.1,0.1,0.1,0.2c0,0,0.1,0.1,0.1,0.1c0,0.1,0.1,0.1,0.1,0.2c0,0,0.1,0.1,0.1,0.1
		c0,0.1,0.1,0.1,0.1,0.2c0,0,0.1,0.1,0.1,0.1c0.1,0.1,0.2,0.2,0.2,0.3c0,0,0,0,0.1,0.1c0.1,0.1,0.1,0.1,0.2,0.2c0,0,0.1,0.1,0.1,0.1
		c0.1,0.1,0.1,0.1,0.2,0.2c0,0,0.1,0.1,0.1,0.1c0.1,0.1,0.1,0.1,0.2,0.2c0,0,0.1,0.1,0.1,0.1c0.1,0.1,0.2,0.2,0.3,0.2c0,0,0,0,0,0
		c0.1,0.1,0.2,0.1,0.2,0.2c0,0,0.1,0.1,0.1,0.1c0.1,0.1,0.1,0.1,0.2,0.2c0,0,0.1,0.1,0.1,0.1c0.1,0.1,0.1,0.1,0.2,0.2
		c0,0,0.1,0,0.1,0.1c0.1,0.1,0.2,0.1,0.3,0.2c0,0,0,0,0,0c0.1,0.1,0.2,0.1,0.3,0.2c0,0,0.1,0,0.1,0.1c0.1,0,0.1,0.1,0.2,0.1
		c0,0,0.1,0,0.1,0.1c0.1,0,0.1,0.1,0.2,0.1c0,0,0.1,0,0.1,0.1c0.1,0.1,0.2,0.1,0.3,0.2c0,0,0,0,0,0c0.1,0.1,0.2,0.1,0.3,0.2
		c0,0,0.1,0,0.1,0.1c0.1,0,0.1,0.1,0.2,0.1c0,0,0.1,0,0.1,0.1c0.1,0,0.1,0.1,0.2,0.1c0,0,0.1,0,0.1,0c0.1,0.1,0.2,0.1,0.3,0.2
		c1.6,0.7,3,1.3,4.1,1.7c0.3,0.1,0.6,0.2,0.9,0.3c0.3,0.1,0.6,0.2,0.8,0.2c0.4,0.1,0.7,0.2,1,0.2c0.1,0,0.2,0,0.3,0.1
		c0.4,0.1,0.7,0.1,1,0.1c0.1,0,0.1,0,0.2,0c0.1,0,0.2,0,0.3,0c-0.1,2.4-0.1,4.9,0.1,7.3l0.1,1.9c0.3,3.5,0.8,7,1.6,10.4
		c-3.1-4-12.5-15.1-18.3-10.7c-0.2,0.2-0.5,0.4-0.7,0.6c0,0,0,0,0,0c-0.1,0-0.1,0.1-0.1,0.1c0,0,0,0,0,0c0,0-0.1,0.1-0.1,0.1
		c0,0,0,0,0,0c0,0-0.1,0.1-0.1,0.1c0,0,0,0,0,0c0,0-0.1,0.1-0.1,0.1c0,0,0,0,0,0c0,0-0.1,0.1-0.1,0.1c0,0,0,0,0,0
		c0,0-0.1,0.1-0.1,0.1c0,0,0,0,0,0c0,0-0.1,0.1-0.1,0.1c0,0,0,0,0,0c0,0-0.1,0.1-0.1,0.1c0,0,0,0,0,0c0,0-0.1,0.1-0.1,0.1
		c0,0,0,0,0,0c0,0,0,0.1-0.1,0.1c0,0,0,0,0,0c0,0,0,0.1-0.1,0.1c0,0,0,0,0,0c0,0,0,0.1-0.1,0.1c0,0,0,0,0,0c0,0,0,0.1,0,0.1
		c0,0,0,0,0,0c0,0,0,0.1,0,0.1c0,0,0,0,0,0c0,0,0,0.1,0,0.1c0,0,0,0,0,0c0,0,0,0.1,0,0.1c0,0,0,0,0,0c0,0,0,0.1,0,0.1c0,0,0,0,0,0
		c0,0,0,0.1,0,0.1c0,0,0,0,0,0c0,0,0,0.1,0,0.1c0,0,0,0,0,0c0,0,0,0.1,0,0.1c0,0,0,0,0,0c0,0,0,0.1,0,0.1c0,0,0,0,0,0
		c0,0,0,0.1,0,0.1c0,0,0,0,0,0c0,0,0,0.1,0,0.1l0,0c0.2,1.1,1,2.1,2.2,3.1l0,0c0.1,0,0.1,0.1,0.2,0.1c0,0,0,0,0,0
		c0.1,0,0.1,0.1,0.2,0.1c0,0,0,0,0,0c0.1,0,0.1,0.1,0.2,0.1c0,0,0,0,0,0c0.1,0,0.1,0.1,0.2,0.1c0,0,0,0,0,0c0.1,0,0.1,0.1,0.2,0.1
		c0,0,0,0,0,0c0.1,0,0.1,0.1,0.2,0.1c0,0,0,0,0,0c0.1,0,0.1,0.1,0.2,0.1c0,0,0,0,0,0c0.1,0,0.1,0.1,0.2,0.1c0,0,0,0,0,0
		c0.1,0,0.1,0.1,0.2,0.1c0,0,0,0,0,0c0.1,0,0.1,0.1,0.2,0.1c0,0,0,0,0,0c0.1,0,0.1,0.1,0.2,0.1c0,0,0,0,0,0c0.1,0,0.1,0.1,0.2,0.1
		c0,0,0,0,0,0c0.1,0,0.1,0.1,0.2,0.1c0,0,0,0,0,0c0.1,0,0.1,0.1,0.2,0.1c0,0,0,0,0,0c0.1,0,0.1,0.1,0.2,0.1c0,0,0,0,0,0
		c0.1,0,0.1,0.1,0.2,0.1c0,0,0,0,0.1,0c0.1,0,0.1,0.1,0.2,0.1c0,0,0,0,0.1,0c0.1,0,0.1,0.1,0.2,0.1c0,0,0,0,0.1,0
		c0.1,0,0.1,0.1,0.2,0.1c0,0,0,0,0.1,0c0.1,0,0.1,0.1,0.2,0.1c0,0,0,0,0.1,0c0.1,0,0.1,0.1,0.2,0.1c0,0,0,0,0.1,0
		c0.1,0,0.1,0.1,0.2,0.1c0,0,0,0,0.1,0c0.1,0,0.1,0,0.2,0.1c0,0,0,0,0.1,0c0.1,0,0.1,0,0.2,0.1c0,0,0,0,0.1,0c0.1,0,0.1,0,0.2,0.1
		c0,0,0,0,0.1,0c0.1,0,0.1,0,0.2,0.1c0,0,0,0,0.1,0c0.1,0,0.1,0,0.2,0.1c0,0,0,0,0.1,0c0.1,0,0.1,0,0.2,0.1c0,0,0,0,0,0
		c0.1,0,0.1,0,0.2,0.1c0,0,0,0,0,0c0.1,0,0.1,0.1,0.2,0.1c0,0,0,0,0,0c0.1,0,0.2,0.1,0.2,0.1c0,0,0,0,0,0c0.6,0.2,1.2,0.4,1.8,0.6
		c0,0,0,0,0,0c0.1,0,0.1,0,0.2,0.1c0,0,0,0,0,0c0.1,0,0.1,0,0.2,0.1c0,0,0,0,0.1,0c0.1,0,0.1,0,0.2,0c0,0,0.1,0,0.1,0
		c0.1,0,0.1,0,0.2,0c0,0,0.1,0,0.1,0c0.1,0,0.1,0,0.2,0c0,0,0.1,0,0.1,0c0.1,0,0.1,0,0.2,0c0,0,0.1,0,0.1,0c0.1,0,0.1,0,0.2,0
		c0,0,0.1,0,0.1,0c0.1,0,0.1,0,0.2,0c0,0,0.1,0,0.1,0c0.1,0,0.1,0,0.2,0c0,0,0.1,0,0.1,0c0,0,0.1,0,0.1,0c0,0,0.1,0,0.1,0
		c0,0,0.1,0,0.1,0c0,0,0.1,0,0.1,0c0,0,0.1,0,0.1,0c0,0,0.1,0,0.1,0c0,0,0.1,0,0.1,0c0,0,0.1,0,0.1,0c0,0,0.1,0,0.1,0
		c0,0,0.1,0,0.1,0c0,0,0.1,0,0.1,0c0,0,0.1,0,0.1,0c0,0,0.1,0,0.1,0c0,0,0.1,0,0.1,0c0,0,0.1,0,0.1,0c0,0,0.1,0,0.1,0
		c0,0,0.1,0,0.1,0c0,0,0.1,0,0.1,0c0,0,0.1,0,0.1,0c0,0,0.1,0,0.1,0c0,0,0.1,0,0.1,0c0,0,0.1,0,0.1,0c0,0,0.1,0,0.1,0
		c0,0,0.1,0,0.1,0c0,0,0.1,0,0.1,0c0,0,0.1,0,0.1,0c0,0,0.1,0,0.1,0c0,0,0.1,0,0.1,0c0,0,0.1,0,0.1,0c0,0,0.1,0,0.1,0
		c0,0,0.1,0,0.1,0c0,0,0.1,0,0.1,0c0,0,0.1,0,0.1,0c0,0,0.1,0,0.1,0c0,0,0.1,0,0.1,0c0,0,0.1,0,0.1,0c0,0,0.1,0,0.1,0
		c0,0,0.1,0,0.1,0c0,0,0.1,0,0.1,0c0,0,0.1,0,0.1,0c0,0,0.1,0,0.1,0c0,0,0.1,0,0.1,0c0,0,0.1,0,0.1,0c0,0,0.1,0,0.1,0
		c0,0,0.1,0,0.1,0c0,0,0.1,0,0.1,0c0,0,0.1,0,0.1,0c0,0,0.1,0,0.1,0c0,0,0.1,0,0.1,0c0,0,0.1,0,0.1,0c0,0,0.1,0,0.1,0
		c0,0,0.1,0,0.1,0c0,0,0.1,0,0.1,0c0,0,0.1,0,0.1,0c0,0,0.1,0,0.1,0c0,0,0.1,0,0.1,0c0,0,0.1,0,0.1,0c0,0,0.1,0,0.1,0
		c0,0,0.1,0,0.1,0c0,0,0.1,0,0.1,0c0,0,0,0,0,0c0.6,2.5,1.3,4.9,2.1,7.4c0.2,0.7,0.5,1.4,0.7,2l0.5,1.2c1,2.6,2.2,5.2,3.4,7.8
		c-3.4-3.2-11.1-9-19.9-5.5c-1.7,0.7-2.7,1.5-3.2,2.2c0,0,0,0,0,0c0,0.1-0.1,0.1-0.1,0.2c0,0,0,0,0,0c0,0.1-0.1,0.1-0.1,0.2
		c0,0,0,0,0,0c0,0.1-0.1,0.3-0.1,0.4c0,0,0,0,0,0c0,0.1,0,0.1,0,0.2c0,0,0,0,0,0c0,0.1,0,0.1,0,0.2c0,0,0,0,0,0
		c0,0.2,0.1,0.4,0.3,0.6c0,0,0,0,0,0c0,0.1,0.1,0.1,0.1,0.2c0,0,0,0,0,0c0.1,0.2,0.3,0.4,0.6,0.6c0,0,0,0,0,0
		c0.1,0.1,0.1,0.1,0.2,0.2c0,0,0,0,0,0c0.2,0.2,0.5,0.4,0.8,0.6c0,0,0,0,0,0c0.1,0.1,0.2,0.1,0.3,0.2c0,0,0,0,0,0
		c0.1,0.1,0.2,0.1,0.3,0.2c0,0,0,0,0,0c0.2,0.1,0.5,0.2,0.7,0.4c0,0,0,0,0,0c0.1,0.1,0.2,0.1,0.4,0.2c0,0,0,0,0,0
		c0.1,0.1,0.2,0.1,0.4,0.2c0,0,0,0,0,0c0.3,0.1,0.5,0.2,0.8,0.3c0,0,0,0,0,0c0.1,0,0.3,0.1,0.4,0.1c0,0,0,0,0.1,0
		c0.1,0,0.3,0.1,0.4,0.1c0,0,0,0,0,0c0.3,0.1,0.6,0.2,0.9,0.3c0,0,0,0,0,0c0.1,0,0.3,0.1,0.4,0.1c0,0,0,0,0.1,0
		c0.1,0,0.3,0.1,0.4,0.1c0,0,0,0,0.1,0c0.2,0,0.3,0.1,0.5,0.1c0,0,0,0,0,0c0.2,0,0.3,0.1,0.5,0.1c0,0,0,0,0,0c0.2,0,0.3,0.1,0.5,0.1
		c0,0,0,0,0.1,0c0.2,0,0.3,0.1,0.5,0.1c0,0,0.1,0,0.1,0c0.2,0,0.3,0.1,0.5,0.1c0,0,0,0,0.1,0c0.2,0,0.3,0,0.5,0.1c0,0,0,0,0,0
		c0.2,0,0.3,0,0.5,0.1c0,0,0.1,0,0.1,0c0.2,0,0.3,0,0.5,0.1c0,0,0.1,0,0.1,0c0.2,0,0.3,0,0.5,0c0,0,0,0,0.1,0c0.2,0,0.3,0,0.5,0
		c0,0,0,0,0,0c0.2,0,0.3,0,0.5,0c0,0,0.1,0,0.1,0c0.2,0,0.3,0,0.5,0c0,0,0.1,0,0.1,0c0.2,0,0.3,0,0.5,0c0,0,0.1,0,0.1,0
		c0.2,0,0.4,0,0.5,0c0,0,0,0,0,0c0.2,0,0.3,0,0.5,0c0,0,0,0,0.1,0c0.2,0,0.3,0,0.5,0c0,0,0.1,0,0.1,0c0.2,0,0.3,0,0.5,0
		c0,0,0.1,0,0.1,0c0.2,0,0.3,0,0.5,0c0,0,0,0,0,0c0.2,0,0.3,0,0.5,0c0,0,0,0,0.1,0c0.2,0,0.3,0,0.5-0.1c0,0,0.1,0,0.1,0
		c0.2,0,0.3,0,0.5-0.1c0,0,0.1,0,0.1,0c0.2,0,0.3,0,0.5-0.1c0,0,0,0,0.1,0c0.2,0,0.3-0.1,0.5-0.1c0,0,0,0,0,0c0.2,0,0.3-0.1,0.5-0.1
		c0,0,0.1,0,0.1,0c0.2,0,0.3-0.1,0.5-0.1c0,0,0.1,0,0.1,0c0.2,0,0.3-0.1,0.5-0.1c0,0,0,0,0.1,0c0.2,0,0.3-0.1,0.5-0.1c0,0,0,0,0,0
		c0.2,0,0.3-0.1,0.5-0.1c0,0,0,0,0.1,0c0.2,0,0.3-0.1,0.4-0.2c0,0,0.1,0,0.1,0c0.1,0,0.2-0.1,0.2-0.1c1.9,3.8,3.9,7.6,5.9,11.3
		l0.9,1.8c1.1,2.1,2.1,4.2,3.1,6.3c-4.5-1.8-18.5-6.9-22.8-4c-1.3,0.9-1.8,2-1.6,3.2c0,0,0,0,0,0c0,0.2,0.1,0.4,0.2,0.6c0,0,0,0,0,0
		c0.1,0.2,0.2,0.4,0.3,0.6c0,0,0,0,0,0c0.1,0.1,0.1,0.2,0.2,0.3c0,0,0,0,0,0c0.1,0.1,0.1,0.2,0.2,0.3c0,0,0,0,0,0
		c0.1,0.1,0.2,0.2,0.2,0.3c0,0,0,0,0,0c0.1,0.1,0.2,0.2,0.2,0.3c0,0,0,0,0,0c0.1,0.1,0.2,0.2,0.3,0.3c0,0,0,0,0,0
		c0.1,0.1,0.2,0.2,0.3,0.3c0,0,0,0,0,0c0.1,0.1,0.2,0.2,0.3,0.3c0,0,0,0,0.1,0c0.1,0.1,0.2,0.2,0.3,0.3c0,0,0,0,0,0
		c0.1,0.1,0.2,0.2,0.4,0.3c0,0,0,0,0.1,0c0.1,0.1,0.2,0.2,0.4,0.2c0,0,0,0,0,0c0.1,0.1,0.3,0.2,0.4,0.2c0,0,0.1,0,0.1,0
		c0.3,0.2,0.5,0.3,0.8,0.5c0,0,0.1,0,0.1,0c0.1,0.1,0.3,0.1,0.4,0.2c0,0,0,0,0,0c0.1,0.1,0.3,0.1,0.4,0.2c0,0,0.1,0,0.1,0
		c0.1,0.1,0.3,0.1,0.4,0.2c0,0,0,0,0.1,0c0.1,0,0.3,0.1,0.4,0.1c0,0,0.1,0,0.1,0c0.2,0,0.3,0.1,0.5,0.1c0,0,0.1,0,0.1,0
		c0.1,0,0.3,0.1,0.4,0.1c0,0,0.1,0,0.1,0c0.2,0,0.3,0.1,0.5,0.1c0,0,0.1,0,0.1,0c0.1,0,0.3,0,0.4,0.1c0,0,0.1,0,0.1,0
		c0.2,0,0.3,0,0.5,0.1c0,0,0.1,0,0.1,0c0.1,0,0.3,0,0.4,0c0,0,0,0,0.1,0c0.2,0,0.3,0,0.5,0c0,0,0.1,0,0.1,0c0.2,0,0.3,0,0.5,0
		c0,0,0,0,0,0c0.2,0,0.3,0,0.5,0c0,0,0.1,0,0.1,0c0.2,0,0.3,0,0.5-0.1l0,0l0,0c5.1-0.7,8.8-2.5,11-3.8c0.6-0.4,1.1-0.7,1.4-0.9
		c1.6,3.5,3,7.1,4.1,10.8c0,0,0,0,0,0l0,0.1c0,0,0,0.1,0,0.1c0,0,0,0,0,0l0.3,1.2c0,0,0,0,0,0c0,0.1,0,0.2,0.1,0.3l0,0l0,0
		c0.2,0.8,0.4,1.6,0.6,2.5c2.2,10,2,20.4-0.4,30.4c-0.2,1,1.3,1.2,1.5,0.2c2.2-8.8,2.6-18,1.2-26.9c-0.3-2.1-0.7-4.1-1.3-6.1
		l-0.4-1.6c-1.1-4-2.6-7.8-4.3-11.6c0.1,0,0.3,0,0.4,0c0,0,0.1,0,0.1,0c0.2,0,0.4-0.1,0.5-0.1c0,0,0,0,0,0c0.2,0,0.3-0.1,0.5-0.1
		c0,0,0.1,0,0.1,0c0.2,0,0.3-0.1,0.5-0.1c0,0,0.1,0,0.1,0c0.2,0,0.3-0.1,0.5-0.1c0,0,0,0,0.1,0c0.2,0,0.3-0.1,0.5-0.1c0,0,0,0,0,0
		c0.2-0.1,0.3-0.1,0.5-0.2c0,0,0.1,0,0.1,0c0.2-0.1,0.3-0.1,0.5-0.2c0,0,0.1,0,0.1,0c0.2-0.1,0.3-0.1,0.5-0.2c0,0,0,0,0,0
		c0.2-0.1,0.3-0.1,0.4-0.2c0,0,0.1,0,0.1,0c0.1-0.1,0.3-0.1,0.4-0.2c0,0,0.1,0,0.1,0c0.1-0.1,0.3-0.2,0.4-0.2c0,0,0,0,0,0
		c0.1-0.1,0.3-0.2,0.4-0.2c0,0,0,0,0.1,0c0.1-0.1,0.3-0.2,0.4-0.3c0,0,0.1,0,0.1-0.1c0.1-0.1,0.2-0.2,0.4-0.3c0,0,0,0,0.1,0
		c0.1-0.1,0.2-0.2,0.3-0.3c0,0,0,0,0,0c0.1-0.1,0.2-0.2,0.3-0.3c0,0,0,0,0.1-0.1c0.1-0.1,0.2-0.2,0.3-0.3c0,0,0,0,0.1-0.1
		c0.1-0.1,0.2-0.2,0.3-0.3c0,0,0,0,0,0c0.1-0.1,0.2-0.2,0.3-0.3c0,0,0,0,0.1-0.1c0.1-0.1,0.2-0.2,0.3-0.3c0,0,0,0,0.1-0.1
		c0.1-0.1,0.2-0.2,0.3-0.3c0,0,0,0,0,0c0.1-0.1,0.2-0.2,0.3-0.3c0,0,0,0,0-0.1C281.6,241.6,281.7,241.5,281.8,241.3
		C281.8,241.3,281.8,241.3,281.8,241.3z"/>
</g>
</svg>
